<?xml version="1.0" encoding="UTF-8" standalone="no"?>
<svg width="15" height="14.999958" version="1.1" id="svg6" sodipodi:docname="aerodrome.svg" inkscape:version="1.2.2 (b0a8486541, 2022-12-01)" xmlns:inkscape="http://www.inkscape.org/namespaces/inkscape" xmlns:sodipodi="http://sodipodi.sourceforge.net/DTD/sodipodi-0.dtd" xmlns="http://www.w3.org/2000/svg" xmlns:svg="http://www.w3.org/2000/svg">
  <defs id="defs10" />
  <sodipodi:namedview id="namedview8" pagecolor="#ffffff" bordercolor="#666666" borderopacity="1.0" inkscape:showpageshadow="2" inkscape:pageopacity="0.0" inkscape:pagecheckerboard="0" inkscape:deskcolor="#d1d1d1" showgrid="false" inkscape:zoom="19.666667" inkscape:cx="5.1355932" inkscape:cy="7.5" inkscape:window-width="1863" inkscape:window-height="1056" inkscape:window-x="0" inkscape:window-y="0" inkscape:window-maximized="1" inkscape:current-layer="svg6" />
  <path d="M 7.5,1.5 C 6.755,1.5 6.5,3.5 6.5,3.5 V 5.469 L 1.5,9 V 10 L 6.5,8.75 V 11.156 L 4.5,12.5 V 13.5 L 7.5,12.75 L 10.5,13.5 V 12.5 L 8.5,11.156 V 8.75 L 13.5,10 V 9 L 8.5,5.469 V 3.5 C 8.5,3.5 8.245,1.5 7.5,1.5 Z" opacity="0.5" fill="none" stroke="#ffffff" stroke-width="3" stroke-linecap="round" stroke-linejoin="round" id="path2" />
  <path fill-rule="evenodd" d="M 7.5,1.5 C 6.755,1.5 6.5,3.5 6.5,3.5 V 5.469 L 1.5,9 V 10 L 6.5,8.75 V 11.156 L 4.5,12.5 V 13.5 L 7.5,12.75 L 10.5,13.5 V 12.5 L 8.5,11.156 V 8.75 L 13.5,10 V 9 L 8.5,5.469 V 3.5 C 8.5,3.5 8.245,1.5 7.5,1.5 Z" id="path4" />
</svg>
