<?xml version="1.0" encoding="UTF-8" standalone="no"?>
<svg width="17.632727" height="12.999854" version="1.1" id="svg2" sodipodi:docname="arch.svg" inkscape:version="1.4.2 (ebf0e940d0, 2025-05-08)" xmlns:inkscape="http://www.inkscape.org/namespaces/inkscape" xmlns:sodipodi="http://sodipodi.sourceforge.net/DTD/sodipodi-0.dtd" xmlns="http://www.w3.org/2000/svg" xmlns:svg="http://www.w3.org/2000/svg">
  <defs id="defs2" />
  <sodipodi:namedview id="namedview2" pagecolor="#ffffff" bordercolor="#666666" borderopacity="1.0" inkscape:showpageshadow="2" inkscape:pageopacity="0.0" inkscape:pagecheckerboard="true" inkscape:deskcolor="#d1d1d1" inkscape:zoom="37.214286" inkscape:cx="7.0134356" inkscape:cy="9.1631477" inkscape:window-width="2154" inkscape:window-height="1206" inkscape:window-x="0" inkscape:window-y="0" inkscape:window-maximized="1" inkscape:current-layer="svg2" />
  <path d="M 6.5589924,11.499854 H 1.4999924 C 1.5329924,10.835854 1.6069924,10.142854 1.6399924,9.4658544 C 1.7389924,8.5568544 1.5829924,7.2958544 2.3349924,6.7018544 C 2.8859924,6.3698544 3.1989924,5.5678544 3.5399924,5.0748544 C 4.0339924,4.4688544 4.3219924,4.1778544 4.7089924,3.5508544 C 4.9959924,3.1198544 5.6829924,2.8038544 6.0489924,2.3888544 A 2.427,2.449 0 0 1 7.7029924,1.5838544 A 6.745,6.807 0 0 1 10.002992,1.6168544 C 10.474992,1.8868544 10.939992,2.2308544 11.515992,2.1978544 A 3.241,3.27 0 0 1 13.143992,2.8908544 C 13.723992,3.1688544 13.753992,3.4718544 14.053992,4.0698544 C 14.419992,4.9298544 14.957992,5.0948544 15.040992,5.7468544 C 14.994992,6.4148544 15.328992,6.9508544 15.669992,7.5068544 C 16.043992,8.0168544 15.652992,8.8138544 15.833992,9.4288544 C 16.019992,10.092854 16.224992,10.806854 16.072992,11.499854 H 11.227992 C 11.120992,10.819854 11.761992,10.154854 11.852992,9.4658544 A 6.556,6.616 0 0 0 10.968992,5.1328544 C 10.811992,4.5598544 10.581992,3.8088544 9.8869924,3.9828544 C 9.2779924,3.8918544 8.9529924,3.2528544 8.0849924,4.0698544 C 7.3249924,4.3318544 6.5509924,5.9458544 6.1279924,6.4648544 C 5.7979924,6.9218544 5.8889924,8.1998544 5.6629924,9.2708544 C 5.5149924,9.9848544 6.5959924,10.856854 6.5589924,11.499854 Z" fill-rule="evenodd" id="path2" style="stroke:#ffffff;stroke-width:3;stroke-linecap:round;stroke-linejoin:round;stroke-dasharray:none;stroke-opacity:0.5;paint-order:stroke markers fill" />
</svg>
