<?xml version="1.0" encoding="UTF-8" standalone="no"?>
<svg width="16" height="17" version="1.1" id="svg2" sodipodi:docname="archaeological_site.svg" inkscape:version="1.4.2 (ebf0e940d0, 2025-05-08)" xmlns:inkscape="http://www.inkscape.org/namespaces/inkscape" xmlns:sodipodi="http://sodipodi.sourceforge.net/DTD/sodipodi-0.dtd" xmlns="http://www.w3.org/2000/svg" xmlns:svg="http://www.w3.org/2000/svg">
  <defs id="defs2" />
  <sodipodi:namedview id="namedview2" pagecolor="#ffffff" bordercolor="#666666" borderopacity="1.0" inkscape:showpageshadow="2" inkscape:pageopacity="0.0" inkscape:pagecheckerboard="true" inkscape:deskcolor="#d1d1d1" showgrid="true" inkscape:zoom="74.142857" inkscape:cx="7.9980732" inkscape:cy="8.4971098" inkscape:window-width="2154" inkscape:window-height="1206" inkscape:window-x="0" inkscape:window-y="0" inkscape:window-maximized="1" inkscape:current-layer="svg2">
    <inkscape:grid id="grid2" units="px" originx="0" originy="0" spacingx="1" spacingy="1" empcolor="#0000ff" empopacity="0.25098039" color="#0000ff" opacity="0.1254902" empspacing="5" enabled="true" visible="true" />
  </sodipodi:namedview>
  <path d="M 4,1.5 V 2.5 H 5 C 5.599,2.5 5.841,3.543 5.938,4.406 C 4.965,3.65 4.025,3.38 3.218,3.531 C 2.189,3.725 1.5,4.674 1.5,5.75 C 1.5,6.592 1.812,7.329 2.344,8.094 C 2.808,8.762 3.464,9.534 4.281,10.469 C 4.648,11.828 5.322,13.072 6,13.75 V 14.5 L 5,15 V 15.5 H 11 V 15 L 10,14.5 V 13.75 C 10.678,13.072 11.352,11.828 11.719,10.469 C 12.536,9.534 13.192,8.762 13.656,8.094 C 14.188,7.329 14.5,6.592 14.5,5.75 C 14.5,4.674 13.812,3.725 12.781,3.531 C 11.975,3.38 11.035,3.65 10.062,4.406 C 10.16,3.543 10.402,2.5 11,2.5 H 12 V 1.5 Z M 3.375,4.531 C 3.885,4.435 4.735,4.632 5.719,5.531 C 4.604,5.67 4,6.65 4,8.5 V 8.594 C 3.66,8.198 3.376,7.848 3.156,7.531 C 2.688,6.857 2.5,6.363 2.5,5.75 C 2.5,5.05 2.81,4.637 3.375,4.531 Z M 12.125,4.531 C 12.313,4.504 12.484,4.505 12.625,4.531 C 13.189,4.637 13.5,5.05 13.5,5.75 C 13.5,6.363 13.312,6.857 12.844,7.531 C 12.624,7.848 12.341,8.198 12,8.594 V 8.5 C 12,6.65 11.396,5.67 10.281,5.531 C 10.993,4.881 11.633,4.602 12.125,4.531 Z" id="path2" style="stroke:#ffffff;stroke-width:3;stroke-linecap:round;stroke-linejoin:round;stroke-dasharray:none;stroke-opacity:0.5;paint-order:stroke fill markers" />
</svg>
