<?xml version="1.0" encoding="UTF-8" standalone="no"?>
<svg width="17" height="16.784" version="1.1" id="svg2" sodipodi:docname="bird_hide.svg" inkscape:version="1.4.2 (ebf0e940d0, 2025-05-08)" xmlns:inkscape="http://www.inkscape.org/namespaces/inkscape" xmlns:sodipodi="http://sodipodi.sourceforge.net/DTD/sodipodi-0.dtd" xmlns="http://www.w3.org/2000/svg" xmlns:svg="http://www.w3.org/2000/svg">
  <defs id="defs2" />
  <sodipodi:namedview id="namedview2" pagecolor="#ffffff" bordercolor="#666666" borderopacity="1.0" inkscape:showpageshadow="2" inkscape:pageopacity="0.0" inkscape:pagecheckerboard="true" inkscape:deskcolor="#d1d1d1" showgrid="true" inkscape:zoom="37.071429" inkscape:cx="2.9942197" inkscape:cy="7.256262" inkscape:window-width="2154" inkscape:window-height="1206" inkscape:window-x="0" inkscape:window-y="0" inkscape:window-maximized="1" inkscape:current-layer="svg2">
    <inkscape:grid id="grid2" units="px" originx="0" originy="0" spacingx="1" spacingy="1" empcolor="#0000ff" empopacity="0.25098039" color="#0000ff" opacity="0.1254902" empspacing="5" enabled="true" visible="true" />
  </sodipodi:namedview>
  <path d="M 4.5709997,1.5 V 3.407 H 7.2309997 V 1.5 Z M 9.7809997,1.5 V 3.407 H 12.446 V 1.5 Z M 9.7809997,4.004 V 9.269 C 9.7809997,9.521 9.9839997,9.725 10.237,9.725 H 10.692 V 14.828 C 10.692,15.072 10.892,15.271 11.136,15.271 H 15.048 C 15.292,15.271 15.492,15.071 15.492,14.828 V 11.652 L 15.5,11.188 L 13.805,4.004 Z M 3.1989997,4.012 L 1.4999997,11.196 L 1.5079997,11.665 V 14.84 C 1.5079997,15.084 1.7079997,15.284 1.9519997,15.284 H 5.8639997 C 6.1119997,15.284 6.3119997,15.084 6.3119997,14.84 V 9.742 H 6.7639997 A 0.459,0.459 0 0 0 7.2189997,9.282 V 4.012 Z M 7.8079997,4.012 V 8.908 H 9.1879997 V 4.012 Z" id="path2" style="stroke:#ffffff;stroke-width:3;stroke-linecap:round;stroke-linejoin:round;stroke-dasharray:none;stroke-opacity:0.5;paint-order:stroke fill markers" />
</svg>
