<?xml version="1.0" encoding="UTF-8" standalone="no"?>
<svg height="16.076" width="13.672" version="1.0" id="svg2" sodipodi:docname="bus_station.svg" inkscape:version="1.4.2 (ebf0e940d0, 2025-05-08)" xmlns:inkscape="http://www.inkscape.org/namespaces/inkscape" xmlns:sodipodi="http://sodipodi.sourceforge.net/DTD/sodipodi-0.dtd" xmlns="http://www.w3.org/2000/svg" xmlns:svg="http://www.w3.org/2000/svg">
  <defs id="defs2" />
  <sodipodi:namedview id="namedview2" pagecolor="#ffffff" bordercolor="#666666" borderopacity="1.0" inkscape:showpageshadow="2" inkscape:pageopacity="0.0" inkscape:pagecheckerboard="true" inkscape:deskcolor="#d1d1d1" showgrid="true" inkscape:zoom="36.87127" inkscape:cx="1.8984971" inkscape:cy="9.3026358" inkscape:window-width="2154" inkscape:window-height="1206" inkscape:window-x="0" inkscape:window-y="0" inkscape:window-maximized="1" inkscape:current-layer="svg2">
    <inkscape:grid id="grid2" units="px" originx="0" originy="0" spacingx="1" spacingy="1" empcolor="#0000ff" empopacity="0.25098039" color="#0000ff" opacity="0.1254902" empspacing="5" enabled="true" visible="true" />
  </sodipodi:namedview>
  <path d="M 6.836,1.5 C 5.631,1.51 3.996,1.85 3.315,2.135 C 2.623,2.423 2.164,2.709 2.02,3.43 L 1.5,7.424 V 12.926 H 2.395 V 13.787 C 2.395,14.839 3.932,14.839 3.932,13.787 V 12.926 H 9.738 V 13.787 C 9.738,14.839 11.278,14.839 11.278,13.787 V 12.926 H 12.172 V 7.424 L 11.652,3.43 C 11.508,2.71 11.049,2.423 10.357,2.135 C 9.676,1.851 8.041,1.508 6.836,1.5 Z M 4.641,2.508 H 9.031 C 9.463,2.508 9.463,3.156 9.031,3.156 H 4.641 C 4.209,3.156 4.209,2.508 4.641,2.508 Z M 3.475,3.81 H 10.195 C 10.652,3.81 10.773,4.045 10.828,4.396 L 11.231,7.293 C 11.268,7.57 11.188,7.843 10.805,7.843 H 2.866 C 2.483,7.843 2.403,7.57 2.44,7.293 L 2.843,4.396 C 2.898,4.045 3.017,3.81 3.473,3.81 Z M 3.165,9.725 A 0.738,0.738 0 1 1 3.165,11.201 A 0.738,0.738 0 0 1 3.165,9.725 Z M 10.508,9.725 A 0.738,0.738 0 1 1 10.508,11.201 A 0.738,0.738 0 0 1 10.508,9.725 Z" id="path2" style="stroke:#ffffff;stroke-width:3;stroke-linecap:round;stroke-linejoin:round;stroke-dasharray:none;stroke-opacity:0.5;paint-order:stroke fill markers" />
</svg>
