<?xml version="1.0" encoding="UTF-8" standalone="no"?>
<svg width="17" height="15" version="1.1" id="svg2" sodipodi:docname="cafe.svg" inkscape:version="1.4.2 (ebf0e940d0, 2025-05-08)" xmlns:inkscape="http://www.inkscape.org/namespaces/inkscape" xmlns:sodipodi="http://sodipodi.sourceforge.net/DTD/sodipodi-0.dtd" xmlns="http://www.w3.org/2000/svg" xmlns:svg="http://www.w3.org/2000/svg">
  <defs id="defs2" />
  <sodipodi:namedview id="namedview2" pagecolor="#ffffff" bordercolor="#666666" borderopacity="1.0" inkscape:showpageshadow="2" inkscape:pageopacity="0.0" inkscape:pagecheckerboard="0" inkscape:deskcolor="#d1d1d1" inkscape:zoom="18.607143" inkscape:cx="-3.6007678" inkscape:cy="9.3512476" inkscape:window-width="2154" inkscape:window-height="1206" inkscape:window-x="0" inkscape:window-y="0" inkscape:window-maximized="1" inkscape:current-layer="svg2" />
  <path d="M 2.5,1.5 V 7.5 C 2.5,9.5 4.5,10.5 7,10.5 C 9.5,10.5 11.5,9.5 11.5,7.5 H 13.5 C 14.5,7.5 15.5,6.5 15.5,5.5 V 4.5 C 15.5,3.5 14.5,2.5 13.5,2.5 H 11.5 V 1.5 Z M 11.5,3.75 H 13.25 C 13.918,3.75 14.25,4.313 14.25,5 C 14.25,5.687 13.862,6.25 13.25,6.25 H 11.5 Z M 1.5,11.5 C 1.5,12.5 2.5,13.5 3.5,13.5 H 10.5 C 11.5,13.5 12.5,12.5 12.5,11.5 Z" id="path2" style="fill:#000000;fill-opacity:1;stroke:#ffffff;stroke-width:3;stroke-linecap:round;stroke-linejoin:round;stroke-dasharray:none;stroke-opacity:0.5;paint-order:stroke fill markers" />
</svg>
