<?xml version="1.0" encoding="UTF-8" standalone="no"?>
<svg width="16.988464" height="15.533949" version="1.1" id="svg3" sodipodi:docname="chalet.svg" inkscape:version="1.4.2 (ebf0e940d0, 2025-05-08)" xmlns:inkscape="http://www.inkscape.org/namespaces/inkscape" xmlns:sodipodi="http://sodipodi.sourceforge.net/DTD/sodipodi-0.dtd" xmlns="http://www.w3.org/2000/svg" xmlns:svg="http://www.w3.org/2000/svg">
  <defs id="defs3" />
  <sodipodi:namedview id="namedview3" pagecolor="#ffffff" bordercolor="#666666" borderopacity="1.0" inkscape:showpageshadow="2" inkscape:pageopacity="0.0" inkscape:pagecheckerboard="true" inkscape:deskcolor="#d1d1d1" showgrid="true" inkscape:zoom="37.071429" inkscape:cx="3.7225434" inkscape:cy="6.3930636" inkscape:window-width="2154" inkscape:window-height="1206" inkscape:window-x="0" inkscape:window-y="0" inkscape:window-maximized="1" inkscape:current-layer="svg3">
    <inkscape:grid id="grid5" units="px" originx="0" originy="0" spacingx="1" spacingy="1" empcolor="#0000ff" empopacity="0.25098039" color="#0000ff" opacity="0.1254902" empspacing="5" enabled="true" visible="true" />
  </sodipodi:namedview>
  <path id="path5" d="M 5.7417624,1.4999472 L 1.4997624,5.3599472 H 1.9897624 V 11.988947 H 4.5857624 V 8.2739472 H 6.8977624 V 11.013947 L 4.6457624,13.601947 A 0.25,0.25 0 0 0 4.8337624,14.015947 L 15.247762,14.033947 A 0.25,0.25 0 0 0 15.479762,13.687947 L 12.104762,5.5799472 A 0.25,0.25 0 0 0 11.684762,5.5119472 L 9.4947624,8.0299472 V 5.3599472 H 9.9847624 Z M 11.796762,6.1449472 L 14.872762,13.533947 L 5.3827624,13.515947 L 6.8977624,11.773947 V 11.988947 H 9.4937624 V 8.7909472 Z M 11.796762,6.1449472 L 9.4937624,8.7909472 V 11.988947 H 6.8977624 V 11.773947 L 5.3827624,13.515947 L 14.872762,13.533947 Z" style="stroke:#ffffff;stroke-width:3;stroke-linecap:round;stroke-linejoin:round;stroke-dasharray:none;stroke-opacity:0.5;paint-order:stroke fill markers" />
  <path d="M 11.796762,6.1449472 L 9.4937624,8.7909472 V 11.988947 H 6.8977624 V 11.773947 L 5.3827624,13.515947 L 14.872762,13.533947 Z" fill="#808080" fill-opacity="0.991" id="path2" />
  <path d="M 5.7417624,1.4999472 L 1.4997624,5.3599472 H 1.9897624 V 11.988947 H 4.5857624 V 8.2739472 H 6.8977624 V 11.013947 L 4.6457624,13.601947 A 0.25,0.25 0 0 0 4.8337624,14.015947 L 15.247762,14.033947 A 0.25,0.25 0 0 0 15.479762,13.687947 L 12.104762,5.5799472 A 0.25,0.25 0 0 0 11.684762,5.5119472 L 9.4947624,8.0299472 V 5.3599472 H 9.9847624 Z M 11.796762,6.1449472 L 14.872762,13.533947 L 5.3827624,13.515947 L 6.8977624,11.773947 V 11.988947 H 9.4937624 V 8.7909472 Z" id="path3" />
</svg>
