<svg version="1.0" width="17" height="17"
  xmlns="http://www.w3.org/2000/svg" xmlns:svg="http://www.w3.org/2000/svg">

  <path
    d="M 8.3261719,1.5035276 L 8.3242188,1.5054808 C 8.1708355,1.5271387 8.0389046,1.619595 7.9707031,1.7535276 L 6.9492188,4.1988402 H 1.8125 C 1.6395032,4.198953 1.5001174,4.3331932 1.5,4.4996214 V 12.552355 C 1.5001176,12.718783 1.6395033,12.853024 1.8125,12.853137 H 3.3320312 L 2.484375,14.878527 C 2.3885692,15.1104 2.5072064,15.373807 2.7480469,15.466418 C 2.988506,15.558803 3.2603539,15.447346 3.3574219,15.216418 L 4.34375,12.853137 H 12.5625 L 13.548828,15.216418 C 13.645894,15.448418 13.92108,15.560103 14.162109,15.466418 C 14.402152,15.373036 14.517906,15.109856 14.421875,14.878527 L 13.576172,12.853137 H 15.1875 C 15.360497,12.853024 15.499882,12.718783 15.5,12.552355 V 4.4996214 C 15.499882,4.3331933 15.360497,4.1989533 15.1875,4.1988402 H 9.9589844 L 8.9375,1.7535276 C 8.8692985,1.619595 8.7373677,1.5271387 8.5839844,1.5054808 C 8.5826313,1.504822 8.5814378,1.5041738 8.5800781,1.5035276 C 8.5381295,1.4987263 8.4968439,1.4993805 8.4550781,1.5054808 C 8.4126449,1.4992025 8.3687908,1.4985482 8.3261719,1.5035276 Z M 8.4550781,3.0171995 L 8.9472656,4.1988402 H 7.9609375 Z M 2.7382812,6.6304808 H 3.8300781 C 4.011976,6.961326 4.1954393,7.2935654 4.3769531,7.6246214 C 4.585767,7.2936794 4.7949079,6.9613076 5.0039062,6.6304808 H 6.1015625 C 5.7269646,7.2084231 5.3530643,7.7868819 4.9785156,8.3648558 C 5.3837748,9.0105633 5.7874484,9.6570558 6.1933594,10.302356 H 5.109375 C 4.8716556,9.913603 4.6269824,9.5298641 4.390625,9.1402464 C 4.1592744,9.5285195 3.9284265,9.9151389 3.6953125,10.302356 H 2.640625 C 3.0207203,9.6673229 3.4021857,9.0336988 3.78125,8.3980589 C 3.5196666,7.9526472 3.2550301,7.5084583 2.9921875,7.0640745 Z M 10.927734,6.6304808 H 11.935547 C 12.177137,7.3451036 12.415734,8.060686 12.658203,8.775012 C 12.885291,8.0603082 13.113187,7.3453237 13.339844,6.6304808 H 14.359375 L 13.306641,9.5582152 C 13.092791,9.9950844 13.060611,10.491988 12.876953,10.939074 C 12.646101,11.549845 11.901487,11.860388 11.287109,11.651965 C 11.235513,11.443053 11.239551,11.184116 11.208984,10.956653 C 11.127286,10.73467 11.292548,10.814481 11.431641,10.837512 C 11.738277,10.911689 12.186107,10.799147 12.232422,10.437121 C 11.890775,9.2298089 11.410535,8.0584269 11.007813,6.8668089 Z M 8.0664062,6.7671995 H 8.9667969 V 7.9957152 H 10.195313 V 8.8863402 H 8.9667969 V 10.130481 H 8.0664062 V 8.8863402 H 6.8378906 V 7.9957152 H 7.484375 C 7.6609539,7.9557908 8.001668,8.0791207 8.0664062,7.9273558 Z" />
</svg>
