<?xml version="1.0" encoding="UTF-8" standalone="no"?>
<svg width="16.173199" height="17.006607" version="1.1" id="svg2" sodipodi:docname="confectionery.svg" inkscape:version="1.4.2 (ebf0e940d0, 2025-05-08)" xmlns:inkscape="http://www.inkscape.org/namespaces/inkscape" xmlns:sodipodi="http://sodipodi.sourceforge.net/DTD/sodipodi-0.dtd" xmlns="http://www.w3.org/2000/svg" xmlns:svg="http://www.w3.org/2000/svg">
  <defs id="defs2" />
  <sodipodi:namedview id="namedview2" pagecolor="#ffffff" bordercolor="#666666" borderopacity="1.0" inkscape:showpageshadow="2" inkscape:pageopacity="0.0" inkscape:pagecheckerboard="true" inkscape:deskcolor="#d1d1d1" showgrid="true" inkscape:zoom="74.142857" inkscape:cx="8.0924855" inkscape:cy="8.5105973" inkscape:window-width="2154" inkscape:window-height="1206" inkscape:window-x="0" inkscape:window-y="0" inkscape:window-maximized="1" inkscape:current-layer="svg2">
    <inkscape:grid id="grid2" units="px" originx="0" originy="0" spacingx="1" spacingy="1" empcolor="#0000ff" empopacity="0.25098039" color="#0000ff" opacity="0.1254902" empspacing="5" enabled="true" visible="true" />
  </sodipodi:namedview>
  <path d="M 1.5001996,8.5061979 C 1.4871996,7.5061979 3.0991996,5.5061979 5.0991996,5.5061979 C 6.0991996,5.5381979 7.0991996,7.0931979 8.0991996,7.0461979 C 9.0991996,7.1611979 10.0992,5.5001979 11.0992,5.5061979 C 13.0992,5.5061979 14.6702,7.5061979 14.6732,8.5061979 H 13.6302 C 13.0992,7.5061979 12.0992,6.9931979 11.0992,6.9521979 C 10.0992,7.0581979 9.0991996,8.5121979 8.0991996,8.5061979 C 7.0991996,8.5331979 6.0991996,7.1151979 5.0991996,7.0461979 C 4.0991996,7.0171979 3.0991996,7.5061979 2.6791996,8.5061979 H 1.4991996 Z M 10.0992,3.5061979 A 2,2 0 1 1 10.0392,3.0191979 M 4.0991996,14.506198 L 2.0991996,9.5061979 C 2.8191996,9.6501979 3.4861996,10.403198 4.0991996,10.506198 C 4.5041996,10.574198 5.7281996,9.4701979 6.0991996,9.5061979 C 7.0351996,9.5961979 7.3751996,10.423198 8.0991996,10.506198 C 8.8571996,10.593198 9.1691996,9.6991979 10.0992,9.5061979 C 10.5492,9.4131979 11.4772,10.453198 12.0992,10.506198 C 12.8672,10.572198 13.3512,9.6561979 14.0992,9.5061979 L 12.0992,14.506198 C 11.0992,15.506198 10.0992,15.506198 8.0991996,15.506198 C 6.0991996,15.506198 5.0991996,15.506198 4.0991996,14.506198 Z" id="path2" style="stroke:#ffffff;stroke-width:3;stroke-linecap:round;stroke-linejoin:round;stroke-dasharray:none;stroke-opacity:0.5;paint-order:stroke fill markers" />
</svg>
