<svg height="13.310214" width="15.999903" version="1.1"
  xmlns="http://www.w3.org/2000/svg" xmlns:svg="http://www.w3.org/2000/svg">


  <path
    d="M 9.8799512,1.5012144 A 0.474,0.474 0 0 0 9.3999512,1.8102144 L 7.4219512,4.8102144 H 1.4999512 L 3.4999512,11.810214 H 12.499951 L 14.499951,4.8102144 H 8.6269512 L 10.329951,2.2102144 C 10.496951,1.8232144 10.194951,1.5222144 9.8799512,1.5012144 Z M 2.7499512,5.8102144 H 4.4999512 V 6.8102144 H 3.0499512 Z M 4.9999512,5.8102144 H 6.4999512 V 6.8102144 H 4.9999512 Z M 6.9999512,5.8102144 H 8.9999512 V 6.8102144 H 6.9999512 Z M 9.4999512,5.8102144 H 10.999951 V 6.8102144 H 9.4999512 Z M 11.499951,5.8102144 H 13.249951 L 12.949951,6.8102144 H 11.499951 Z M 3.1999512,7.3102144 H 4.4999512 V 8.8102144 H 3.6499512 Z M 4.9999512,7.3102144 H 6.4999512 V 8.8102144 H 4.9999512 Z M 6.9999512,7.3102144 H 8.9999512 V 8.8102144 H 6.9999512 Z M 9.4999512,7.3102144 H 10.999951 V 8.8102144 H 9.4999512 Z M 11.499951,7.3102144 H 12.799951 L 12.349951,8.8102144 H 11.499951 Z M 3.7999512,9.3102144 H 4.4999512 V 10.810214 H 4.2499512 Z M 4.9999512,9.3102144 H 6.4999512 V 10.810214 H 4.9999512 Z M 6.9999512,9.3102144 H 8.9999512 V 10.810214 H 6.9999512 Z M 9.4999512,9.3102144 H 10.999951 V 10.810214 H 9.4999512 Z M 11.499951,9.3102144 H 12.199951 L 11.749951,10.810214 H 11.499951 Z"
  />
</svg>
