<svg version="1.0" width="15.18667" height="14.034822"
  xmlns="http://www.w3.org/2000/svg" xmlns:svg="http://www.w3.org/2000/svg">

  <path
    d="M 9.3497652,12.524847 A 0.24,0.24 0 0 0 9.4997652,12.484847 C 10.329765,11.904847 11.189765,11.344847 11.939765,10.604847 C 12.639765,9.8848477 13.099765,9.0048477 13.649765,8.2548477 A 0.24,0.24 0 0 0 13.599765,7.9248477 L 12.349765,7.0048477 A 0.24,0.24 0 0 0 12.019765,7.0648477 L 10.759765,8.8748477 L 8.2997652,6.3948477 L 10.949765,3.5448478 L 12.049765,2.3848478 A 0.24,0.24 0 0 0 12.029765,2.0548478 L 11.469765,1.5448478 C 11.369765,1.4448478 11.219765,1.4648478 11.129765,1.5548478 L 7.5297652,5.6148477 L 3.5897649,1.6648478 A 0.24,0.24 0 0 0 3.2597649,1.6648478 L 2.7197649,2.2048478 A 0.24,0.24 0 0 0 2.7197649,2.5448478 A 8832.6,8832.6 0 0 1 6.7897652,6.4448477 L 4.5597649,8.9248477 L 3.8097649,8.2548477 L 1.8097649,7.2048477 C 1.5697649,7.0748477 1.3497649,7.3848477 1.5397649,7.5748477 L 1.5697649,7.6448477 A 7.16,7.16 0 0 1 1.6997649,7.9048477 L 2.0497649,8.6848477 A 44.14,44.14 0 0 0 2.4197649,9.4848477 A 6.98,6.98 0 0 0 2.5597649,9.7848477 A 1.67,1.67 0 0 0 2.6197649,9.8848477 L 2.6997649,9.9848477 A 74.78,74.78 0 0 1 3.2497649,10.484847 L 3.0097649,10.714847 A 0.24,0.24 0 0 0 3.0297649,11.064847 L 3.3497649,11.334847 A 0.24,0.24 0 0 0 3.6697649,11.334847 L 3.9197649,11.084847 A 27.98,27.98 0 0 1 5.2897652,12.414847 A 0.24,0.24 0 0 0 5.6197652,12.434847 L 6.8397652,11.364847 A 0.24,0.24 0 0 0 6.8397652,11.014847 L 5.3597652,9.5448477 L 7.5597652,7.1748477 L 10.079765,9.5748477 L 8.2897652,10.874847 A 0.24,0.24 0 0 0 8.2397652,11.204847 L 9.1797652,12.434847 A 0.24,0.24 0 0 0 9.3597652,12.534847 Z"
  />
</svg>
