<?xml version="1.0" encoding="UTF-8" standalone="no"?>
<svg width="14.999" height="16.999714" viewBox="0 0 14.998999 16.999714" version="1.1" id="svg1" sodipodi:docname="generator_wind.svg" inkscape:version="1.4.2 (ebf0e940d0, 2025-05-08)" xmlns:inkscape="http://www.inkscape.org/namespaces/inkscape" xmlns:sodipodi="http://sodipodi.sourceforge.net/DTD/sodipodi-0.dtd" xmlns="http://www.w3.org/2000/svg" xmlns:svg="http://www.w3.org/2000/svg">
  <defs id="defs1" />
  <sodipodi:namedview id="namedview1" pagecolor="#ffffff" bordercolor="#666666" borderopacity="1.0" inkscape:showpageshadow="2" inkscape:pageopacity="0.0" inkscape:pagecheckerboard="true" inkscape:deskcolor="#d1d1d1" showgrid="false" inkscape:zoom="26.213459" inkscape:cx="5.7222514" inkscape:cy="11.673393" inkscape:window-width="2154" inkscape:window-height="1206" inkscape:window-x="0" inkscape:window-y="0" inkscape:window-maximized="1" inkscape:current-layer="svg1" />
  <path d="M 13.499537,1.499713 C 11.077142,2.95315 10.233961,3.5059716 9.06399,4.5817442 A 2,2 0 0 1 10.417506,5.9352599 C 11.499793,4.7604583 12.035625,3.9395678 13.499537,1.499713 Z M 5.2182869,5.1540099 C 4.2969597,5.1761805 3.2599709,5.2897409 1.4995369,5.499713 C 4.1011714,6.5125203 5.0607125,6.8443585 6.5971931,7.109088 A 2,2 0 0 1 6.4995369,6.499713 A 2,2 0 0 1 6.9585213,5.2262755 C 6.3428081,5.1724493 5.7818531,5.1404484 5.2182869,5.1540099 Z M 8.4995369,5.499713 A 1,1 0 0 0 7.4995369,6.499713 A 1,1 0 0 0 8.4995369,7.499713 A 1,1 0 0 0 9.4995369,6.499713 A 1,1 0 0 0 8.4995369,5.499713 Z M 10.419459,7.0583068 A 2,2 0 0 1 8.4995369,8.499713 A 2,2 0 0 1 7.7866463,8.3649474 L 7.3276619,14.499713 H 5.4995369 V 15.499713 H 11.499537 V 14.499713 H 9.4995369 L 9.1675057,8.5094786 C 10.3051,9.5512391 11.092835,10.052512 13.499537,11.499713 C 12.037092,9.0569305 11.502221,8.2354426 10.419459,7.0583068 Z" id="path1" style="stroke:#ffffff;stroke-width:3;stroke-linecap:round;stroke-linejoin:round;stroke-dasharray:none;stroke-opacity:0.5;paint-order:stroke markers fill" />
</svg>
