<?xml version="1.0" encoding="UTF-8" standalone="no"?>
<svg version="1.0" width="32" height="32" id="svg2" sodipodi:docname="glacier_template.svg"
  inkscape:version="1.4.2 (ebf0e940d0, 2025-05-08)"
  xmlns:inkscape="http://www.inkscape.org/namespaces/inkscape"
  xmlns:sodipodi="http://sodipodi.sourceforge.net/DTD/sodipodi-0.dtd"
  xmlns="http://www.w3.org/2000/svg" xmlns:svg="http://www.w3.org/2000/svg">
  <sodipodi:namedview id="namedview22188" pagecolor="#d2edf4" bordercolor="#666666"
    borderopacity="1.0" inkscape:showpageshadow="2" inkscape:pageopacity="0.0"
    inkscape:pagecheckerboard="true" inkscape:deskcolor="#d1d1d1" showgrid="true"
    inkscape:zoom="41.7193" inkscape:cx="11.026072" inkscape:cy="9.1084941"
    inkscape:window-width="2154" inkscape:window-height="1206" inkscape:window-x="0"
    inkscape:window-y="0" inkscape:window-maximized="1" inkscape:current-layer="svg2">
    <inkscape:grid id="grid1" units="px" originx="0" originy="0" spacingx="1" spacingy="1"
      empcolor="#0000ff" empopacity="0.25098039" color="#0000ff" opacity="0.1254902" empspacing="5"
      enabled="true" visible="true" />
  </sodipodi:namedview>
  <defs id="defs4">
    <style type="text/css" id="style6" />
  </defs>
  <path
    d="M 3,0.29296875 L 0.29296875,3 L 1,3.7070313 L 3,1.7070312 L 5,3.7070313 L 7.7070312,1 L 7,0.29296875 L 5,2.2929688 Z" />
  <path
    d="M 3.000031,0.293 L 0.293,3.000031 L 1.000031,3.707062 L 3.000031,1.707062 L 5.000031,3.707062 L 7.000031,1.707062 L 9.000031,3.707062 L 11.707062,1.000031 L 11.000031,0.293 L 9.000031,2.293 L 7.000031,0.293 L 5.000031,2.293 Z" />
  <path
    d="M 1,0.293 L 0.29296875,1.000031 L 3,3.707062 L 5,1.707062 L 7,3.707062 L 7.7070312,3.000031 L 5,0.293 L 3,2.293 Z" />
  <path
    d="M 7.000031,0.293 L 5.000031,2.2929999 L 3.001984,0.2949531 C 2.099254,1.1910538 0.293,2.9824531 0.293,2.9824531 L 0.998078,3.6933906 L 2.998078,1.7051093 L 5.000031,3.7070624 L 7.000031,1.7070624 L 9.0000315,3.7070624 L 9.7070625,3.0000312 Z" />
  <path
    d="M 7.000031,3.7070624 L 5.000031,1.7070625 L 3.001984,3.7051093 L 0.293,1.0176093 L 0.998078,0.3066718 L 2.998078,2.2949531 L 5.000031,0.293 L 7.000031,2.293 L 9.0000315,0.293 L 9.7070625,1.0000312 Z" />
  <path
    d="M 3.000031,3.707062 L 0.293,1.000031 L 1.000031,0.293 L 3.000031,2.293 L 5.000031,0.293 L 7.000031,2.293 L 9.000031,0.293 L 11.707062,3.000031 L 11.000031,3.707062 L 9.000031,1.707062 L 7.000031,3.707062 L 5.000031,1.707062 Z" />
  <path
    d="M 3,0.29296875 L 0.29296875,3 L 1,3.7070313 L 3,1.7070312 L 5,3.7070313 L 7,1.7070312 L 9,3.7070313 L 11,1.7070312 L 13,3.7070313 L 13.707031,3 L 11,0.29296875 L 9,2.2929688 L 7,0.29296875 L 5,2.2929688 Z" />
  <path
    d="M 1,0.29296875 L 0.29296875,1 L 3,3.7070313 L 5,1.7070312 L 7,3.7070313 L 9,1.7070312 L 11,3.7070313 L 13.707031,1 L 13,0.29296875 L 11,2.2929688 L 9,0.29296875 L 7,2.2929688 L 5,0.29296875 L 3,2.2929688 Z" />
</svg>
