<svg width="19.463856" height="20.500031" version="1.1"
  xmlns="http://www.w3.org/2000/svg" xmlns:svg="http://www.w3.org/2000/svg">

  <path
    d="M 9.988,1.499944 L 9.288,2.516944 C 9.115,2.756944 9.157,2.960944 9.41,3.133944 C 9.65,3.279944 9.854,3.239944 10.027,3.013944 L 10.427,2.416944 L 16.655,6.503944 L 11.565,7.419944 A 0.733,0.733 0 0 0 11.115,7.709944 A 0.518,0.518 0 0 0 11.027,8.195944 L 12.124,12.481944 L 8.529,17.843944 A 0.762,0.762 0 0 0 8.429,18.221944 C 8.429,18.434944 8.507,18.618944 8.659,18.771944 A 0.75,0.75 0 0 0 9.209,18.999944 C 9.489,18.999944 9.715,18.867944 9.888,18.602944 L 13.641,12.959944 L 13.841,13.737944 L 13.283,17.963944 A 0.775,0.775 0 0 0 13.922,18.841944 C 14.135,18.881944 14.332,18.836944 14.511,18.711944 A 0.704,0.704 0 0 0 14.819,18.201944 L 15.399,13.876944 A 1.376,1.376 0 0 0 15.358,13.418944 L 14.08,8.336944 L 17.417,7.736944 A 0.605,0.605 0 0 0 17.837,7.469944 A 0.655,0.655 0 0 0 17.956,6.980944 A 0.755,0.755 0 0 0 17.656,6.541944 Z M 1.5,1.899944 V 18.647944 H 2.625 V 6.649944 L 8.182,4.394944 L 2.625,2.329944 V 1.899944 Z M 11.324,4.447944 C 10.964,4.447944 10.66,4.570944 10.407,4.817944 A 1.22,1.22 0 0 0 10.027,5.725944 C 10.027,6.083944 10.154,6.385944 10.407,6.630944 C 10.66,6.876944 10.965,7.000944 11.324,7.000944 C 11.684,7.000944 11.995,6.876944 12.254,6.630944 C 12.514,6.384944 12.644,6.083944 12.644,5.725944 C 12.644,5.365944 12.514,5.062944 12.254,4.816944 A 1.309,1.309 0 0 0 11.324,4.446944 Z"
  />
</svg>
