<svg width="37" height="32" version="1.1"
  xmlns="http://www.w3.org/2000/svg" xmlns:svg="http://www.w3.org/2000/svg">

  <path
    d="M 7.011,4.74 A 1.68,1.68 0 0 0 5.688,5.383 A 1.688,1.688 0 0 0 4.702,4.773 A 2.339,2.339 0 0 0 2.391,2.766 A 0.362,0.362 0 0 0 2.391,3.49 C 3.171,3.49 3.823,4.048 3.971,4.786 C 3.597,4.876 3.271,5.09 3.041,5.383 A 1.683,1.683 0 0 0 0.031,6.425 C 0.031,7.271 0.658,7.974 1.471,8.093 A 1.688,1.688 0 0 0 2.788,10.376 A 1.688,1.688 0 0 0 4.35,12.694 A 1.688,1.688 0 0 0 5.914,10.379 A 1.688,1.688 0 0 0 7.256,8.093 A 1.688,1.688 0 0 0 8.697,6.425 C 8.697,5.495 7.941,4.739 7.011,4.739 Z M 4.364,5.464 A 0.96,0.96 0 0 1 4.92,7.209 A 1.696,1.696 0 0 0 4.77,7.296 A 0.956,0.956 0 0 1 3.959,7.296 A 1.708,1.708 0 0 0 3.809,7.209 A 0.96,0.96 0 0 1 4.364,5.464 Z M 0.755,6.425 A 0.963,0.963 0 0 1 2.678,6.425 A 0.96,0.96 0 0 1 2.272,7.209 A 1.696,1.696 0 0 0 2.122,7.296 A 0.963,0.963 0 0 1 0.755,6.426 Z M 2.079,8.709 C 2.079,8.385 2.239,8.099 2.485,7.925 A 2.02,2.02 0 0 0 2.635,7.838 A 0.954,0.954 0 0 1 3.445,7.838 C 3.494,7.869 3.544,7.898 3.595,7.925 A 0.96,0.96 0 1 1 2.079,8.709 Z M 4.351,11.969 A 0.963,0.963 0 0 1 4.351,10.046 A 0.963,0.963 0 0 1 4.351,11.969 Z M 5.688,9.67 A 0.96,0.96 0 0 1 5.132,7.925 C 5.184,7.898 5.234,7.869 5.282,7.838 A 0.955,0.955 0 0 1 6.092,7.838 C 6.142,7.869 6.192,7.898 6.243,7.925 A 0.96,0.96 0 0 1 5.688,9.67 Z M 7.011,7.387 A 0.954,0.954 0 0 1 6.606,7.296 A 1.685,1.685 0 0 0 6.456,7.209 A 0.96,0.96 0 0 1 7.011,5.464 A 0.963,0.963 0 0 1 7.011,7.387 Z M 24.937,4.74 A 1.68,1.68 0 0 0 23.614,5.383 A 1.688,1.688 0 0 0 22.629,4.773 A 2.339,2.339 0 0 0 20.317,2.766 A 0.362,0.362 0 0 0 20.317,3.49 C 21.097,3.49 21.75,4.048 21.897,4.786 C 21.523,4.876 21.197,5.09 20.967,5.383 A 1.683,1.683 0 0 0 17.957,6.425 C 17.957,7.271 18.584,7.974 19.397,8.093 A 1.688,1.688 0 0 0 20.714,10.376 A 1.688,1.688 0 0 0 22.276,12.694 A 1.688,1.688 0 0 0 23.841,10.379 A 1.688,1.688 0 0 0 25.183,8.093 A 1.688,1.688 0 0 0 26.623,6.425 C 26.623,5.495 25.867,4.739 24.937,4.739 Z M 22.29,5.464 A 0.96,0.96 0 0 1 22.846,7.209 A 1.696,1.696 0 0 0 22.696,7.296 A 0.956,0.956 0 0 1 21.885,7.296 A 1.708,1.708 0 0 0 21.735,7.209 A 0.96,0.96 0 0 1 22.29,5.464 Z M 18.681,6.425 A 0.963,0.963 0 0 1 20.604,6.425 A 0.96,0.96 0 0 1 20.198,7.209 A 1.696,1.696 0 0 0 20.048,7.296 A 0.963,0.963 0 0 1 18.681,6.426 Z M 20.005,8.709 C 20.005,8.385 20.165,8.099 20.411,7.925 C 20.463,7.898 20.513,7.869 20.561,7.838 A 0.954,0.954 0 0 1 21.371,7.838 C 21.42,7.869 21.47,7.898 21.521,7.925 A 0.96,0.96 0 1 1 20.005,8.709 Z M 22.277,11.969 A 0.963,0.963 0 0 1 22.277,10.046 A 0.963,0.963 0 0 1 22.277,11.969 Z M 23.614,9.67 A 0.96,0.96 0 0 1 23.058,7.925 C 23.11,7.898 23.16,7.869 23.208,7.838 A 0.955,0.955 0 0 1 24.018,7.838 C 24.068,7.869 24.118,7.898 24.169,7.925 A 0.96,0.96 0 0 1 23.614,9.67 Z M 24.937,7.387 A 0.954,0.954 0 0 1 24.532,7.296 A 1.685,1.685 0 0 0 24.382,7.209 A 0.96,0.96 0 0 1 24.937,5.464 A 0.963,0.963 0 0 1 24.937,7.387 Z M 15.822,19.952 C 15.286,19.952 14.808,20.204 14.499,20.596 A 1.688,1.688 0 0 0 13.513,19.986 A 2.339,2.339 0 0 0 11.202,17.979 A 0.362,0.362 0 0 0 11.202,18.703 C 11.982,18.703 12.634,19.261 12.782,19.999 C 12.408,20.089 12.082,20.303 11.852,20.596 A 1.683,1.683 0 0 0 8.842,21.638 C 8.842,22.484 9.469,23.187 10.282,23.306 A 1.688,1.688 0 0 0 11.599,25.589 A 1.688,1.688 0 0 0 13.161,27.907 A 1.688,1.688 0 0 0 14.725,25.592 A 1.688,1.688 0 0 0 16.067,23.306 A 1.688,1.688 0 0 0 17.508,21.638 C 17.508,20.708 16.752,19.952 15.822,19.952 Z M 13.175,20.677 A 0.96,0.96 0 0 1 13.731,22.422 A 1.696,1.696 0 0 0 13.581,22.509 A 0.956,0.956 0 0 1 12.77,22.509 A 1.708,1.708 0 0 0 12.62,22.422 A 0.96,0.96 0 0 1 13.175,20.677 Z M 9.565,21.638 A 0.963,0.963 0 0 1 11.489,21.638 A 0.96,0.96 0 0 1 11.083,22.422 A 1.696,1.696 0 0 0 10.933,22.509 A 0.963,0.963 0 0 1 9.566,21.639 Z M 10.889,23.922 C 10.889,23.598 11.05,23.312 11.296,23.138 A 2.02,2.02 0 0 0 11.446,23.051 A 0.954,0.954 0 0 1 12.256,23.051 C 12.305,23.082 12.355,23.111 12.406,23.138 A 0.96,0.96 0 1 1 10.889,23.922 Z M 13.162,27.182 A 0.963,0.963 0 0 1 13.162,25.259 A 0.963,0.963 0 0 1 13.162,27.182 Z M 14.499,24.883 A 0.96,0.96 0 0 1 13.943,23.138 C 13.995,23.111 14.045,23.082 14.093,23.051 A 0.955,0.955 0 0 1 14.903,23.051 C 14.953,23.082 15.003,23.111 15.054,23.138 A 0.96,0.96 0 0 1 14.499,24.883 Z M 15.822,22.6 A 0.954,0.954 0 0 1 15.417,22.509 A 1.685,1.685 0 0 0 15.267,22.422 A 0.96,0.96 0 0 1 15.822,20.677 A 0.963,0.963 0 0 1 15.822,22.6 Z M 34.569,19.952 C 34.032,19.952 33.554,20.204 33.245,20.596 A 1.688,1.688 0 0 0 32.26,19.986 A 2.339,2.339 0 0 0 29.948,17.979 A 0.362,0.362 0 0 0 29.948,18.703 C 30.728,18.703 31.381,19.261 31.528,19.999 C 31.154,20.089 30.828,20.303 30.598,20.596 A 1.683,1.683 0 0 0 27.588,21.638 C 27.588,22.484 28.215,23.187 29.028,23.306 A 1.688,1.688 0 0 0 30.345,25.589 A 1.688,1.688 0 0 0 31.907,27.907 A 1.688,1.688 0 0 0 33.472,25.592 A 1.688,1.688 0 0 0 34.814,23.306 A 1.688,1.688 0 0 0 36.254,21.638 C 36.254,20.708 35.498,19.952 34.569,19.952 Z M 31.921,20.677 A 0.96,0.96 0 0 1 32.477,22.422 A 1.696,1.696 0 0 0 32.327,22.509 A 0.956,0.956 0 0 1 31.517,22.509 A 1.708,1.708 0 0 0 31.366,22.422 A 0.96,0.96 0 0 1 31.921,20.677 Z M 28.313,21.638 A 0.963,0.963 0 0 1 30.236,21.638 A 0.96,0.96 0 0 1 29.829,22.422 A 1.696,1.696 0 0 0 29.679,22.509 A 0.963,0.963 0 0 1 28.312,21.639 Z M 29.636,23.922 A 0.96,0.96 0 0 1 30.042,23.138 C 30.094,23.111 30.144,23.082 30.192,23.051 A 0.954,0.954 0 0 1 31.002,23.051 C 31.052,23.082 31.102,23.111 31.153,23.138 A 0.96,0.96 0 1 1 29.636,23.922 Z M 31.908,27.182 A 0.963,0.963 0 0 1 31.908,25.259 A 0.963,0.963 0 0 1 31.908,27.182 Z M 33.245,24.883 A 0.96,0.96 0 0 1 32.689,23.138 C 32.741,23.111 32.792,23.082 32.84,23.051 A 0.955,0.955 0 0 1 33.65,23.051 C 33.699,23.082 33.749,23.111 33.8,23.138 A 0.96,0.96 0 0 1 33.245,24.883 Z M 34.569,22.6 A 0.954,0.954 0 0 1 34.164,22.509 A 1.685,1.685 0 0 0 34.014,22.422 A 0.96,0.96 0 0 1 34.569,20.677 A 0.963,0.963 0 0 1 34.569,22.6 Z"
    style="opacity:0.2" />
</svg>
