<svg width="15.5" height="16.115" version="1.1" xmlns="http://www.w3.org/2000/svg"
  xmlns:svg="http://www.w3.org/2000/svg">
  <path
    d="M 8.6811441,1.5 C 8.1074871,2.073657 7.6438573,2.8961795 7.5,3.6154661 C 7.4213803,4.0085646 7.38606,4.941032 7.375,5.3965911 C 7.5830531,5.5186757 7.7911853,5.6149801 8,5.7715911 C 8.2211442,5.605733 8.4360105,5.4925509 8.65625,5.3653411 C 8.6737853,4.9706393 8.6944029,4.1434517 8.75,3.8654661 C 8.8561427,3.3347527 9.1298011,2.801343 9.5561441,2.375 Z M 1.5,2.1154661 C 2.0359156,4.1154661 4.3537505,5.1154661 6.5,4.1154661 C 5.5967177,2.1154661 4,1.4775362 1.5,2.1154661 Z M 3,6.3654661 C 2.3855932,7.0095339 2,8.1154661 2,9.1154661 C 2,11.115466 4,14.615466 6,14.615466 C 6.5635593,14.615466 7,14.365466 8,13.865466 C 9,14.365466 9.4364407,14.615466 10,14.615466 C 12,14.615466 14,11.115466 14,9.1154661 C 14,8.1154661 13.673729,7.0095339 13,6.3654661 C 11.977751,5.3882216 10,5.3652161 8,6.8652161 C 6,5.4515646 4,5.2600635 3,6.3654661 Z" />
</svg>
