<?xml version="1.0" encoding="UTF-8" standalone="no"?>
<svg height="16.146967" width="17" version="1.1" id="svg3" sodipodi:docname="guest_house.svg" inkscape:version="1.4.2 (ebf0e940d0, 2025-05-08)" xmlns:inkscape="http://www.inkscape.org/namespaces/inkscape" xmlns:sodipodi="http://sodipodi.sourceforge.net/DTD/sodipodi-0.dtd" xmlns="http://www.w3.org/2000/svg" xmlns:svg="http://www.w3.org/2000/svg">
  <defs id="defs3" />
  <sodipodi:namedview id="namedview3" pagecolor="#ffffff" bordercolor="#666666" borderopacity="1.0" inkscape:showpageshadow="2" inkscape:pageopacity="0.0" inkscape:pagecheckerboard="true" inkscape:deskcolor="#d1d1d1" showgrid="true" inkscape:zoom="37.071429" inkscape:cx="2.5626204" inkscape:cy="6.5549133" inkscape:window-width="2154" inkscape:window-height="1206" inkscape:window-x="0" inkscape:window-y="0" inkscape:window-maximized="1" inkscape:current-layer="svg3">
    <inkscape:grid id="grid5" units="px" originx="0" originy="0" spacingx="1" spacingy="1" empcolor="#0000ff" empopacity="0.25098039" color="#0000ff" opacity="0.1254902" empspacing="5" enabled="true" visible="true" />
  </sodipodi:namedview>
  <path id="path5" d="M 2,6.6469677 C 1.723,6.6469677 1.5,6.8699677 1.5,7.1469677 V 14.646968 H 2.5 V 12.646968 H 14.5 V 14.646968 H 15.5 V 9.1469677 A 0.5,0.5 0 1 0 14.5,9.1469677 V 11.646968 H 2.5 V 7.1469677 C 2.5,6.8699677 2.277,6.6469677 2,6.6469677 Z M 5,7.6469677 A 1.5,1.5 0 1 0 5,10.646968 A 1.5,1.5 0 0 0 5,7.6469677 Z M 7.5,8.6469677 V 10.646968 H 13.5 C 13.5,9.6469677 12.464,8.6469677 11.5,8.6469677 Z M 8.5,1.4999677 L 2.5,5.6469677 H 4.5 V 13.646968 H 7.5 V 8.6469677 H 9.5 V 13.646968 H 12.5 V 5.6469677 H 14.5 Z" style="stroke:#ffffff;stroke-width:3;stroke-linecap:round;stroke-linejoin:round;stroke-dasharray:none;stroke-opacity:0.5;paint-order:stroke fill markers" />
  <path d="M 8.5,1.4999677 L 2.5,5.6469677 H 4.5 V 13.646968 H 7.5 V 8.6469677 H 9.5 V 13.646968 H 12.5 V 5.6469677 H 14.5 Z" fill="#808080" id="path2" />
  <path d="M 2,6.6469677 C 1.723,6.6469677 1.5,6.8699677 1.5,7.1469677 V 14.646968 H 2.5 V 12.646968 H 14.5 V 14.646968 H 15.5 V 9.1469677 A 0.5,0.5 0 1 0 14.5,9.1469677 V 11.646968 H 2.5 V 7.1469677 C 2.5,6.8699677 2.277,6.6469677 2,6.6469677 Z M 5,7.6469677 A 1.5,1.5 0 1 0 5,10.646968 A 1.5,1.5 0 0 0 5,7.6469677 Z M 7.5,8.6469677 V 10.646968 H 13.5 C 13.5,9.6469677 12.464,8.6469677 11.5,8.6469677 Z" id="path3" />
</svg>
