<svg height="16.146967" width="17" version="1.1"
  xmlns="http://www.w3.org/2000/svg" xmlns:svg="http://www.w3.org/2000/svg">

  <path
    d="M 8.5,1.4999677 L 2.5,5.6469677 H 4.5 V 13.646968 H 7.5 V 8.6469677 H 9.5 V 13.646968 H 12.5 V 5.6469677 H 14.5 Z"
    fill="#808080" />
  <path
    d="M 2,6.6469677 C 1.723,6.6469677 1.5,6.8699677 1.5,7.1469677 V 14.646968 H 2.5 V 12.646968 H 14.5 V 14.646968 H 15.5 V 9.1469677 A 0.5,0.5 0 1 0 14.5,9.1469677 V 11.646968 H 2.5 V 7.1469677 C 2.5,6.8699677 2.277,6.6469677 2,6.6469677 Z M 5,7.6469677 A 1.5,1.5 0 1 0 5,10.646968 A 1.5,1.5 0 0 0 5,7.6469677 Z M 7.5,8.6469677 V 10.646968 H 13.5 C 13.5,9.6469677 12.464,8.6469677 11.5,8.6469677 Z"
  />
</svg>
