<?xml version="1.0" encoding="UTF-8" standalone="no"?>
<!-- Generator: Adobe Illustrator 13.0.2, SVG Export Plug-In . SVG Version: 6.00 Build 14948)  -->

<svg version="1.1" id="Layer_1" x="0px" y="0px" width="16.999056" height="16.894714" viewBox="-0.258 -0.548 16.999056 16.894714" xml:space="preserve" sodipodi:docname="horse_riding.svg" inkscape:version="1.4.2 (ebf0e940d0, 2025-05-08)" xmlns:inkscape="http://www.inkscape.org/namespaces/inkscape" xmlns:sodipodi="http://sodipodi.sourceforge.net/DTD/sodipodi-0.dtd" xmlns="http://www.w3.org/2000/svg" xmlns:svg="http://www.w3.org/2000/svg"><defs id="defs904">
	
	
	
	
</defs><sodipodi:namedview id="namedview902" pagecolor="#ffffff" bordercolor="#666666" borderopacity="1.0" inkscape:pageshadow="2" inkscape:pageopacity="0.0" inkscape:pagecheckerboard="true" showgrid="true" inkscape:zoom="38.326253" inkscape:cx="9.8365995" inkscape:cy="9.5495899" inkscape:window-width="2154" inkscape:window-height="1206" inkscape:window-x="0" inkscape:window-y="0" inkscape:window-maximized="1" inkscape:current-layer="Layer_1" inkscape:showpageshadow="2" inkscape:deskcolor="#d1d1d1"><inkscape:grid id="grid1" units="px" originx="1.4999999" originy="1.447357" spacingx="1" spacingy="1" empcolor="#0000ff" empopacity="0.25098039" color="#0000ff" opacity="0.1254902" empspacing="5" enabled="true" visible="true" /></sodipodi:namedview>
<path id="path895" style="fill:#000000;fill-opacity:1;stroke:#ffffff;stroke-width:3;stroke-linecap:round;stroke-linejoin:round;stroke-dasharray:none;stroke-opacity:0.5;paint-order:stroke fill markers" d="M 6.690171,0.952 C 6.15344,0.952 5.717552,1.387922 5.717552,1.928913 C 5.717552,2.465645 6.153439,2.901264 6.690171,2.901264 C 7.2302,2.901264 7.667084,2.465645 7.667084,1.928913 C 7.667084,1.387785 7.230062,0.952 6.690171,0.952 Z M 13.064799,2.186561 L 9.099175,6.289597 H 7.649908 V 5.451169 L 8.881248,5.739949 C 9.135735,5.796838 9.387963,5.638986 9.444852,5.383537 C 9.501741,5.132348 9.340702,4.881142 9.089513,4.823154 L 7.649908,4.454932 V 4.118917 C 7.649908,3.578888 7.214097,3.143077 6.674068,3.143077 C 6.133077,3.143077 5.697154,3.578888 5.697154,4.118917 V 6.289597 H 2.675164 C 1.882846,6.289597 1.242,6.933665 1.242,7.725982 V 10.102512 H 2.261854 V 7.750405 L 2.792179,6.939084 V 9.764618 L 2.258634,10.599825 V 14.202596 C 2.258634,14.557943 2.550626,14.846714 2.905973,14.846714 C 3.261321,14.846714 3.550092,14.557943 3.550092,14.202596 V 11.082914 L 4.187769,10.079163 V 11.149473 L 5.613419,14.511505 C 5.791642,14.819582 6.183524,14.930173 6.495862,14.753049 C 6.803939,14.578123 6.91563,14.186165 6.737406,13.873828 L 5.515728,10.961337 L 6.099729,9.962148 H 9.364337 V 14.202596 C 9.364337,14.557943 9.653108,14.846714 10.008456,14.846714 C 10.363803,14.846714 10.655795,14.557943 10.655795,14.202596 V 10.056618 L 12.135121,7.034628 C 12.283389,7.07434 12.439987,7.097966 12.601034,7.097966 C 13.416987,7.097966 14.104004,6.537549 14.291845,5.777523 L 14.449654,5.806508 C 14.721318,5.856939 15.009994,5.732435 15.154965,5.474787 C 15.338548,5.152693 15.221558,4.736232 14.899464,4.55155 L 12.946711,3.253651 Z M 12.900549,5.511019 L 13.933286,5.708817 C 13.778698,6.303536 13.242061,6.739276 12.601034,6.739139 C 12.497975,6.739139 12.397071,6.728395 12.299372,6.705859 Z" />
</svg>
