<svg width="11.776625" height="14.683461" version="1.1"
  xmlns="http://www.w3.org/2000/svg" xmlns:svg="http://www.w3.org/2000/svg">


  <path
    d="M 7.0031591,1.5037787 A 3.2998186,3.2998186 0 0 0 3.7260197,4.8300563 A 3.3640762,3.3640762 0 0 0 3.907453,5.9186563 C 2.1876163,7.9711208 3.200619,8.8404888 3.5861648,10.106742 C 3.9792703,11.391895 2.576942,12.162987 1.4996816,13.183549 C 4.7314627,12.597671 5.2682029,11.093286 5.1774862,10.265496 C 5.0792099,9.3469901 4.3459168,8.7422124 5.2984418,7.6687319 C 5.8540813,7.8463853 6.379482,8.1525541 6.9993792,8.1525541 A 3.2355609,3.2355609 0 0 0 8.8628506,7.5666756 A 3.3338373,3.3338373 0 0 0 10.276518,4.8262765 A 3.2998186,3.2998186 0 0 0 7.0031591,1.4999988 Z"
    fill="#e11919"
  />
</svg>
