<svg version="1.0" width="12.848033" height="17"
  xmlns="http://www.w3.org/2000/svg" xmlns:svg="http://www.w3.org/2000/svg">


  <path
    d="M 6.4237928,1.5 C 5.3316629,1.5 4.4472303,2.3863858 4.4472303,3.4785156 C 4.4472303,4.5706124 5.3316629,5.4550781 6.4237928,5.4550781 C 7.5158896,5.4550781 8.4023084,4.5706124 8.4023084,3.4785156 C 8.4023084,2.3863858 7.5158896,1.5 6.4237928,1.5 Z M 5.2226209,5.7597656 C 4.8497341,5.7597656 4.6150498,5.8962022 4.4003553,6.109375 L 1.7538709,8.7617188 C 1.0304598,9.4852291 2.0101663,10.411673 2.7323866,9.6894531 L 4.3300428,8.0800781 V 9.5878906 H 6.4198866 H 6.4218397 H 8.4980116 V 8.0703125 L 10.138637,9.7148438 C 10.799228,10.410633 11.805862,9.4758188 11.117152,8.7871094 L 8.443324,6.109375 C 8.2223773,5.8920671 7.9705078,5.7597656 7.5976209,5.7597656 H 6.4218397 H 6.4198866 Z M 4.3300428,10.371094 C 4.3300428,10.371094 2.9936077,11.709483 2.9921522,11.710938 C 2.5621017,12.140989 2.6730455,12.897299 3.0741834,13.306641 L 4.943324,15.25 C 5.6646511,15.971327 6.6271611,14.972966 5.9296522,14.275391 L 4.7480116,13.09375 L 5.9023084,11.943359 Z M 8.490199,10.371094 L 6.9179334,11.943359 L 8.0722303,13.09375 L 6.8905897,14.275391 C 6.1930808,14.972966 7.1555908,15.971327 7.8769178,15.25 L 9.7460588,13.306641 C 10.147197,12.897299 10.258141,12.140989 9.8280898,11.710938 C 9.8266348,11.709483 8.490199,10.371094 8.490199,10.371094 Z" />
</svg>
