<?xml version="1.0" encoding="UTF-8" standalone="no"?>
<svg version="1.0" width="15.18667" height="14.034822" id="svg934" sodipodi:docname="mine.svg" inkscape:version="1.4.2 (ebf0e940d0, 2025-05-08)" xmlns:inkscape="http://www.inkscape.org/namespaces/inkscape" xmlns:sodipodi="http://sodipodi.sourceforge.net/DTD/sodipodi-0.dtd" xmlns="http://www.w3.org/2000/svg" xmlns:svg="http://www.w3.org/2000/svg">
  <defs id="defs938" />
  <sodipodi:namedview id="namedview936" pagecolor="#ffffff" bordercolor="#666666" borderopacity="1.0" inkscape:pageshadow="2" inkscape:pageopacity="0.0" inkscape:pagecheckerboard="true" showgrid="false" fit-margin-top="0" fit-margin-left="0" fit-margin-right="0" fit-margin-bottom="0" inkscape:zoom="23.089655" inkscape:cx="10.654122" inkscape:cy="14.725209" inkscape:window-width="2154" inkscape:window-height="1206" inkscape:window-x="0" inkscape:window-y="0" inkscape:window-maximized="1" inkscape:current-layer="svg934" inkscape:showpageshadow="2" inkscape:deskcolor="#d1d1d1" />
  <path d="M 5.8369052,1.5099751 A 0.24,0.24 0 0 0 5.6869052,1.5499751 C 4.8569052,2.1299751 3.9969052,2.6899751 3.2469052,3.4299751 C 2.5469052,4.1499751 2.0869052,5.0299751 1.5369052,5.7799751 A 0.24,0.24 0 0 0 1.5869052,6.1099751 L 2.8369052,7.0299751 A 0.24,0.24 0 0 0 3.1669052,6.9699751 L 4.4269052,5.1599751 L 6.8869052,7.6399751 L 4.2369052,10.489975 L 3.1369052,11.649975 A 0.24,0.24 0 0 0 3.1569052,11.979975 L 3.7169052,12.489975 C 3.8169052,12.589975 3.9669052,12.569975 4.0569052,12.479975 L 7.6569052,8.4199751 L 11.596905,12.369975 A 0.24,0.24 0 0 0 11.926905,12.369975 L 12.466905,11.829975 A 0.24,0.24 0 0 0 12.466905,11.489975 A 8832.6,8832.6 0 0 1 8.3969052,7.5899751 L 10.626905,5.1099751 L 11.376905,5.7799751 L 13.376905,6.8299751 C 13.616905,6.9599751 13.836905,6.6499751 13.646905,6.4599751 L 13.616905,6.3899751 A 7.16,7.16 0 0 1 13.486905,6.1299751 L 13.136905,5.3499751 A 44.14,44.14 0 0 0 12.766905,4.5499751 A 6.98,6.98 0 0 0 12.626905,4.2499751 A 1.67,1.67 0 0 0 12.566905,4.1499751 L 12.486905,4.0499751 A 74.78,74.78 0 0 1 11.936905,3.5499751 L 12.176905,3.3199751 A 0.24,0.24 0 0 0 12.156905,2.9699751 L 11.836905,2.6999751 A 0.24,0.24 0 0 0 11.516905,2.6999751 L 11.266905,2.9499751 A 27.98,27.98 0 0 1 9.8969052,1.6199751 A 0.24,0.24 0 0 0 9.5669052,1.5999751 L 8.3469052,2.6699751 A 0.24,0.24 0 0 0 8.3469052,3.0199751 L 9.8269052,4.4899751 L 7.6269052,6.8599751 L 5.1069052,4.4599751 L 6.8969052,3.1599751 A 0.24,0.24 0 0 0 6.9469052,2.8299751 L 6.0069052,1.5999751 A 0.24,0.24 0 0 0 5.8269052,1.4999751 Z" color="#000000" id="path932" style="stroke:#ffffff;stroke-width:3;stroke-linecap:round;stroke-linejoin:round;stroke-dasharray:none;stroke-opacity:0.5;paint-order:stroke fill markers" />
</svg>
