<svg xmlns="http://www.w3.org/2000/svg" width="17" height="21.991">
	<path
		d="M0 26.61v14.48h30.143V26.61c0-.979-.795-1.773-1.773-1.773h-1.768a7.4 7.4 0 0 0 .01-1.89c-.477-2.975-2.736-4.878-5.353-5.948-1.191-.594-2.976-.833-4.046-1.547-.548-.438-.94-1.005-1.254-1.627v-2.446c.023 0 .046.004.068.004 1.501 0 2.855-.045 3.893-.973a4.5 4.5 0 0 1-1.289.208 4.557 4.557 0 0 1 0-9.114c.452 0 .877.084 1.289.207C18.883.78 17.529.2 16.028.2a5.86 5.86 0 0 0-5.859 5.859c0 2.593 1.685 4.668 4.016 5.441v2.328c-.314.62-.704 1.185-1.251 1.623-1.072.714-2.856.953-4.047 1.547-2.617 1.07-4.877 2.974-5.353 5.948a7.3 7.3 0 0 0 .01 1.89H1.773C.795 24.837 0 25.631 0 26.61Zm21.277 3.8c0-1.224.993-2.215 2.217-2.215s2.217.99 2.217 2.216v8.526h-4.434Zm-8.42 0a2.214 2.214 0 1 1 4.431 0v8.527h-4.431Zm-8.424 0c0-1.224.992-2.215 2.217-2.215 1.224 0 2.217.99 2.217 2.216v8.526H4.433Z"
		transform="translate(1.5 1.406)scale(.46445)" />
</svg>
