<?xml version="1.0" encoding="UTF-8" standalone="no"?>
<svg width="17" height="17" version="1.1" id="svg2" sodipodi:docname="motel.svg" inkscape:version="1.4.2 (ebf0e940d0, 2025-05-08)" xmlns:inkscape="http://www.inkscape.org/namespaces/inkscape" xmlns:sodipodi="http://sodipodi.sourceforge.net/DTD/sodipodi-0.dtd" xmlns="http://www.w3.org/2000/svg" xmlns:svg="http://www.w3.org/2000/svg">
  <defs id="defs2" />
  <sodipodi:namedview id="namedview2" pagecolor="#ffffff" bordercolor="#666666" borderopacity="1.0" inkscape:showpageshadow="2" inkscape:pageopacity="0.0" inkscape:pagecheckerboard="true" inkscape:deskcolor="#d1d1d1" inkscape:zoom="37.071429" inkscape:cx="6.3121386" inkscape:cy="7.3371868" inkscape:window-width="2154" inkscape:window-height="1206" inkscape:window-x="0" inkscape:window-y="0" inkscape:window-maximized="1" inkscape:current-layer="svg2" showgrid="true">
    <inkscape:grid id="grid1" units="px" originx="0" originy="0" spacingx="1" spacingy="1" empcolor="#0000ff" empopacity="0.25098039" color="#0000ff" opacity="0.1254902" empspacing="5" enabled="true" visible="true" />
  </sodipodi:namedview>
  <path d="M 2,1.5 C 1.723,1.5 1.5,1.723 1.5,2 V 7.5 H 2.5 V 6.5 H 14.5 V 7.5 H 15.5 V 3 A 0.5,0.5 0 1 0 14.5,3 V 5.5 H 2.5 V 2 C 2.5,1.723 2.277,1.5 2,1.5 Z M 5,1.5 A 1.5,1.5 0 1 0 5,4.5 A 1.5,1.5 0 0 0 5,1.5 Z M 7.5,2.5 V 4.5 H 13.5 C 13.5,3.5 12.464,2.5 11.5,2.5 Z M 5.5,7.5 L 4.5,10.5 C 4.027,10.5 3.5,10.884 3.5,11.5 V 14.5 H 4.5 C 4.5,14.5 4.5,15.5 5.5,15.5 C 6.5,15.5 6.5,14.5 6.5,14.5 H 10.5 C 10.5,14.5 10.5,15.5 11.5,15.5 C 12.5,15.5 12.5,14.5 12.5,14.5 H 13.5 V 11.5 C 13.5,10.98 13.045,10.5 12.5,10.5 L 11.5,7.5 Z M 6.5,8.5 H 10.5 L 11.125,10.5 H 5.875 Z M 5.5,11.75 A 0.75,0.75 0 1 1 5.5,13.25 A 0.75,0.75 0 0 1 5.5,11.75 Z M 11.5,11.75 A 0.75,0.75 0 1 1 11.5,13.25 A 0.75,0.75 0 0 1 11.5,11.75 Z" id="path2" style="stroke:#ffffff;stroke-width:3;stroke-linecap:round;stroke-linejoin:round;stroke-dasharray:none;stroke-opacity:0.5;paint-order:stroke fill markers" />
</svg>
