<?xml version="1.0" encoding="UTF-8" standalone="no"?>
<svg width="15.499681" height="14.679914" version="1.1" id="svg2" sodipodi:docname="not_drinking_spring.svg" inkscape:version="1.4.2 (ebf0e940d0, 2025-05-08)" xmlns:inkscape="http://www.inkscape.org/namespaces/inkscape" xmlns:sodipodi="http://sodipodi.sourceforge.net/DTD/sodipodi-0.dtd" xmlns="http://www.w3.org/2000/svg" xmlns:svg="http://www.w3.org/2000/svg">
  <defs id="defs2" />
  <sodipodi:namedview id="namedview2" pagecolor="#ffffff" bordercolor="#666666" borderopacity="1.0" inkscape:showpageshadow="2" inkscape:pageopacity="0.0" inkscape:pagecheckerboard="true" inkscape:deskcolor="#d1d1d1" showgrid="true" inkscape:zoom="22.936776" inkscape:cx="3.1390636" inkscape:cy="12.992236" inkscape:window-width="2154" inkscape:window-height="1206" inkscape:window-x="0" inkscape:window-y="0" inkscape:window-maximized="1" inkscape:current-layer="svg2">
    <inkscape:grid id="grid3" units="px" originx="0" originy="0" spacingx="1" spacingy="1" empcolor="#0000ff" empopacity="0.25098039" color="#0000ff" opacity="0.1254902" empspacing="5" enabled="true" visible="true" />
  </sodipodi:namedview>
  <path id="circle3" style="fill:#ff0000;stroke:#ffffff;stroke-width:3;stroke-linecap:round;stroke-linejoin:round;stroke-dasharray:none;stroke-opacity:0.589127;paint-order:stroke fill markers" d="M 13.999681,10.35 A 2.5,2.5 0 0 1 11.499681,12.85 A 2.5,2.5 0 0 1 8.9996813,10.35 A 2.5,2.5 0 0 1 11.499681,7.85 A 2.5,2.5 0 0 1 13.999681,10.35 Z M 6.9996813,1.5 A 3.3,3.3 0 0 0 3.7296813,4.83 A 3.36,3.36 0 0 0 3.8996813,5.92 C 2.1896813,7 3.1996813,8.84 3.5896813,10.1 C 3.9796813,11.4 2.5796813,12.16 1.4996813,13.18 C 4.7296813,12.6 5.2696813,11 5.1796813,10.26 C 4.9996813,9.35 4.3496813,8.74 5.2996813,7.66 C 5.8496813,7.85 6.3796813,8.16 6.9996813,8.16 A 3.23,3.23 0 0 0 8.8596813,7.56 A 3.33,3.33 0 0 0 10.279681,4.83 A 3.3,3.3 0 0 0 6.9996813,1.5 Z" />
  <path d="M 6.9996813,1.5 A 3.3,3.3 0 0 0 3.7296813,4.83 A 3.36,3.36 0 0 0 3.8996813,5.92 C 2.1896813,7 3.1996813,8.84 3.5896813,10.1 C 3.9796813,11.4 2.5796813,12.16 1.4996813,13.18 C 4.7296813,12.6 5.2696813,11 5.1796813,10.26 C 4.9996813,9.35 4.3496813,8.74 5.2996813,7.66 C 5.8496813,7.85 6.3796813,8.16 6.9996813,8.16 A 3.23,3.23 0 0 0 8.8596813,7.56 A 3.33,3.33 0 0 0 10.279681,4.83 A 3.3,3.3 0 0 0 6.9996813,1.5 Z" fill="#0064ff" id="path2" />
  <circle cx="11.499681" cy="10.35" fill="#ff0000" r="2.5" id="circle2" />
</svg>
