<svg width="44" height="36" version="1.1" id="svg14"
  xmlns="http://www.w3.org/2000/svg" xmlns:svg="http://www.w3.org/2000/svg">


  <g id="g302" style="opacity:0.2">
    <path
      d="M 20.911,20.03 C 19.849,20.04 18.95,20.368 18.344,20.855 C 17.536,21.505 17.208,22.595 16.884,24.389 C 18.102,23.373 19.26,23.407 20.1,23.979 A 2.34,2.34 0 0 0 20.61,23.672 C 21.417,23.022 21.887,21.482 22.023,20.133 A 5.655,5.655 0 0 0 20.911,20.031 Z"
      fill-opacity="0.135" stroke="#000000" stroke-width="0.8" stroke-linecap="round"
      stroke-linejoin="round" />
    <path
      d="M 12.3,26.583 C 12.444,24.316 14.733,22.325 16.884,24.389 C 19.258,22.409 21.407,24.412 21.407,26.63 C 21.407,28.849 19.345,32.024 16.545,29.653 C 13.543,31.973 12.156,28.824 12.3,26.583 Z M 31.578,1.745 C 30.516,1.755 29.617,2.083 29.011,2.57 C 28.202,3.219 27.875,4.31 27.551,6.103 C 28.769,5.087 29.927,5.121 30.766,5.693 A 2.34,2.34 0 0 0 31.276,5.386 C 32.084,4.737 32.554,3.196 32.689,1.848 A 5.655,5.655 0 0 0 31.578,1.745 Z"
      fill-opacity="0.135" stroke="#000000" stroke-width="0.8" stroke-linecap="round"
      stroke-linejoin="round" />
    <path
      d="M 22.966,8.298 C 23.111,6.03 25.4,4.039 27.551,6.103 C 29.925,4.123 32.074,6.126 32.074,8.345 C 32.074,10.563 30.011,13.738 27.212,11.367 C 24.21,13.687 22.822,10.539 22.966,8.297 Z M 42.244,20.03 C 41.183,20.04 40.284,20.368 39.677,20.855 C 38.869,21.505 38.541,22.595 38.217,24.389 C 39.435,23.373 40.593,23.407 41.433,23.979 A 2.34,2.34 0 0 0 41.943,23.672 C 42.751,23.022 43.22,21.482 43.356,20.133 A 5.655,5.655 0 0 0 42.244,20.031 Z"
      fill-opacity="0.135" stroke="#000000" stroke-width="0.8" stroke-linecap="round"
      stroke-linejoin="round" />
    <path
      d="M 33.633,26.583 C 33.778,24.316 36.067,22.325 38.217,24.389 C 40.592,22.409 42.741,24.412 42.741,26.63 C 42.741,28.849 40.678,32.024 37.878,29.653 C 34.877,31.973 33.49,28.824 33.633,26.583 Z M 10.244,1.745 C 9.183,1.755 8.284,2.083 7.677,2.57 C 6.869,3.219 6.541,4.31 6.217,6.103 C 7.435,5.087 8.593,5.121 9.433,5.693 A 2.34,2.34 0 0 0 9.943,5.386 C 10.751,4.737 11.22,3.196 11.356,1.848 A 5.655,5.655 0 0 0 10.244,1.745 Z"
      fill-opacity="0.135" stroke="#000000" stroke-width="0.8" stroke-linecap="round"
      stroke-linejoin="round" />
    <path
      d="M 1.633,8.298 C 1.778,6.03 4.067,4.039 6.217,6.103 C 8.592,4.123 10.741,6.126 10.741,8.345 C 10.741,10.563 8.678,13.738 5.878,11.367 C 2.877,13.687 1.49,10.539 1.633,8.297 Z"
      fill-opacity="0.135" stroke="#000000" stroke-width="0.8" stroke-linecap="round"
      stroke-linejoin="round" />
    <path fill="none" d="M 0,0 H 44 V 36 H 0 Z" />
  </g>
</svg>
