<svg width="15.316345" height="18.456354" version="1.1"
  xmlns="http://www.w3.org/2000/svg" xmlns:svg="http://www.w3.org/2000/svg">
  <path
    d="M 7.3163451,5.2764406 A 3.3,3.3 0 0 0 4.0363451,8.6064406 A 3.36,3.36 0 0 0 4.2163451,9.6964406 C 2.4963451,11.746441 3.5063451,12.616441 3.8963451,13.886441 C 4.2863451,15.166441 2.8863451,15.936441 1.7963451,16.956441 C 5.0363451,16.376441 5.5763451,14.866441 5.4863451,14.046441 C 5.3863451,13.126441 4.6563451,12.516441 5.6063451,11.446441 C 6.1563451,11.626441 6.6863451,11.926441 7.3063451,11.946441 A 3.24,3.24 0 0 0 9.1663451,11.346441 A 3.33,3.33 0 0 0 10.586345,8.6064406 A 3.3,3.3 0 0 0 7.3063451,5.2764406 Z"
    fill="#0064ff" />
  <path
    d="M 7.3163451,1.4999562 L 1.4999389,6.2597218 L 2.1327514,7.0331593 L 7.3163451,2.792925 L 12.499939,7.0331593 L 13.132751,6.2597218 Z"
    fill="#000" />
  <circle cx="11.316345" cy="14.146441" fill="#ff0000" r="2.5" />
</svg>
