<svg width="14.63269" height="18.496367" version="1.1"
  xmlns="http://www.w3.org/2000/svg" xmlns:svg="http://www.w3.org/2000/svg">


  <path
    d="M 7.3363451,5.3064406 A 3.3,3.3 0 0 0 4.0563451,8.6464406 A 3.36,3.36 0 0 0 4.2363451,9.7364406 C 2.5163451,11.786441 3.5363451,12.656441 3.9163451,13.996441 C 4.3163451,15.196441 2.9163451,15.996441 1.8163451,16.996441 C 5.0663451,16.496441 5.5963451,14.896441 5.5163451,14.076441 C 5.4163451,13.156441 4.6863451,12.556441 5.6363451,11.476441 C 6.1963451,11.656441 6.7163451,11.966441 7.3363451,11.966441 A 3.23,3.24 0 0 0 9.2063451,11.376441 A 3.33,3.33 0 0 0 10.616345,8.6364406 A 3.3,3.3 0 0 0 7.3363451,5.3164406 Z"
    fill="#0064ff" />
  <path
    style="baseline-shift:baseline;display:inline;overflow:visible;opacity:1;vector-effect:none;enable-background:accumulate;stop-color:#000000;stop-opacity:1"
    d="M 7.3163451,1.4999562 L 1.4999389,6.2597218 L 2.1327514,7.0331593 L 7.3163451,2.792925 L 12.499939,7.0331593 L 13.132751,6.2597218 Z"
  />
</svg>
