<?xml version="1.0" encoding="UTF-8" standalone="no"?>
<svg version="1.0" width="17" height="20" id="svg1" xmlns="http://www.w3.org/2000/svg"
  xmlns:svg="http://www.w3.org/2000/svg">
  <path
    d="M 8.3260428,1.5033127 L 8.3240082,1.5052701 C 8.1706249,1.526928 8.0381913,1.6199192 7.9699898,1.7538518 L 6.8602385,4.4996641 H 1.8133265 C 1.6403297,4.4997771 1.5001174,4.6346657 1.5,4.8010939 V 14.199168 C 1.5001176,14.365596 1.6403298,14.500484 1.8133265,14.500597 H 3.4637117 L 2.5289348,16.879631 C 2.433129,17.111504 2.5505561,17.374221 2.7913966,17.466832 C 3.0318557,17.559217 3.304705,17.447221 3.401773,17.216293 L 4.4769366,14.500597 H 12.539958 L 13.615121,17.216293 C 13.712187,17.448293 13.986503,17.560517 14.227532,17.466832 C 14.467575,17.37345 14.583991,17.11096 14.48796,16.879631 L 13.553183,14.500597 H 15.186674 C 15.359671,14.500484 15.499882,14.365596 15.5,14.199168 V 4.8010939 C 15.499882,4.6346658 15.359671,4.4997772 15.186674,4.4996641 H 10.048205 L 8.9384538,1.7538518 C 8.8702523,1.6199192 8.7378187,1.526928 8.5844354,1.5052701 C 8.5830823,1.5046113 8.581726,1.5039589 8.5803663,1.5033127 C 8.5384177,1.4985114 8.4959876,1.4991698 8.4542218,1.5052701 C 8.4117886,1.4989918 8.3686617,1.4983333 8.3260428,1.5033127 Z M 8.4542218,3.018291 L 9.0349804,4.4996641 H 7.8734632 Z M 4.2359379,6.067356 C 4.6105103,6.0673589 4.9100564,6.0876691 5.1372603,6.1280335 C 5.3644581,6.1684036 5.5534395,6.2525387 5.7049104,6.3805298 C 5.8113435,6.4691439 5.8957899,6.5938868 5.9571994,6.7563384 C 6.0186015,6.9187947 6.0487518,7.0745012 6.0487558,7.2221844 V 8.6079785 C 6.0487518,8.7556646 6.0598257,8.8707394 6.0792746,8.954427 C 6.0987164,9.0381161 6.1399159,9.1454656 6.205419,9.2754303 H 5.0334964 C 4.9864156,9.1946941 4.9562652,9.1337765 4.9419399,9.0914405 C 4.9276091,9.0491011 4.9135388,8.9823746 4.8992136,8.8917922 C 4.7354633,9.0434165 4.5705772,9.1517296 4.4088778,9.21671 C 4.1878155,9.3033513 3.9325027,9.3458943 3.6398036,9.3458943 C 3.2508996,9.3458943 2.9563727,9.2588519 2.7547578,9.0855687 C 2.5531422,8.9122831 2.451604,8.6995393 2.4516042,8.4455196 C 2.4516039,8.2072548 2.523978,8.0099556 2.6693051,7.8563614 C 2.8146314,7.7027701 3.0820166,7.5906137 3.4729674,7.5157848 C 3.941696,7.4252062 4.2452748,7.360397 4.3844629,7.3239659 C 4.523647,7.2875388 4.6724395,7.2401566 4.828003,7.1810803 C 4.8280006,7.0333977 4.7958272,6.9308977 4.7323773,6.8718212 C 4.6689216,6.8127495 4.5583573,6.7817864 4.3987049,6.7817838 C 4.1940178,6.7817861 4.0391949,6.8146832 3.9368533,6.8776933 C 3.8570248,6.9269241 3.7926909,7.0197662 3.7435676,7.155635 L 2.5492644,7.0323229 C 2.5942948,6.8314731 2.6596399,6.673845 2.7445849,6.5586474 C 2.8295288,6.4434558 2.9511551,6.3438506 3.1108107,6.259175 C 3.2254335,6.1981349 3.3822418,6.1517247 3.5828351,6.1182468 C 3.7834254,6.0847744 4.0025947,6.0673592 4.2359379,6.067356 Z M 12.533571,6.0720422 C 13.065751,6.0720454 13.470855,6.1629424 13.750255,6.3460693 C 14.029647,6.5292021 14.227705,6.798061 14.340286,7.1505345 L 13.162258,7.3012494 C 13.125413,7.1673498 13.06009,7.0657999 12.962869,6.9978622 C 12.865638,6.9299297 12.73394,6.8960836 12.570193,6.8960808 C 12.363458,6.8960833 12.197611,6.9686275 12.069684,7.1113878 C 11.941754,7.2541524 11.876398,7.4698045 11.876399,7.7592661 C 11.876397,8.0172245 11.940742,8.2125671 12.06765,8.3464671 C 12.194553,8.4803696 12.355383,8.5480735 12.551882,8.5480726 C 12.715628,8.5480734 12.853348,8.5074534 12.964903,8.4267177 C 13.076454,8.3459837 13.15989,8.2222017 13.215158,8.0548239 L 14.403357,8.1840081 C 14.337854,8.4222749 14.231309,8.6282582 14.081892,8.8025264 C 13.932469,8.9767946 13.740454,9.1131631 13.508138,9.2096524 C 13.275819,9.3061384 12.981289,9.3544951 12.623092,9.3544953 C 12.277172,9.3544953 11.988663,9.3225713 11.758393,9.2605431 C 11.52812,9.1985154 11.330087,9.0979385 11.164293,8.9591132 C 10.998497,8.8202898 10.867807,8.6568478 10.773652,8.4697792 C 10.679496,8.2827118 10.633265,8.0351476 10.633266,7.7259914 C 10.633266,7.4030544 10.689547,7.1342073 10.804171,6.9195688 C 10.888091,6.7620406 11.002689,6.6218269 11.148016,6.4967842 C 11.293343,6.3717458 11.444145,6.2779314 11.59766,6.2168851 C 11.841235,6.1204003 12.152853,6.0720454 12.533571,6.0720422 Z M 4.828003,7.7858973 C 4.6560647,7.8449728 4.4771332,7.8971954 4.2908717,7.9424842 C 4.0370596,8.0074675 3.8762191,8.0712918 3.8086744,8.1343031 C 3.7390792,8.1992858 3.7049088,8.2747365 3.7049104,8.3574396 C 3.7049092,8.4519591 3.7380683,8.5283476 3.8066398,8.5884051 C 3.8752076,8.6484647 3.9747112,8.6784433 4.1077588,8.6784427 C 4.246943,8.6784433 4.3786562,8.645558 4.4983998,8.5805759 C 4.6181381,8.5155952 4.7025728,8.4372729 4.7527232,8.3437381 C 4.8028687,8.250205 4.8280006,8.1273724 4.828003,7.9777162 Z M 7.2542317,8.4764925 H 8.5156762 V 9.9758122 C 8.6405328,9.8497905 8.782272,9.7550138 8.9409051,9.6919985 C 9.0995348,9.6289885 9.2754563,9.5980498 9.4678634,9.5980463 C 9.8649506,9.5980498 10.19265,9.7363523 10.452604,10.011044 C 10.712551,10.285741 10.843241,10.679333 10.843245,11.193276 C 10.843241,11.535907 10.782915,11.838613 10.664201,12.099522 C 10.54548,12.360433 10.38163,12.553829 10.171831,12.68281 C 9.9620245,12.811787 9.7298215,12.876586 9.4739672,12.876586 C 9.2549511,12.876586 9.053897,12.832112 8.8717292,12.74153 C 8.734588,12.670645 8.5858194,12.537179 8.4241198,12.342232 V 12.806122 H 7.2542317 Z M 9.0833263,10.496464 C 8.9134357,10.496466 8.775729,10.555439 8.6682704,10.676539 C 8.5608095,10.797643 8.5055017,10.982367 8.5055033,11.228508 C 8.5055017,11.498281 8.5587863,11.694608 8.6642011,11.815709 C 8.7696126,11.936811 8.9033114,11.997742 9.0650149,11.997741 C 9.2144331,11.997742 9.3400921,11.9368 9.4414138,11.817666 C 9.5427308,11.698534 9.5940051,11.498352 9.5940079,11.216764 C 9.5940054,10.968654 9.5447528,10.786848 9.4454829,10.670667 C 9.3462079,10.55449 9.2245572,10.496466 9.0833263,10.496464 Z"
    id="path1" />
</svg>
