<?xml version="1.0" encoding="UTF-8" standalone="no"?>
<!-- Generator: Adobe Illustrator 13.0.2, SVG Export Plug-In . SVG Version: 6.00 Build 14948)  -->

<svg version="1.1" id="Layer_1" x="0px" y="0px" width="16.992607" height="16.992607" viewBox="-0.258 -0.548 16.992607 16.992607" xml:space="preserve" sodipodi:docname="sinkhole.svg" inkscape:version="1.4.2 (ebf0e940d0, 2025-05-08)" xmlns:inkscape="http://www.inkscape.org/namespaces/inkscape" xmlns:sodipodi="http://sodipodi.sourceforge.net/DTD/sodipodi-0.dtd" xmlns="http://www.w3.org/2000/svg" xmlns:svg="http://www.w3.org/2000/svg"><defs id="defs904">
	
	
	
	
</defs><sodipodi:namedview id="namedview902" pagecolor="#ffffff" bordercolor="#666666" borderopacity="1.0" inkscape:pageshadow="2" inkscape:pageopacity="0.0" inkscape:pagecheckerboard="true" showgrid="true" inkscape:zoom="27.100754" inkscape:cx="6.4204856" inkscape:cy="10.627011" inkscape:window-width="2154" inkscape:window-height="1206" inkscape:window-x="0" inkscape:window-y="0" inkscape:window-maximized="1" inkscape:current-layer="Layer_1" inkscape:showpageshadow="2" inkscape:deskcolor="#d1d1d1"><inkscape:grid id="grid1" units="px" originx="0" originy="0" spacingx="0.99999999" spacingy="0.99999999" empcolor="#0000ff" empopacity="0.25098039" color="#0000ff" opacity="0.1254902" empspacing="5" enabled="true" visible="true" /><inkscape:grid id="grid2" units="px" originx="0" originy="0" spacingx="0.99999999" spacingy="0.99999999" empcolor="#0000ff" empopacity="0.25098039" color="#0000ff" opacity="0.1254902" empspacing="5" enabled="true" visible="true" /></sodipodi:namedview>

<path id="path1841" style="baseline-shift:baseline;display:inline;overflow:visible;fill-rule:evenodd;enable-background:accumulate;stop-color:#000000;stop-opacity:1;opacity:1;stroke:#ffffff;stroke-opacity:0.5;stroke-width:3;stroke-dasharray:none;stroke-linejoin:round;stroke-linecap:round;paint-order:stroke fill markers" d="M 8.1775469 0.94809375 C 5.4500156 0.97571298 2.8677284 2.6070391 1.7654375 5.2840312 C 0.2957163 8.8533541 2.0047091 12.951028 5.5740312 14.42075 C 9.1433543 15.890471 13.241029 14.183432 14.71075 10.614109 C 16.180471 7.0447864 14.473432 2.9451589 10.904109 1.4754375 C 10.011779 1.1080073 9.086724 0.93888734 8.1775469 0.94809375 z M 8.1990313 1.9461406 C 8.8147726 1.9423646 9.4392203 2.0338481 10.052547 2.2293437 L 8.9177813 4.9852031 L 9.8435625 5.3660625 L 10.978328 2.6102031 C 12.124626 3.1961157 13.010299 4.1097349 13.568172 5.186375 L 10.814266 6.3328594 L 11.199031 7.2566875 L 13.952938 6.1102031 C 14.324334 7.2642432 14.34987 8.5382657 13.958797 9.7645 L 11.202938 8.6297344 L 10.822078 9.5535625 L 13.577938 10.688328 C 12.991797 11.834666 12.076719 12.720461 10.999813 13.278172 L 9.8533281 10.526219 L 8.9295 10.910984 L 10.077938 13.662937 C 8.9235261 14.034765 7.6503712 14.060028 6.4236406 13.668797 L 7.5584062 10.912937 L 6.632625 10.532078 L 5.4978594 13.285984 C 4.3522627 12.7002 3.4657731 11.787789 2.9080156 10.711766 L 5.6619219 9.5652812 L 5.2771562 8.6414531 L 2.52325 9.7879375 C 2.151692 8.6341458 2.1287161 7.3616854 2.5193437 6.1355937 L 5.27325 7.2684062 L 5.6541094 6.3445781 L 2.9002031 5.2098125 C 3.4862165 4.0629691 4.3992531 3.1759767 5.476375 2.6180156 L 6.6228594 5.3719219 L 7.5466875 4.9871562 L 6.39825 2.23325 C 6.9753887 2.047293 7.5832899 1.9499166 8.1990313 1.9461406 z " /></svg>
