<svg version="1.0" width="16" height="16"
  xmlns="http://www.w3.org/2000/svg" xmlns:svg="http://www.w3.org/2000/svg">

  <path
    d="M 8,1.5 A 6.503,6.503 0 0 0 1.5,8 C 1.5,11.588 4.412,14.5 8,14.5 C 11.588,14.5 14.5,11.588 14.5,8 C 14.5,4.412 11.588,1.5 8,1.5 Z M 7.512,2.04 L 8.867,3.217 L 8.51,4.72 L 7.004,5.454 L 5.098,4.924 L 4.814,3.7 L 5.544,2.542 Z M 10.889,2.668 L 12.635,4.172 L 12.143,6.051 L 10.549,6.301 L 9.055,4.734 L 9.295,3.311 Z M 4.605,2.948 C 4.543,3.203 4.482,3.458 4.424,3.715 L 3.547,3.951 C 3.617,3.816 3.707,3.692 3.812,3.576 A 1.45,1.45 0 0 1 4.141,3.23 C 4.278,3.118 4.415,3.031 4.605,2.947 Z M 4.887,5.414 L 6.645,5.93 L 7.092,7.93 L 5.258,9.42 L 3.662,9.373 L 3.26,7.148 Z M 12.363,6.549 L 13.26,8.131 L 12.023,10.275 L 10.473,10.121 L 9.904,8.76 L 10.857,6.832 Z M 1.842,7.088 L 2.768,7.4 L 3.26,9.559 L 2.66,10.689 C 2.518,10.75 2.386,10.592 2.244,10.266 A 7.137,7.137 0 0 1 1.811,8.67 A 5.256,5.256 0 0 1 1.841,7.088 Z M 14.098,7.957 C 14.102,8.497 14.061,8.953 13.977,9.414 A 6.37,6.37 0 0 1 13.574,10.619 C 13.424,10.935 13.287,11.159 13.127,11.309 L 12.408,10.434 L 13.662,8.209 Z M 7.445,8.317 L 9.445,8.865 L 10.082,10.443 L 8.979,11.965 L 6.489,11.416 L 5.669,9.693 L 7.445,8.316 Z M 6.285,11.807 L 8.925,12.295 L 9.684,13.515 L 9.494,14.049 A 9.09,9.09 0 0 1 7.123,14.109 A 6.78,6.78 0 0 1 5.971,13.811 A 3.183,3.183 0 0 1 5.139,13.375 L 5.107,12.746 L 6.285,11.806 Z"
  />
</svg>
