<svg width="15" height="19" version="1.1"
  xmlns="http://www.w3.org/2000/svg" xmlns:svg="http://www.w3.org/2000/svg">
  <path id="spring"
    d="M 7.1517932,5.5 A 3.3787894,3.3904123 0 0 0 3.7934813,8.9212342 A 3.4402219,3.4520561 0 0 0 3.977779,10.041098 C 2.2167129,12.147257 3.2508272,13.041093 3.6501388,14.345888 C 4.0494503,15.660957 2.6160244,16.452053 1.5,17.499999 C 4.8173569,16.904108 5.3702498,15.352738 5.278101,14.510272 C 5.1757134,13.565066 4.4282842,12.938353 5.400966,11.839037 C 5.9640976,12.023969 6.5067517,12.332189 7.1415545,12.352736 A 3.3173568,3.3287684 0 0 0 9.0459631,11.736298 A 3.4095057,3.4212343 0 0 0 10.49986,8.9212342 A 3.3787894,3.3904123 0 0 0 7.1415545,5.5 Z" />
</svg>
