<svg width="11.779812" height="14.68991" version="1.1"
  xmlns="http://www.w3.org/2000/svg" xmlns:svg="http://www.w3.org/2000/svg">


  <path
    d="M 6.9996754,1.5099991 A 3.3,3.3 0 0 0 3.7296754,4.8399991 A 3.36,3.36 0 0 0 3.9096754,5.9199991 C 2.1996754,7.9699991 3.2096754,8.8399991 3.5896754,10.109999 C 3.9896754,11.389999 2.5896754,12.169999 1.4996754,13.189999 C 4.7396754,12.599999 5.2696754,11.089999 5.1796754,10.269999 C 5.0796754,9.3499991 4.3496754,8.7499991 5.2996754,7.6699991 C 5.8596754,7.8499991 6.3796754,8.1599991 6.9996754,8.1599991 A 3.24,3.24 0 0 0 8.8696754,7.5599991 A 3.33,3.33 0 0 0 10.279675,4.8299991 A 3.3,3.3 0 0 0 6.9996754,1.4999991 Z"
    fill="#0064ff"
  />
</svg>
