<svg height="15.027102" width="16.973846" version="1.1"
  xmlns="http://www.w3.org/2000/svg" xmlns:svg="http://www.w3.org/2000/svg">


  <path
    d="M 14.911973,1.500102 A 0.553,0.553 0 0 0 14.749973,1.527102 L 13.267973,2.078102 L 12.999973,3.328102 H 1.4999729 L 2.4999729,9.328102 L 11.499973,10.228102 V 11.328102 H 2.9999729 A 0.5,0.5 0 0 0 2.9999729,12.328102 H 4.0199729 A 1,1 0 0 1 4.0199729,12.330102 A 1,1 0 0 0 3.9999729,12.527102 A 1,1 0 0 0 4.9999729,13.527102 A 1,1 0 0 0 5.9999729,12.527102 A 1,1 0 0 0 5.9789729,12.328102 H 10.018973 A 1,1 0 0 1 10.018973,12.330102 A 1,1 0 0 0 9.9999729,12.527102 A 1,1 0 0 0 10.999973,13.527102 A 1,1 0 0 0 11.999973,12.527102 A 1,1 0 0 0 11.978973,12.328102 H 12.499973 V 10.328102 L 13.999973,3.328102 L 14.099973,2.928102 L 15.099973,2.578102 A 0.553,0.553 0 0 0 14.911973,1.500102 Z M 2.6679729,4.328102 H 4.9999729 V 5.328102 H 2.8459729 Z M 5.4999729,4.328102 H 6.9999729 V 5.328102 H 5.4999729 Z M 7.4999729,4.328102 H 8.9999729 V 5.328102 H 7.4999729 Z M 9.4999729,4.328102 H 10.999973 V 5.328102 H 9.4999729 Z M 11.499973,4.328102 H 12.784973 L 12.574973,5.328102 H 11.499973 Z M 2.9359729,5.828102 H 4.9999729 V 7.328102 H 3.2029729 Z M 5.4999729,5.828102 H 6.9999729 V 7.328102 H 5.4999729 Z M 7.4999729,5.828102 H 8.9999729 V 7.328102 H 7.4999729 Z M 9.4999729,5.828102 H 10.999973 V 7.328102 H 9.4999729 Z M 11.499973,5.828102 H 12.468973 L 12.151973,7.328102 H 11.499973 Z M 3.2929729,7.828102 H 4.9999729 V 8.582102 L 3.3999729,8.428102 Z M 5.4999729,7.828102 H 6.9999729 V 8.773102 L 5.4999729,8.629102 Z M 7.4999729,7.828102 H 8.9999729 V 8.965102 L 7.4999729,8.820102 Z M 9.4999729,7.828102 H 10.999973 V 9.156102 L 9.4999729,9.012102 Z M 11.499973,7.828102 H 12.044973 L 11.749973,9.228102 L 11.499973,9.205102 Z"
  />
</svg>
