<svg height="18" width="18" version="1.2" xmlns="http://www.w3.org/2000/svg"
  xmlns:svg="http://www.w3.org/2000/svg">
  <path
    d="M 9,1.5 C 5.5000035,1.5 3.5,4.5039082 3.5,6.5 H 1.5 V 16.5 H 16.5 V 6.5 H 14.5 C 14.5,4.5000019 12.499996,1.5 9,1.5 Z M 8.9726563,3 L 9.9628906,4.7519533 L 11.945313,4.75 L 10.953125,6.5019533 L 11.947266,8.25 L 9.9648438,8.2480467 L 8.9726563,10 L 7.9824218,8.2480467 L 6,8.25 L 6.9921875,6.4980467 L 5.9980467,4.75 L 7.9804688,4.7519533 Z M 8.9726563,4.2128906 L 8.6679686,4.7519533 H 9.2773437 Z M 7.029297,5.3574218 L 7.3339843,5.8945312 L 7.638672,5.3574218 Z M 8.3261718,5.3574218 L 7.6777344,6.5 L 8.3261718,7.6425782 H 9.6191405 L 10.267578,6.5 L 9.6191405,5.3574218 Z M 10.306641,5.3574218 L 10.611328,5.8964845 L 10.916016,5.3574218 Z M 7.3339843,7.1035155 L 7.029297,7.6425782 H 7.638672 Z M 10.611328,7.1054688 L 10.306641,7.6425782 H 10.916016 Z M 8.6679686,8.2480467 L 8.9726563,8.7871094 L 9.2773437,8.2480467 Z M 9,10.500289 C 10.243983,10.500289 10.5,11.534878 10.5,12.109664 V 15.503906 L 7.5,15.5 V 12.105758 C 7.5,11.509719 7.7560166,10.500289 9,10.500289 Z M 4.5,10.498336 C 5.7439834,10.498336 6,11.532925 6,12.107711 V 15.501953 L 3,15.498047 V 12.103804 C 3,11.507766 3.2560166,10.498336 4.5,10.498336 Z M 13.5,10.498336 C 14.743983,10.498336 15,11.532925 15,12.107711 V 15.501953 L 12,15.498047 V 12.103804 C 12,11.507766 12.256017,10.498336 13.5,10.498336 Z"
  />
</svg>
