<?xml version="1.0" encoding="UTF-8" standalone="no"?>
<svg height="18" width="18" version="1.2" viewBox="0 0 5.625 5.625" xml:space="preserve" id="svg134" sodipodi:docname="synagogue.svg" inkscape:version="1.4.2 (ebf0e940d0, 2025-05-08)" xmlns:inkscape="http://www.inkscape.org/namespaces/inkscape" xmlns:sodipodi="http://sodipodi.sourceforge.net/DTD/sodipodi-0.dtd" xmlns="http://www.w3.org/2000/svg" xmlns:svg="http://www.w3.org/2000/svg"><defs id="defs138" /><sodipodi:namedview id="namedview136" pagecolor="#ffffff" bordercolor="#666666" borderopacity="1.0" inkscape:showpageshadow="2" inkscape:pageopacity="0.0" inkscape:pagecheckerboard="true" inkscape:deskcolor="#d1d1d1" showgrid="true" inkscape:zoom="21.575" inkscape:cx="11.123986" inkscape:cy="15.249131" inkscape:window-width="2154" inkscape:window-height="1206" inkscape:window-x="0" inkscape:window-y="0" inkscape:window-maximized="1" inkscape:current-layer="svg134"><inkscape:grid type="xygrid" id="grid244" originx="-0.46875" originy="-0.78125" spacingy="1" spacingx="1" units="px" /></sodipodi:namedview>
  <path d="M 2.8125,0.46875 C 1.7187511,0.46875 1.09375,1.4074713 1.09375,2.03125 H 0.46875 V 5.15625 H 5.15625 V 2.03125 H 4.53125 C 4.53125,1.4062506 3.9062489,0.46875 2.8125,0.46875 Z M 2.8039551,0.9375 L 3.1134033,1.4849854 L 3.7329102,1.484375 L 3.4228516,2.0318604 L 3.7335205,2.578125 L 3.1140137,2.5775146 L 2.8039551,3.125 L 2.4945068,2.5775146 L 1.875,2.578125 L 2.1850586,2.0306396 L 1.8743896,1.484375 L 2.4938965,1.4849854 Z M 2.8039551,1.3165283 L 2.7087402,1.4849854 H 2.8991699 Z M 2.1966553,1.6741943 L 2.2918701,1.842041 L 2.387085,1.6741943 Z M 2.6019287,1.6741943 L 2.399292,2.03125 L 2.6019287,2.3883057 H 3.0059814 L 3.2086182,2.03125 L 3.0059814,1.6741943 Z M 3.2208252,1.6741943 L 3.31604,1.8426514 L 3.4112549,1.6741943 Z M 2.2918701,2.2198486 L 2.1966553,2.3883057 H 2.387085 Z M 3.31604,2.220459 L 3.2208252,2.3883057 H 3.4112549 Z M 2.7087402,2.5775146 L 2.8039551,2.7459717 L 2.8991699,2.5775146 Z M 2.8125,3.2813403 C 3.2012448,3.2813403 3.28125,3.6046495 3.28125,3.78427 V 4.8449707 L 2.34375,4.84375 V 3.7830493 C 2.34375,3.5967873 2.4237552,3.2813403 2.8125,3.2813403 Z M 1.40625,3.28073 C 1.7949948,3.28073 1.875,3.6040391 1.875,3.7836597 V 4.8443603 L 0.9375,4.8431397 V 3.7824389 C 0.9375,3.5961769 1.0175052,3.28073 1.40625,3.28073 Z M 4.21875,3.28073 C 4.6074948,3.28073 4.6875,3.6040391 4.6875,3.7836597 V 4.8443603 L 3.75,4.8431397 V 3.7824389 C 3.75,3.5961769 3.8300052,3.28073 4.21875,3.28073 Z" id="path10474" sodipodi:nodetypes="sccccccsccccccccccccccccccccccccccccccccccccccccccccssccssssccssssccss" style="stroke:#ffffff;stroke-width:0.9375;stroke-linecap:round;stroke-linejoin:round;stroke-dasharray:none;stroke-opacity:0.5;paint-order:stroke fill markers" />
</svg>
