<?xml version="1.0" encoding="UTF-8" standalone="no"?>
<svg width="17" height="17" version="1.1" id="svg2" sodipodi:docname="taxi.svg" inkscape:version="1.4.2 (ebf0e940d0, 2025-05-08)" xmlns:inkscape="http://www.inkscape.org/namespaces/inkscape" xmlns:sodipodi="http://sodipodi.sourceforge.net/DTD/sodipodi-0.dtd" xmlns="http://www.w3.org/2000/svg" xmlns:svg="http://www.w3.org/2000/svg">
  <defs id="defs2" />
  <sodipodi:namedview id="namedview2" pagecolor="#ffffff" bordercolor="#666666" borderopacity="1.0" inkscape:showpageshadow="2" inkscape:pageopacity="0.0" inkscape:pagecheckerboard="true" inkscape:deskcolor="#d1d1d1" showgrid="true" inkscape:zoom="26.213459" inkscape:cx="4.4633561" inkscape:cy="10.185607" inkscape:window-width="2154" inkscape:window-height="1206" inkscape:window-x="0" inkscape:window-y="0" inkscape:window-maximized="1" inkscape:current-layer="svg2">
    <inkscape:grid id="grid2" units="px" originx="0" originy="0" spacingx="1" spacingy="1" empcolor="#0000ff" empopacity="0.25098039" color="#0000ff" opacity="0.1254902" empspacing="5" enabled="true" visible="true" />
  </sodipodi:namedview>
  <path d="M 7.469,1.5 C 6.929,1.5 6.5,1.988 6.5,2.5 L 6.469,3.5 H 4.5 L 3.25,7.5 C 2.49,7.5 1.5,7.997 1.5,9.5 V 13.5 H 3.5 V 14.5 C 3.5,14.5 3.5,15.5 4.5,15.5 C 5.5,15.5 5.5,14.5 5.5,14.5 V 13.5 L 11.5,13.469 V 14.5 C 11.5,14.5 11.5,15.5 12.5,15.5 C 13.5,15.5 13.5,14.5 13.5,14.5 V 13.5 H 15.5 V 9.5 C 15.5,7.973 14.5,7.5 13.5,7.5 L 12.5,3.5 H 10.5 V 2.5 C 10.5,1.934 10.066,1.5 9.5,1.5 Z M 7.5,2.5 H 9.5 V 3.5 H 7.5 Z M 5.5,5 H 11.5 L 12.094,7.5 H 4.813 Z M 4.5,9.5 A 1,1 0 1 1 4.5,11.5 A 1,1 0 0 1 4.5,9.5 Z M 12.5,9.5 A 1,1 0 1 1 12.5,11.5 A 1,1 0 0 1 12.5,9.5 Z" id="path2" style="stroke:#ffffff;stroke-width:3;stroke-linecap:round;stroke-linejoin:round;stroke-dasharray:none;stroke-opacity:0.5;paint-order:stroke fill markers" />
</svg>
