<?xml version="1.0" encoding="UTF-8" standalone="no"?>
<svg version="1.0" width="16.000595" height="15.904339" id="svg2" sodipodi:docname="tennis.svg" inkscape:version="1.4.2 (ebf0e940d0, 2025-05-08)" xmlns:inkscape="http://www.inkscape.org/namespaces/inkscape" xmlns:sodipodi="http://sodipodi.sourceforge.net/DTD/sodipodi-0.dtd" xmlns="http://www.w3.org/2000/svg" xmlns:svg="http://www.w3.org/2000/svg">
  <defs id="defs2" />
  <sodipodi:namedview id="namedview2" pagecolor="#ffffff" bordercolor="#666666" borderopacity="1.0" inkscape:showpageshadow="2" inkscape:pageopacity="0.0" inkscape:pagecheckerboard="true" inkscape:deskcolor="#d1d1d1" showgrid="true" inkscape:zoom="64.875" inkscape:cx="8" inkscape:cy="8" inkscape:window-width="2154" inkscape:window-height="1206" inkscape:window-x="0" inkscape:window-y="0" inkscape:window-maximized="1" inkscape:current-layer="svg2">
    <inkscape:grid id="grid2" units="px" originx="0" originy="0" spacingx="1" spacingy="1" empcolor="#0000ff" empopacity="0.25098039" color="#0000ff" opacity="0.1254902" empspacing="5" enabled="true" visible="true" />
  </sodipodi:namedview>
  <path id="path2" style="fill:#000000;fill-opacity:1;stroke:#ffffff;stroke-width:3;stroke-linecap:round;stroke-linejoin:round;stroke-dasharray:none;stroke-opacity:0.5;paint-order:stroke fill markers" d="M 8.1196126,3.054631 C 6.3706126,1.309631 3.9426126,0.95263103 2.4606126,2.385631 C 0.8456126,3.947631 1.3826126,6.289631 3.1306126,8.034631 C 4.4986126,9.400631 6.1326126,10.097631 7.6076126,9.504631 A 9.87,9.87 0 0 1 10.237613,10.872631 A 0.488,0.488 0 0 0 10.370613,11.320631 L 13.327613,14.270631 A 0.49,0.49 0 0 0 14.019613,14.270631 L 14.366613,13.925631 A 0.489,0.489 0 0 0 14.366613,13.233631 L 11.410613,10.283631 A 0.49,0.49 0 0 0 10.961613,10.150631 A 9.844,9.844 0 0 1 9.5906126,7.516631 C 10.167613,6.052631 9.4836126,4.415631 8.1206126,3.054631 Z M 10.042613,9.954631 A 18.475,18.475 0 0 0 8.2346126,9.092631 A 7.148,7.148 0 0 0 9.1786126,8.149631 C 9.4036126,8.692631 9.6886126,9.306631 10.042613,9.954631 Z M 6.0626124,12.634631 A 1.651,1.648 0 0 1 4.4116124,14.282631 A 1.651,1.648 0 0 1 2.7606124,12.634631 A 1.651,1.648 0 0 1 4.4116124,10.986631 A 1.651,1.648 0 0 1 6.0626124,12.634631 Z" />
</svg>
