<svg version="1.0" width="16.000595" height="15.904339"
  xmlns="http://www.w3.org/2000/svg" xmlns:svg="http://www.w3.org/2000/svg">


  <path
    d="M 8.1196126,3.054631 C 6.3706126,1.309631 3.9426126,0.95263103 2.4606126,2.385631 C 0.8456126,3.947631 1.3826126,6.289631 3.1306126,8.034631 C 4.4986126,9.400631 6.1326126,10.097631 7.6076126,9.504631 A 9.87,9.87 0 0 1 10.237613,10.872631 A 0.488,0.488 0 0 0 10.370613,11.320631 L 13.327613,14.270631 A 0.49,0.49 0 0 0 14.019613,14.270631 L 14.366613,13.925631 A 0.489,0.489 0 0 0 14.366613,13.233631 L 11.410613,10.283631 A 0.49,0.49 0 0 0 10.961613,10.150631 A 9.844,9.844 0 0 1 9.5906126,7.516631 C 10.167613,6.052631 9.4836126,4.415631 8.1206126,3.054631 Z M 10.042613,9.954631 A 18.475,18.475 0 0 0 8.2346126,9.092631 A 7.148,7.148 0 0 0 9.1786126,8.149631 C 9.4036126,8.692631 9.6886126,9.306631 10.042613,9.954631 Z M 6.0626124,12.634631 A 1.651,1.648 0 0 1 4.4116124,14.282631 A 1.651,1.648 0 0 1 2.7606124,12.634631 A 1.651,1.648 0 0 1 4.4116124,10.986631 A 1.651,1.648 0 0 1 6.0626124,12.634631 Z" />
</svg>
