<?xml version="1.0" encoding="UTF-8" standalone="no"?>
<svg width="17.000134" height="16.999922" version="1.1" id="svg2" sodipodi:docname="theatre.svg" inkscape:version="1.4.2 (ebf0e940d0, 2025-05-08)" xmlns:inkscape="http://www.inkscape.org/namespaces/inkscape" xmlns:sodipodi="http://sodipodi.sourceforge.net/DTD/sodipodi-0.dtd" xmlns="http://www.w3.org/2000/svg" xmlns:svg="http://www.w3.org/2000/svg">
  <defs id="defs2" />
  <sodipodi:namedview id="namedview2" pagecolor="#ffffff" bordercolor="#666666" borderopacity="1.0" inkscape:showpageshadow="2" inkscape:pageopacity="0.0" inkscape:pagecheckerboard="true" inkscape:deskcolor="#d1d1d1" showgrid="true" inkscape:zoom="37.071429" inkscape:cx="6.5549133" inkscape:cy="8.7129094" inkscape:window-width="2154" inkscape:window-height="1206" inkscape:window-x="0" inkscape:window-y="0" inkscape:window-maximized="1" inkscape:current-layer="svg2">
    <inkscape:grid id="grid2" units="px" originx="0" originy="0" spacingx="1" spacingy="1" empcolor="#0000ff" empopacity="0.25098039" color="#0000ff" opacity="0.1254902" empspacing="5" enabled="true" visible="true" />
  </sodipodi:namedview>
  <path d="M 1.5000667,1.4999212 V 8.4999212 C 1.5000667,8.4999212 1.5000667,12.499921 5.5000667,12.499921 C 5.9880667,12.499921 6.4050667,12.416921 6.7810667,12.311921 C 6.7230667,11.829921 6.7500667,11.499921 6.7500667,11.499921 V 11.280921 C 6.4070667,11.414921 5.9900667,11.499921 5.5000667,11.499921 C 2.5000667,11.499921 2.5000667,8.4999212 2.5000667,8.4999212 V 2.9999212 C 4.5000667,3.9519212 6.5000667,3.9519212 8.5000667,2.9999212 V 4.1559212 C 8.8340667,4.2889212 9.1770667,4.4139212 9.5000667,4.4999212 V 1.4999212 C 6.5000667,2.8729212 4.5000667,2.8049212 1.5000667,1.4999212 Z M 4.0000667,4.4999212 A 1,1 0 1 0 4.0000667,6.4999212 A 1,1 0 0 0 4.0000667,4.4999212 Z M 7.5000667,4.4999212 V 11.499921 C 7.5000667,11.499921 7.5000667,15.499921 11.500067,15.499921 C 15.500067,15.499921 15.500067,11.499921 15.500067,11.499921 V 4.4999212 C 12.500067,5.8729212 10.500067,5.8049212 7.5000667,4.4999212 Z M 10.000067,7.4999212 A 1,1 0 1 1 10.000067,9.4999212 A 1,1 0 0 1 10.000067,7.4999212 Z M 13.000067,7.4999212 A 1,1 0 1 1 13.000067,9.4999212 A 1,1 0 0 1 13.000067,7.4999212 Z M 5.5000667,7.9999212 C 4.0380667,7.9999212 3.5000667,9.0169212 3.5000667,9.9999212 H 6.7500667 V 8.3439212 C 6.4460667,8.1219212 6.0460667,7.9999212 5.5000667,7.9999212 Z M 9.5000667,11.499921 H 13.500067 C 13.500067,12.499921 12.500067,13.499921 11.500067,13.499921 C 10.500067,13.499921 9.5000667,12.499921 9.5000667,11.499921 Z" id="path2" style="stroke:#ffffff;stroke-width:3;stroke-linecap:round;stroke-linejoin:round;stroke-dasharray:none;stroke-opacity:0.5;paint-order:stroke fill markers" />
</svg>
