<?xml version="1.0" encoding="UTF-8" standalone="no"?>
<svg width="17" height="17" version="1.1" id="svg2" sodipodi:docname="toilets.svg" inkscape:version="1.4.2 (ebf0e940d0, 2025-05-08)" xmlns:inkscape="http://www.inkscape.org/namespaces/inkscape" xmlns:sodipodi="http://sodipodi.sourceforge.net/DTD/sodipodi-0.dtd" xmlns="http://www.w3.org/2000/svg" xmlns:svg="http://www.w3.org/2000/svg">
  <defs id="defs2" />
  <sodipodi:namedview id="namedview2" pagecolor="#ffffff" bordercolor="#666666" borderopacity="1.0" inkscape:showpageshadow="2" inkscape:pageopacity="0.0" inkscape:pagecheckerboard="true" inkscape:deskcolor="#d1d1d1" showgrid="true" inkscape:zoom="37.071429" inkscape:cx="6.8786127" inkscape:cy="9.1714836" inkscape:window-width="2154" inkscape:window-height="1206" inkscape:window-x="0" inkscape:window-y="0" inkscape:window-maximized="1" inkscape:current-layer="svg2">
    <inkscape:grid id="grid2" units="px" originx="0" originy="0" spacingx="1" spacingy="1" empcolor="#0000ff" empopacity="0.25098039" color="#0000ff" opacity="0.1254902" empspacing="5" enabled="true" visible="true" />
  </sodipodi:namedview>
  <path d="M 7.75,1.5 V 15.5 H 9.25 V 1.5 Z M 4,2.5 A 1.5,1.5 0 1 0 4,5.5 A 1.5,1.5 0 0 0 4,2.5 Z M 13,2.5 A 1.5,1.5 0 1 0 13,5.5 A 1.5,1.5 0 0 0 13,2.5 Z M 3,6.5 C 2.4,6.5 2,7.069 2,7.5 C 2,8.027 3.25,8.997 3.25,9.5 C 3.25,10.056 1.5,10.5 1.5,12.5 H 3.25 V 15.5 H 4.75 V 12.5 H 6.5 C 6.5,10.5 4.75,10.03 4.75,9.5 C 4.75,8.97 6,8.051 6,7.5 C 6,7.093 5.575,6.5 5,6.5 Z M 11.5,6.5 C 10.973,6.5 10.5,6.98 10.5,7.5 C 10.5,8.5 12.25,11.516 12.25,12.5 V 15.5 H 13.75 V 12.5 C 13.75,11.536 15.5,8.5 15.5,7.5 A 1,1 0 0 0 14.5,6.5 Z" id="path2" style="stroke:#ffffff;stroke-width:3;stroke-linecap:round;stroke-linejoin:round;stroke-dasharray:none;stroke-opacity:0.5;paint-order:stroke fill markers" />
</svg>
