<svg height="16.99992" width="15.422245" version="1.1"
  xmlns="http://www.w3.org/2000/svg" xmlns:svg="http://www.w3.org/2000/svg">


  <path
    d="M 4.6215241,1.4999198 C 2.8017507,2.3032154 1.5,4.1219589 1.5,6.2311247 C 1.5,8.3402904 2.8017507,10.159034 4.6215241,10.96233 V 9.7718043 C 3.3898043,9.0601668 2.5617919,7.7625356 2.5617919,6.2311247 C 2.5617919,4.6986839 3.3898043,3.4020825 4.6215241,2.690445 V 1.5009497 Z M 10.800721,1.4999198 V 2.690445 C 12.032441,3.4020825 12.860453,4.6986839 12.860453,6.2311247 C 12.860453,7.7635654 12.032441,9.0601668 10.800721,9.7718043 V 10.96233 C 12.620494,10.159034 13.922245,8.3402904 13.922245,6.2311247 C 13.922245,4.1219589 12.620494,2.3032154 10.800721,1.4999198 Z M 5.6513902,3.3341113 C 4.4598352,3.7635655 3.591658,4.8964182 3.591658,6.2311247 C 3.591658,7.566861 4.4598352,8.6986838 5.6513902,9.128138 V 8.0004346 A 2.0288362,2.0288362 0 0 1 4.6215241,6.2311247 C 4.6215241,5.4649043 5.0365602,4.8160886 5.6513902,4.4607848 Z M 9.7708546,3.3341113 V 4.4607848 C 10.385685,4.8160886 10.800721,5.4649043 10.800721,6.2311247 C 10.800721,6.997345 10.385685,7.6461607 9.7708546,8.0014645 V 9.1271081 C 10.96241,8.6986838 11.830587,7.566861 11.830587,6.2311247 C 11.830587,4.8953883 10.96241,3.7635655 9.7708546,3.3341113 Z M 7.7111224,5.2012586 C 7.0952625,5.2012586 6.6812563,5.6852956 6.6812563,6.2311247 V 10.350589 L 3.7080329,15.49992 H 4.8975282 L 6.6812563,12.410321 V 15.49992 H 8.7409885 V 12.410321 L 10.524717,15.49992 H 11.714212 L 8.7409885,10.350589 V 6.2311247 C 8.7409885,5.7203111 8.3269824,5.2012586 7.7111224,5.2012586 Z"
  />
</svg>
