<?xml version="1.0" encoding="UTF-8" standalone="no"?>
<svg height="16.999962" width="11" version="1.1" id="svg2" sodipodi:docname="tower_bell_tower.svg" inkscape:version="1.4.2 (ebf0e940d0, 2025-05-08)" xmlns:inkscape="http://www.inkscape.org/namespaces/inkscape" xmlns:sodipodi="http://sodipodi.sourceforge.net/DTD/sodipodi-0.dtd" xmlns="http://www.w3.org/2000/svg" xmlns:svg="http://www.w3.org/2000/svg">
  <defs id="defs2" />
  <sodipodi:namedview id="namedview2" pagecolor="#ffffff" bordercolor="#666666" borderopacity="1.0" inkscape:showpageshadow="2" inkscape:pageopacity="0.0" inkscape:pagecheckerboard="true" inkscape:deskcolor="#d1d1d1" showgrid="true" inkscape:zoom="37.071429" inkscape:cx="0.75529865" inkscape:cy="10.870906" inkscape:window-width="2154" inkscape:window-height="1206" inkscape:window-x="0" inkscape:window-y="0" inkscape:window-maximized="1" inkscape:current-layer="svg2">
    <inkscape:grid id="grid2" units="px" originx="0" originy="0" spacingx="1" spacingy="1" empcolor="#0000ff" empopacity="0.25098039" color="#0000ff" opacity="0.1254902" empspacing="5" enabled="true" visible="true" />
  </sodipodi:namedview>
  <path d="M 5.5,1.4999625 L 1.5,4.4999625 V 15.499963 H 2.5 V 7.4999625 A 3,3 0 0 1 5.5,4.4999625 A 3,3 0 0 1 8.5,7.4999625 V 15.499963 H 9.5 V 4.4999625 Z M 5.143,5.9999625 C 3.67,7.0989625 4.126,7.6169625 3.625,9.5299625 C 3.527,9.6299625 3,9.9519625 3,10.259963 V 10.499963 H 8 V 10.259963 C 8.007,9.9519625 7.428,9.6299625 7.33,9.5299625 C 6.837,7.6469625 7.261,6.8429625 5.857,5.9999625 Z M 5.5,11.249963 A 0.75,0.75 0 0 0 4.75,11.999963 A 0.75,0.75 0 0 0 5.5,12.749963 A 0.75,0.75 0 0 0 6.25,11.999963 A 0.75,0.75 0 0 0 5.5,11.249963 Z" style="opacity:1;fill:#000000;fill-opacity:1;fill-rule:evenodd;stroke:#ffffff;stroke-width:3;stroke-linecap:round;stroke-linejoin:round;stroke-miterlimit:4;stroke-dasharray:none;stroke-opacity:0.5;paint-order:stroke fill markers" id="path2" />
</svg>
