<?xml version="1.0" encoding="UTF-8" standalone="no"?>
<svg height="16.460804" width="17.072996" version="1.1" id="svg2" sodipodi:docname="water_park.svg" inkscape:version="1.4.2 (ebf0e940d0, 2025-05-08)" xmlns:inkscape="http://www.inkscape.org/namespaces/inkscape" xmlns:sodipodi="http://sodipodi.sourceforge.net/DTD/sodipodi-0.dtd" xmlns="http://www.w3.org/2000/svg" xmlns:svg="http://www.w3.org/2000/svg">
  <defs id="defs2" />
  <sodipodi:namedview id="namedview2" pagecolor="#ffffff" bordercolor="#666666" borderopacity="1.0" inkscape:showpageshadow="2" inkscape:pageopacity="0.0" inkscape:pagecheckerboard="true" inkscape:deskcolor="#d1d1d1" showgrid="true" inkscape:zoom="26.213459" inkscape:cx="2.2889006" inkscape:cy="12.016728" inkscape:window-width="2154" inkscape:window-height="1206" inkscape:window-x="0" inkscape:window-y="0" inkscape:window-maximized="1" inkscape:current-layer="svg2">
    <inkscape:grid id="grid2" units="px" originx="1.4959981" originy="0.96080476" spacingx="1" spacingy="1" empcolor="#0000ff" empopacity="0.25098039" color="#0000ff" opacity="0.1254902" empspacing="5" enabled="true" visible="true" />
  </sodipodi:namedview>
  <path d="M 10.203998,1.5028048 A 0.878,0.878 0 0 0 9.8289981,1.6278048 L 5.7879981,3.7938048 C 5.2749981,4.0368048 5.0749981,4.7968048 5.4129981,5.2528048 L 6.4959981,6.9608048 L 1.8289981,9.6278048 L 1.8709981,10.460805 C 1.8709981,10.460805 2.4949981,9.9608048 3.1629981,9.9608048 C 3.7939981,9.9608048 5.0599981,10.960805 5.8289981,10.960805 C 6.4999981,10.960805 7.8239981,9.9608048 8.4959981,9.9608048 C 9.1959981,9.9608048 10.463998,10.960805 11.162998,10.960805 H 11.620998 L 7.8289981,4.9608048 L 10.620998,3.5028048 C 11.217998,3.1578048 11.410998,2.5588048 11.162998,2.1278048 C 10.932998,1.7298048 10.579998,1.4728048 10.203998,1.5028048 Z M 12.495998,4.9608048 A 2,2 0 1 0 12.495998,8.9608048 A 2,2 0 0 0 12.495998,4.9608048 Z M 3.1629981,11.960805 C 2.7339981,11.960805 2.0999981,12.323805 1.5159981,12.611805 L 1.4999981,14.638805 C 2.1129981,14.345805 2.7699981,13.960805 3.1629981,13.960805 C 3.8349981,13.960805 5.1169981,14.960805 5.8289981,14.960805 C 6.4629981,14.960805 7.8189981,13.960805 8.4959981,13.960805 C 9.1679981,13.960805 10.524998,14.960805 11.162998,14.960805 C 11.834998,14.960805 13.196998,13.960805 13.828998,13.960805 C 14.224998,13.960805 14.906998,14.352805 15.525998,14.645805 L 15.572998,12.621805 C 14.969998,12.321805 14.267998,11.936805 13.828998,11.960805 C 13.191998,11.960805 11.875998,12.960805 11.162998,12.960805 C 10.568998,12.960805 9.1679981,11.960805 8.4959981,11.960805 C 7.8239981,11.960805 6.4239981,12.960805 5.8289981,12.960805 C 5.1949981,12.960805 3.8749981,11.960805 3.1629981,11.960805 Z" id="path2" style="stroke:#ffffff;stroke-width:3;stroke-linecap:round;stroke-linejoin:round;stroke-dasharray:none;stroke-opacity:0.5;paint-order:stroke fill markers" />
</svg>
