<svg version="1.0" width="19" height="14.009"
  xmlns="http://www.w3.org/2000/svg" xmlns:svg="http://www.w3.org/2000/svg">


  <path
    d="M 3.611,1.5 C 2.896,1.516 2.227,2.003 1.537,2 C 1.53,1.998 1.524,1.996 1.517,1.996 V 3.45 C 2.224,3.446 2.907,2.936 3.643,2.951 C 4.387,2.973 5.193,3.513 5.922,3.551 C 6.642,3.571 7.398,3.096 7.926,3.092 C 8.211,3.09 8.42,3.197 8.604,3.307 C 8.71,3.405 8.821,3.517 8.937,3.653 C 9.112,4.24 8.993,5.069 9.205,5.729 C 9.436,6.377 9.568,6.648 9.799,7.312 C 9.809,7.344 9.978,7.767 10.033,7.916 H 10.025 V 9.368 L 10.065,9.37 C 10.736,9.395 11.429,8.951 12.148,8.986 C 12.858,9.016 13.568,9.542 14.293,9.56 C 15.005,9.564 15.692,9.048 16.433,9.063 C 16.78,9.072 17.14,9.196 17.5,9.329 V 7.864 C 17.153,7.737 16.807,7.622 16.473,7.612 C 15.731,7.596 15.043,8.117 14.33,8.113 C 13.606,8.095 12.895,7.568 12.186,7.536 A 1.582,1.582 0 0 0 12.055,7.534 A 2.596,2.596 0 0 0 11.479,7.624 A 4.279,4.279 0 0 0 11.354,7.172 C 11.123,6.508 10.754,5.936 10.524,5.288 C 10.311,4.628 10.6,3.869 10.426,3.282 C 10.327,2.917 10.176,2.672 10.01,2.502 C 9.976,2.425 9.822,2.285 9.432,2.038 C 8.988,1.71 8.478,1.635 7.962,1.645 C 7.436,1.65 6.679,2.122 5.96,2.101 C 5.229,2.064 4.424,1.521 3.679,1.5 Z M 12.298,10.473 C 11.603,10.463 10.93,10.884 10.279,10.86 A 1.38,1.38 0 0 1 10.203,10.854 V 12.307 L 10.242,12.311 C 10.914,12.335 11.608,11.89 12.327,11.924 C 13.037,11.955 13.746,12.482 14.47,12.5 C 15.182,12.504 15.87,11.985 16.612,12 C 16.902,12.008 17.2,12.096 17.5,12.202 V 10.74 C 17.213,10.641 16.928,10.56 16.65,10.552 C 15.909,10.537 15.22,11.057 14.508,11.053 C 13.783,11.035 13.074,10.509 12.365,10.478 L 12.298,10.474 Z M 4.601,5.46 C 3.969,5.457 2.313,5.48 1.5,5.5 V 12.509 H 8.756 C 8.277,5.377 8.521,4.681 4.601,5.459 Z" />
  <path
    style="fill:#000001;stroke:none;stroke-width:11.0405;stroke-linejoin:round;stroke-miterlimit:4;stroke-opacity:1"
    d="M 4.601,5.46 C 3.969,5.457 2.313,5.48 1.5,5.5 V 12.509 H 8.756 C 8.277,5.377 8.521,4.681 4.601,5.459 Z"
  />
  <path style="fill:#0064ff;fill-rule:evenodd;stroke-width:0.999999"
    d="M 3.611,1.5 C 2.896,1.516 2.227,2.003 1.537,2 C 1.53,1.998 1.524,1.996 1.517,1.996 V 3.45 C 2.224,3.446 2.907,2.936 3.643,2.951 C 4.387,2.973 5.193,3.513 5.922,3.551 C 6.642,3.571 7.398,3.096 7.926,3.092 C 8.211,3.09 8.42,3.197 8.604,3.307 C 8.71,3.405 8.821,3.517 8.937,3.653 C 9.112,4.24 8.993,5.069 9.205,5.729 C 9.436,6.377 9.568,6.648 9.799,7.312 C 9.809,7.344 9.978,7.767 10.033,7.916 H 10.025 V 9.368 L 10.065,9.37 C 10.736,9.395 11.429,8.951 12.148,8.986 C 12.858,9.016 13.568,9.542 14.293,9.56 C 15.005,9.564 15.692,9.048 16.433,9.063 C 16.78,9.072 17.14,9.196 17.5,9.329 V 7.864 C 17.153,7.737 16.807,7.622 16.473,7.612 C 15.731,7.596 15.043,8.117 14.33,8.113 C 13.606,8.095 12.895,7.568 12.186,7.536 A 1.582,1.582 0 0 0 12.055,7.534 A 2.596,2.596 0 0 0 11.479,7.624 A 4.279,4.279 0 0 0 11.354,7.172 C 11.123,6.508 10.754,5.936 10.524,5.288 C 10.311,4.628 10.6,3.869 10.426,3.282 C 10.327,2.917 10.176,2.672 10.01,2.502 C 9.976,2.425 9.822,2.285 9.432,2.038 C 8.988,1.71 8.478,1.635 7.962,1.645 C 7.436,1.65 6.679,2.122 5.96,2.101 C 5.229,2.064 4.424,1.521 3.679,1.5 Z M 12.298,10.473 C 11.603,10.463 10.93,10.884 10.279,10.86 A 1.38,1.38 0 0 1 10.203,10.854 V 12.307 L 10.242,12.311 C 10.914,12.335 11.608,11.89 12.327,11.924 C 13.037,11.955 13.746,12.482 14.47,12.5 C 15.182,12.504 15.87,11.985 16.612,12 C 16.902,12.008 17.2,12.096 17.5,12.202 V 10.74 C 17.213,10.641 16.928,10.56 16.65,10.552 C 15.909,10.537 15.22,11.057 14.508,11.053 C 13.783,11.035 13.074,10.509 12.365,10.478 L 12.298,10.474 Z"
  />
</svg>
