<?xml version="1.0" encoding="UTF-8" standalone="no"?>
<svg width="17" height="17" version="1.1" id="svg2" sodipodi:docname="wilderness_hut.svg" inkscape:version="1.4.2 (ebf0e940d0, 2025-05-08)" xmlns:inkscape="http://www.inkscape.org/namespaces/inkscape" xmlns:sodipodi="http://sodipodi.sourceforge.net/DTD/sodipodi-0.dtd" xmlns="http://www.w3.org/2000/svg" xmlns:svg="http://www.w3.org/2000/svg">
  <defs id="defs2" />
  <sodipodi:namedview id="namedview2" pagecolor="#ffffff" bordercolor="#666666" borderopacity="1.0" inkscape:showpageshadow="2" inkscape:pageopacity="0.0" inkscape:pagecheckerboard="true" inkscape:deskcolor="#d1d1d1" inkscape:zoom="37.214286" inkscape:cx="1.0211132" inkscape:cy="6.3416506" inkscape:window-width="2154" inkscape:window-height="1206" inkscape:window-x="0" inkscape:window-y="0" inkscape:window-maximized="1" inkscape:current-layer="svg2" showgrid="true">
    <inkscape:grid id="grid1" units="px" originx="0" originy="0" spacingx="1" spacingy="1" empcolor="#0000ff" empopacity="0.25098039" color="#0000ff" opacity="0.1254902" empspacing="5" enabled="true" visible="true" />
  </sodipodi:namedview>
  <path d="M 9.5,1.5 V 3.5 L 8.5,3 L 1.5,6.5 V 8.5 L 3,7.85 V 15.5 H 4.5 V 7.2 L 8.5,5.5 L 9.5,5.926 V 10.5 H 6 C 6.025,12.152 5.966,13.89 6,15.5 H 11 C 11.018,12.547 11.006,9.55 11,6.562 L 12.5,7.2 V 15.5 H 14 V 7.85 L 15.5,8.5 V 6.5 L 11,4.25 C 10.998,3.331 11,2.416 11,1.5 Z M 8.5,12.5 C 8.5,12.5 9.5,12.5 9.5,13.5 V 14.5 H 7.5 V 13.5 C 7.5,12.5 8.5,12.5 8.5,12.5 Z" id="path2" style="stroke:#ffffff;stroke-width:3;stroke-linecap:round;stroke-linejoin:round;stroke-dasharray:none;stroke-opacity:0.5;paint-order:stroke fill markers" />
</svg>
