<?xml version="1.0" encoding="UTF-8" standalone="no"?>
<svg xml:space="preserve" height="17" width="17" version="1.1" id="svg3" sodipodi:docname="apartment.svg" inkscape:version="1.4.2 (ebf0e940d0, 2025-05-08)" xmlns:inkscape="http://www.inkscape.org/namespaces/inkscape" xmlns:sodipodi="http://sodipodi.sourceforge.net/DTD/sodipodi-0.dtd" xmlns="http://www.w3.org/2000/svg" xmlns:svg="http://www.w3.org/2000/svg"><defs id="defs3" /><sodipodi:namedview id="namedview3" pagecolor="#ffffff" bordercolor="#666666" borderopacity="1.0" inkscape:showpageshadow="2" inkscape:pageopacity="0.0" inkscape:pagecheckerboard="true" inkscape:deskcolor="#d1d1d1" showgrid="true" inkscape:zoom="26.213459" inkscape:cx="-2.7466807" inkscape:cy="11.787838" inkscape:window-width="2154" inkscape:window-height="1206" inkscape:window-x="0" inkscape:window-y="0" inkscape:window-maximized="1" inkscape:current-layer="svg3"><inkscape:grid id="grid6" units="px" originx="0" originy="0" spacingx="1" spacingy="1" empcolor="#0000ff" empopacity="0.25098039" color="#0000ff" opacity="0.1254902" empspacing="5" enabled="true" visible="true" /></sodipodi:namedview>
  
  <path id="path6" style="opacity:1;fill:#808080;fill-opacity:1;stroke:#ffffff;stroke-width:3;stroke-linecap:round;stroke-linejoin:round;stroke-miterlimit:4;stroke-dasharray:none;stroke-opacity:0.5;paint-order:stroke fill markers" d="M 1.5,1.5 H 15.5 V 3.5 H 1.5 Z M 1.5,13.5 H 15.5 V 15.5 H 1.5 Z M 2,4.5 C 1.723,4.5 1.5,4.723 1.5,5 V 12.5 H 2.5 V 10.5 H 14.5 V 12.5 H 15.5 V 7 A 0.5,0.5 0 1 0 14.5,7 V 9.5 H 2.5 V 5 C 2.5,4.723 2.277,4.5 2,4.5 Z M 5,5.5 A 1.5,1.5 0 1 0 5,8.5 A 1.5,1.5 0 0 0 5,5.5 Z M 7.5,6.5 V 8.5 H 13.5 C 13.5,7.5 12.464,6.5 11.5,6.5 Z" /><path d="M 2,4.5 C 1.723,4.5 1.5,4.723 1.5,5 V 12.5 H 2.5 V 10.5 H 14.5 V 12.5 H 15.5 V 7 A 0.5,0.5 0 1 0 14.5,7 V 9.5 H 2.5 V 5 C 2.5,4.723 2.277,4.5 2,4.5 Z M 5,5.5 A 1.5,1.5 0 1 0 5,8.5 A 1.5,1.5 0 0 0 5,5.5 Z M 7.5,6.5 V 8.5 H 13.5 C 13.5,7.5 12.464,6.5 11.5,6.5 Z" id="path2" />
  <path style="opacity:1;fill:#808080;fill-opacity:1;stroke:none;stroke-width:0.0799067;stroke-linecap:square;stroke-miterlimit:4;stroke-dasharray:none;stroke-opacity:1;paint-order:markers stroke fill" d="M 1.5,1.5 H 15.5 V 3.5 H 1.5 Z M 1.5,13.5 H 15.5 V 15.5 H 1.5 Z" id="path3" />
</svg>
