<?xml version="1.0" encoding="UTF-8" standalone="no"?>
<svg width="11" height="17" version="1.1" id="svg2" sodipodi:docname="artwork.svg" inkscape:version="1.4.2 (ebf0e940d0, 2025-05-08)" xmlns:inkscape="http://www.inkscape.org/namespaces/inkscape" xmlns:sodipodi="http://sodipodi.sourceforge.net/DTD/sodipodi-0.dtd" xmlns="http://www.w3.org/2000/svg" xmlns:svg="http://www.w3.org/2000/svg">
  <defs id="defs2" />
  <sodipodi:namedview id="namedview2" pagecolor="#ffffff" bordercolor="#666666" borderopacity="1.0" inkscape:showpageshadow="2" inkscape:pageopacity="0.0" inkscape:pagecheckerboard="true" inkscape:deskcolor="#d1d1d1" showgrid="true" inkscape:zoom="74.142857" inkscape:cx="5.5028902" inkscape:cy="8.4971098" inkscape:window-width="2154" inkscape:window-height="1206" inkscape:window-x="0" inkscape:window-y="0" inkscape:window-maximized="1" inkscape:current-layer="svg2">
    <inkscape:grid id="grid2" units="px" originx="0" originy="0" spacingx="1" spacingy="1" empcolor="#0000ff" empopacity="0.25098039" color="#0000ff" opacity="0.1254902" empspacing="5" enabled="true" visible="true" />
  </sodipodi:namedview>
  <path d="M 2.5,1.5 L 3.5,3.5 H 4.5 L 3.5,5.5 L 4.5,7.5 L 3.5,9.5 L 4.5,11.5 L 3.5,13.5 H 7.5 L 6.5,11.5 L 7.5,9.5 L 6.5,7.5 L 7.5,5.5 L 6.5,3.5 H 7.5 L 8.5,1.5 Z M 5.5,4.5 A 1,1 0 0 1 6.5,5.5 A 1,1 0 0 1 5.5,6.5 A 1,1 0 0 1 4.5,5.5 A 1,1 0 0 1 5.5,4.5 Z M 5.5,8.5 A 1,1 0 0 1 6.5,9.5 A 1,1 0 0 1 5.5,10.5 A 1,1 0 0 1 4.5,9.5 A 1,1 0 0 1 5.5,8.5 Z M 1.5,14.5 V 15.5 H 9.5 V 14.5 Z" paint-order="markers stroke fill" id="path2" style="stroke:#ffffff;stroke-width:3;stroke-linecap:round;stroke-linejoin:round;stroke-dasharray:none;stroke-opacity:0.5;paint-order:stroke fill markers" />
</svg>
