<?xml version="1.0" encoding="UTF-8" standalone="no"?>
<svg width="17.031649" height="14.004435" version="1.1" id="svg2" sodipodi:docname="beehive.svg" inkscape:version="1.4.2 (ebf0e940d0, 2025-05-08)" xmlns:inkscape="http://www.inkscape.org/namespaces/inkscape" xmlns:sodipodi="http://sodipodi.sourceforge.net/DTD/sodipodi-0.dtd" xmlns="http://www.w3.org/2000/svg" xmlns:svg="http://www.w3.org/2000/svg">
  <defs id="defs2" />
  <sodipodi:namedview id="namedview2" pagecolor="#ffffff" bordercolor="#666666" borderopacity="1.0" inkscape:showpageshadow="2" inkscape:pageopacity="0.0" inkscape:pagecheckerboard="true" inkscape:deskcolor="#d1d1d1" inkscape:zoom="16.28125" inkscape:cx="-10.072937" inkscape:cy="8.7216891" inkscape:window-width="2154" inkscape:window-height="1206" inkscape:window-x="0" inkscape:window-y="0" inkscape:window-maximized="1" inkscape:current-layer="svg2" />
  <path d="M 6.3546499,1.5044345 A 0.998,0.998 0 0 0 5.3526499,2.5024345 A 0.999,0.999 0 0 0 6.3546499,3.5034345 H 10.77665 A 1.002,1.002 0 1 0 10.77665,1.5004345 H 6.3506499 Z M 4.0676499,4.5174345 A 1.002,1.002 0 1 0 4.0676499,6.5204345 H 12.99165 A 1.002,1.002 0 1 0 12.99165,4.5174345 H 4.0716499 Z M 2.9346499,7.5034345 A 1.002,1.002 0 1 0 2.9346499,9.5064345 H 14.19665 A 1.002,1.002 0 1 0 14.19665,7.5034345 H 2.9376499 Z M 2.5336499,10.497434 A 1.002,1.002 0 1 0 2.5336499,12.500434 C 4.0336499,12.496434 5.2696499,12.500434 6.5696499,12.500434 A 1.965,2.63 0 0 1 6.5666499,12.300434 A 1.965,2.63 0 0 1 7.0996499,10.497434 Z M 9.9606499,10.497434 A 1.965,2.63 0 0 1 10.49665,12.300434 A 1.965,2.63 0 0 1 10.48565,12.504434 H 14.52965 A 1.002,1.002 0 1 0 14.52965,10.500434 H 9.9566499 Z" fill="#030c25" id="path2" style="stroke:#ffffff;stroke-width:3;stroke-linecap:round;stroke-linejoin:round;stroke-dasharray:none;stroke-opacity:0.5;paint-order:stroke fill markers" />
</svg>
