<?xml version="1.0" encoding="UTF-8" standalone="no"?>
<!-- Uploaded to: SVG Repo, www.svgrepo.com, Generator: SVG Repo Mixer Tools -->

<svg fill="#000000" height="20" width="13.929539" version="1.2" id="Layer_1" viewBox="0 0 13.929539 20" xml:space="preserve" sodipodi:docname="church.svg" inkscape:version="1.4.2 (ebf0e940d0, 2025-05-08)" xmlns:inkscape="http://www.inkscape.org/namespaces/inkscape" xmlns:sodipodi="http://sodipodi.sourceforge.net/DTD/sodipodi-0.dtd" xmlns="http://www.w3.org/2000/svg" xmlns:svg="http://www.w3.org/2000/svg"><defs id="defs674" /><sodipodi:namedview id="namedview672" pagecolor="#ffffff" bordercolor="#666666" borderopacity="1.0" inkscape:showpageshadow="2" inkscape:pageopacity="0.0" inkscape:pagecheckerboard="true" inkscape:deskcolor="#d1d1d1" showgrid="true" inkscape:zoom="26.700352" inkscape:cx="2.8838571" inkscape:cy="13.520421" inkscape:window-width="2154" inkscape:window-height="1206" inkscape:window-x="0" inkscape:window-y="0" inkscape:window-maximized="1" inkscape:current-layer="Layer_1"><inkscape:grid type="xygrid" id="grid797" originx="0.5625" originy="1.1875" spacingy="1" spacingx="1" units="px" /></sodipodi:namedview>
<path id="path669" style="stroke:#ffffff;stroke-width:3;stroke-linecap:round;stroke-linejoin:round;stroke-dasharray:none;stroke-opacity:0.5;paint-order:stroke fill markers" d="M 9.4487558,1.5 V 3.3888889 H 7.4615669 V 4.3333333 H 9.4487558 V 6.2222222 L 7.4615669,9.0555558 V 11.888889 H 3.487189 L 1.5,13.777777 V 18.5 H 12.429539 V 13.777777 V 9.0555558 L 10.44235,6.2222222 V 4.3333333 H 12.429539 V 3.3888889 H 10.44235 V 1.5 Z M 4.4807834,14.722222 V 16.611112 H 3.5587615 V 14.722222 C 3.5587615,13.777777 4.4807834,13.777747 4.4807834,14.722222 Z M 7.4615669,14.722222 V 16.611112 H 6.5395449 V 14.722222 C 6.5395449,13.777777 7.4615669,13.777747 7.4615669,14.722222 Z M 10.44235,14.722222 V 16.611112 H 9.5203281 V 14.722222 C 9.5203281,13.777777 10.44235,13.777747 10.44235,14.722222 Z M 10.44235,9.9999999 V 10.944444 H 9.5203281 V 9.9999999 C 9.5203281,9.0555558 10.44235,9.0555244 10.44235,9.9999999 Z" sodipodi:nodetypes="cccccccccccccccccccccsccsssccsssccsssccss" />
</svg>
