<?xml version="1.0" encoding="UTF-8" standalone="no"?>
<svg height="16" width="17" version="1.1" id="svg2" sodipodi:docname="cinema.svg" inkscape:version="1.4.2 (ebf0e940d0, 2025-05-08)" xmlns:inkscape="http://www.inkscape.org/namespaces/inkscape" xmlns:sodipodi="http://sodipodi.sourceforge.net/DTD/sodipodi-0.dtd" xmlns="http://www.w3.org/2000/svg" xmlns:svg="http://www.w3.org/2000/svg">
  <defs id="defs2" />
  <sodipodi:namedview id="namedview2" pagecolor="#ffffff" bordercolor="#666666" borderopacity="1.0" inkscape:showpageshadow="2" inkscape:pageopacity="0.0" inkscape:pagecheckerboard="true" inkscape:deskcolor="#d1d1d1" showgrid="true" inkscape:zoom="74.142857" inkscape:cx="8.4971098" inkscape:cy="7.4990366" inkscape:window-width="2154" inkscape:window-height="1206" inkscape:window-x="0" inkscape:window-y="0" inkscape:window-maximized="1" inkscape:current-layer="svg2">
    <inkscape:grid id="grid2" units="px" originx="0" originy="0" spacingx="1" spacingy="1" empcolor="#0000ff" empopacity="0.25098039" color="#0000ff" opacity="0.1254902" empspacing="5" enabled="true" visible="true" />
  </sodipodi:namedview>
  <path d="M 2.5,1.5 C 1.946,1.5 1.5,1.946 1.5,2.5 V 13.5 C 1.5,14.054 1.946,14.5 2.5,14.5 H 14.5 C 15.054,14.5 15.5,14.054 15.5,13.5 V 2.5 C 15.5,1.946 15.054,1.5 14.5,1.5 Z M 2.75,2.5 H 3.25 A 0.25,0.25 0 0 1 3.5,2.75 V 3.25 A 0.25,0.25 0 0 1 3.25,3.5 H 2.75 A 0.25,0.25 0 0 1 2.5,3.25 V 2.75 A 0.25,0.25 0 0 1 2.75,2.5 Z M 5.5,2.5 H 11.5 V 7.5 H 5.5 Z M 13.75,2.5 H 14.25 A 0.25,0.25 0 0 1 14.5,2.75 V 3.25 A 0.25,0.25 0 0 1 14.25,3.5 H 13.75 A 0.25,0.25 0 0 1 13.5,3.25 V 2.75 A 0.25,0.25 0 0 1 13.75,2.5 Z M 2.75,4.5 H 3.25 A 0.25,0.25 0 0 1 3.5,4.75 V 5.25 A 0.25,0.25 0 0 1 3.25,5.5 H 2.75 A 0.25,0.25 0 0 1 2.5,5.25 V 4.75 A 0.25,0.25 0 0 1 2.75,4.5 Z M 13.75,4.5 H 14.25 A 0.25,0.25 0 0 1 14.5,4.75 V 5.25 A 0.25,0.25 0 0 1 14.25,5.5 H 13.75 A 0.25,0.25 0 0 1 13.5,5.25 V 4.75 A 0.25,0.25 0 0 1 13.75,4.5 Z M 2.75,6.5 H 3.25 A 0.25,0.25 0 0 1 3.5,6.75 V 7.25 A 0.25,0.25 0 0 1 3.25,7.5 H 2.75 A 0.25,0.25 0 0 1 2.5,7.25 V 6.75 A 0.25,0.25 0 0 1 2.75,6.5 Z M 13.75,6.5 H 14.25 A 0.25,0.25 0 0 1 14.5,6.75 V 7.25 A 0.25,0.25 0 0 1 14.25,7.5 H 13.75 A 0.25,0.25 0 0 1 13.5,7.25 V 6.75 A 0.25,0.25 0 0 1 13.75,6.5 Z M 2.75,8.5 H 3.25 A 0.25,0.25 0 0 1 3.5,8.75 V 9.25 A 0.25,0.25 0 0 1 3.25,9.5 H 2.75 A 0.25,0.25 0 0 1 2.5,9.25 V 8.75 A 0.25,0.25 0 0 1 2.75,8.5 Z M 5.5,8.5 H 11.5 V 13.5 H 5.5 Z M 13.75,8.5 H 14.25 A 0.25,0.25 0 0 1 14.5,8.75 V 9.25 A 0.25,0.25 0 0 1 14.25,9.5 H 13.75 A 0.25,0.25 0 0 1 13.5,9.25 V 8.75 A 0.25,0.25 0 0 1 13.75,8.5 Z M 2.75,10.5 H 3.25 A 0.25,0.25 0 0 1 3.5,10.75 V 11.25 A 0.25,0.25 0 0 1 3.25,11.5 H 2.75 A 0.25,0.25 0 0 1 2.5,11.25 V 10.75 A 0.25,0.25 0 0 1 2.75,10.5 Z M 13.75,10.5 H 14.25 A 0.25,0.25 0 0 1 14.5,10.75 V 11.25 A 0.25,0.25 0 0 1 14.25,11.5 H 13.75 A 0.25,0.25 0 0 1 13.5,11.25 V 10.75 A 0.25,0.25 0 0 1 13.75,10.5 Z M 2.75,12.5 H 3.25 A 0.25,0.25 0 0 1 3.5,12.75 V 13.25 A 0.25,0.25 0 0 1 3.25,13.5 H 2.75 A 0.25,0.25 0 0 1 2.5,13.25 V 12.75 A 0.25,0.25 0 0 1 2.75,12.5 Z M 13.75,12.5 H 14.25 A 0.25,0.25 0 0 1 14.5,12.75 V 13.25 A 0.25,0.25 0 0 1 14.25,13.5 H 13.75 A 0.25,0.25 0 0 1 13.5,13.25 V 12.75 A 0.25,0.25 0 0 1 13.75,12.5 Z" id="path2" style="stroke:#ffffff;stroke-width:3;stroke-linecap:round;stroke-linejoin:round;stroke-dasharray:none;stroke-opacity:0.5;paint-order:stroke fill markers" />
</svg>
