<?xml version="1.0" encoding="UTF-8" standalone="no"?>
<svg height="15" width="17" version="1.1" id="svg2" sodipodi:docname="community_centre.svg" inkscape:version="1.4.2 (ebf0e940d0, 2025-05-08)" xmlns:inkscape="http://www.inkscape.org/namespaces/inkscape" xmlns:sodipodi="http://sodipodi.sourceforge.net/DTD/sodipodi-0.dtd" xmlns="http://www.w3.org/2000/svg" xmlns:svg="http://www.w3.org/2000/svg">
  <defs id="defs2" />
  <sodipodi:namedview id="namedview2" pagecolor="#ffffff" bordercolor="#666666" borderopacity="1.0" inkscape:showpageshadow="2" inkscape:pageopacity="0.0" inkscape:pagecheckerboard="true" inkscape:deskcolor="#d1d1d1" showgrid="true" inkscape:zoom="26.213459" inkscape:cx="3.8529826" inkscape:cy="11.787838" inkscape:window-width="2154" inkscape:window-height="1206" inkscape:window-x="0" inkscape:window-y="0" inkscape:window-maximized="1" inkscape:current-layer="svg2">
    <inkscape:grid id="grid2" units="px" originx="0" originy="0" spacingx="1" spacingy="1" empcolor="#0000ff" empopacity="0.25098039" color="#0000ff" opacity="0.1254902" empspacing="5" enabled="true" visible="true" />
  </sodipodi:namedview>
  <path d="M 12.974,3 C 12.974,3.828 12.314,4.5 11.5,4.5 C 10.686,4.5 10.026,3.828 10.026,3 C 10.026,2.172 10.686,1.5 11.5,1.5 C 12.314,1.5 12.974,2.172 12.974,3 Z M 4.5,6.5 H 6.5 V 9.5 H 4.5 Z M 6.974,3 C 6.974,3.828 6.314,4.5 5.5,4.5 C 4.686,4.5 4.026,3.828 4.026,3 C 4.026,2.172 4.686,1.5 5.5,1.5 C 6.314,1.5 6.974,2.172 6.974,3 Z M 1.5,5.5 H 8.5 V 6.5 H 1.5 Z M 2.5,13.5 L 4.5,9.5 H 5.5 L 3.5,13.5 Z M 8.5,13.5 L 6.5,9.5 H 5.5 L 7.5,13.5 Z M 10.5,6.5 H 12.5 V 9.5 H 10.5 Z M 8.5,5.5 H 15.5 V 6.5 H 8.5 Z M 8.5,13.5 L 10.5,9.5 H 11.5 L 9.5,13.5 Z M 14.5,13.5 L 12.5,9.5 H 11.5 L 13.5,13.5 Z" fill-rule="evenodd" id="path2" style="stroke:#ffffff;stroke-width:3;stroke-linecap:round;stroke-linejoin:round;stroke-dasharray:none;stroke-opacity:0.5;paint-order:stroke fill markers" />
</svg>
