<?xml version="1.0" encoding="UTF-8" standalone="no"?>
<svg height="13.310214" width="15.999903" version="1.1" id="svg2" sodipodi:docname="convenience.svg" inkscape:version="1.4.2 (ebf0e940d0, 2025-05-08)" xmlns:inkscape="http://www.inkscape.org/namespaces/inkscape" xmlns:sodipodi="http://sodipodi.sourceforge.net/DTD/sodipodi-0.dtd" xmlns="http://www.w3.org/2000/svg" xmlns:svg="http://www.w3.org/2000/svg">
  <defs id="defs2" />
  <sodipodi:namedview id="namedview2" pagecolor="#ffffff" bordercolor="#666666" borderopacity="1.0" inkscape:showpageshadow="2" inkscape:pageopacity="0.0" inkscape:pagecheckerboard="true" inkscape:deskcolor="#d1d1d1" inkscape:zoom="37.071429" inkscape:cx="10.115607" inkscape:cy="9.2254335" inkscape:window-width="2154" inkscape:window-height="1206" inkscape:window-x="0" inkscape:window-y="0" inkscape:window-maximized="1" inkscape:current-layer="svg2" />
  <path d="M 9.8799512,1.5012144 A 0.474,0.474 0 0 0 9.3999512,1.8102144 L 7.4219512,4.8102144 H 1.4999512 L 3.4999512,11.810214 H 12.499951 L 14.499951,4.8102144 H 8.6269512 L 10.329951,2.2102144 C 10.496951,1.8232144 10.194951,1.5222144 9.8799512,1.5012144 Z M 2.7499512,5.8102144 H 4.4999512 V 6.8102144 H 3.0499512 Z M 4.9999512,5.8102144 H 6.4999512 V 6.8102144 H 4.9999512 Z M 6.9999512,5.8102144 H 8.9999512 V 6.8102144 H 6.9999512 Z M 9.4999512,5.8102144 H 10.999951 V 6.8102144 H 9.4999512 Z M 11.499951,5.8102144 H 13.249951 L 12.949951,6.8102144 H 11.499951 Z M 3.1999512,7.3102144 H 4.4999512 V 8.8102144 H 3.6499512 Z M 4.9999512,7.3102144 H 6.4999512 V 8.8102144 H 4.9999512 Z M 6.9999512,7.3102144 H 8.9999512 V 8.8102144 H 6.9999512 Z M 9.4999512,7.3102144 H 10.999951 V 8.8102144 H 9.4999512 Z M 11.499951,7.3102144 H 12.799951 L 12.349951,8.8102144 H 11.499951 Z M 3.7999512,9.3102144 H 4.4999512 V 10.810214 H 4.2499512 Z M 4.9999512,9.3102144 H 6.4999512 V 10.810214 H 4.9999512 Z M 6.9999512,9.3102144 H 8.9999512 V 10.810214 H 6.9999512 Z M 9.4999512,9.3102144 H 10.999951 V 10.810214 H 9.4999512 Z M 11.499951,9.3102144 H 12.199951 L 11.749951,10.810214 H 11.499951 Z" id="path2" style="stroke:#ffffff;stroke-width:3;stroke-linecap:round;stroke-linejoin:round;stroke-dasharray:none;stroke-opacity:0.5;paint-order:stroke fill markers" />
</svg>
