<?xml version="1.0" encoding="UTF-8" standalone="no"?>
<svg width="13" height="16.999775" version="1.1" id="svg2" sodipodi:docname="fire_station.svg" inkscape:version="1.4.2 (ebf0e940d0, 2025-05-08)" xmlns:inkscape="http://www.inkscape.org/namespaces/inkscape" xmlns:sodipodi="http://sodipodi.sourceforge.net/DTD/sodipodi-0.dtd" xmlns="http://www.w3.org/2000/svg" xmlns:svg="http://www.w3.org/2000/svg">
  <defs id="defs2" />
  <sodipodi:namedview id="namedview2" pagecolor="#ffffff" bordercolor="#666666" borderopacity="1.0" inkscape:showpageshadow="2" inkscape:pageopacity="0.0" inkscape:pagecheckerboard="true" inkscape:deskcolor="#d1d1d1" inkscape:zoom="26.213459" inkscape:cx="-1.5640821" inkscape:cy="13.275623" inkscape:window-width="2154" inkscape:window-height="1206" inkscape:window-x="0" inkscape:window-y="0" inkscape:window-maximized="1" inkscape:current-layer="svg2" />
  <path d="M 6.5,1.4998949 C 2.924,2.7408949 1.5,6.4998949 1.5,9.4998949 C 1.5,12.499895 3.245,14.759895 5.5,15.499895 C 3.5,12.240895 3.5,9.4998949 6.5,7.4998949 C 5.995,8.8528949 6.5,11.499895 7.5,12.499895 C 7.931,12.099895 8.5,11.074895 8.5,10.499895 C 10.5,12.499895 9.063,14.132895 8.5,15.499895 C 9.588,14.939895 11.5,13.499895 11.5,10.499895 C 11.5,7.4998949 9.5,6.4998949 9.5,3.4998949 C 8.116,4.0998949 7.5,5.4998949 7.5,6.4998949 C 6.548,5.9428949 5.5,3.7458949 6.5,1.4998949 Z" id="path2" style="stroke:#ffffff;stroke-width:3;stroke-linecap:round;stroke-linejoin:round;stroke-dasharray:none;stroke-opacity:0.5;paint-order:stroke fill markers" />
</svg>
