<?xml version="1.0" encoding="UTF-8" standalone="no"?>
<svg width="16.479126" height="13.115113" viewBox="0 0 4.3597588 3.4697672" version="1.1" id="svg3" sodipodi:docname="ford.svg" inkscape:version="1.4.2 (ebf0e940d0, 2025-05-08)" xmlns:inkscape="http://www.inkscape.org/namespaces/inkscape" xmlns:sodipodi="http://sodipodi.sourceforge.net/DTD/sodipodi-0.dtd" xmlns="http://www.w3.org/2000/svg" xmlns:svg="http://www.w3.org/2000/svg">
  <defs id="defs3" />
  <sodipodi:namedview id="namedview3" pagecolor="#ffffff" bordercolor="#666666" borderopacity="1.0" inkscape:showpageshadow="2" inkscape:pageopacity="0.0" inkscape:pagecheckerboard="true" inkscape:deskcolor="#d1d1d1" showgrid="true" inkscape:zoom="45.254834" inkscape:cx="4.2426407" inkscape:cy="7.0931649" inkscape:window-width="2154" inkscape:window-height="1206" inkscape:window-x="0" inkscape:window-y="0" inkscape:window-maximized="1" inkscape:current-layer="svg3">
    <inkscape:grid id="grid7" units="px" originx="0" originy="0" spacingx="0.2645625" spacingy="0.2645625" empcolor="#0000ff" empopacity="0.25098039" color="#0000ff" opacity="0.1254902" empspacing="5" enabled="true" visible="true" />
  </sodipodi:namedview>
  <path id="path7" style="baseline-shift:baseline;display:inline;overflow:visible;opacity:1;fill:#0064ff;fill-rule:evenodd;stroke:#ffffff;stroke-width:0.793688;stroke-linecap:round;stroke-linejoin:round;stroke-dasharray:none;stroke-opacity:0.5;paint-order:stroke fill markers;enable-background:accumulate;stop-color:#000000;stop-opacity:1" d="M 0.85633639,2.2135483 C 0.76262787,2.2135483 0.68142579,2.2606647 0.61414889,2.3229233 C 0.54687199,2.3851818 0.48569799,2.4655343 0.41688327,2.569017 A 0.1322915,0.1322915 0 0 0 0.45399264,2.7526108 A 0.1322915,0.1322915 0 0 0 0.63758639,2.7155014 C 0.70077167,2.6204841 0.75386329,2.5532741 0.79383639,2.5162827 C 0.83380949,2.4792912 0.85104491,2.4772201 0.85633639,2.4772202 C 0.86162787,2.4772202 0.87886329,2.4792912 0.91883639,2.5162827 C 0.95880949,2.5532741 1.0138542,2.6204841 1.0770395,2.7155014 C 1.1461051,2.8189694 1.2068684,2.9013231 1.2743051,2.9635483 C 1.3417419,3.0257735 1.4247236,3.0729233 1.5184458,3.0729233 C 1.6121679,3.0729233 1.6931965,3.0257735 1.7606333,2.9635483 C 1.82807,2.9013231 1.8907865,2.8189694 1.959852,2.7155014 C 2.0232865,2.6204694 2.0759763,2.5533074 2.116102,2.5162827 C 2.1562278,2.4792579 2.1750273,2.4772201 2.1805552,2.4772202 C 2.186083,2.4772202 2.2029294,2.4792579 2.2430552,2.5162827 C 2.2831809,2.5533074 2.3378238,2.6204694 2.4012583,2.7155014 C 2.470073,2.8189841 2.5312197,2.9012826 2.5985239,2.9635483 C 2.6658281,3.0258139 2.7469961,3.0729233 2.8407114,3.0729233 C 2.9344267,3.0729233 3.0154894,3.0257664 3.0828989,2.9635483 C 3.1503084,2.9013301 3.2130521,2.8189694 3.2821177,2.7155014 C 3.3455521,2.6204694 3.400199,2.5533145 3.4403208,2.5162827 C 3.4804425,2.4792508 3.497411,2.4772202 3.5028208,2.4772202 C 3.5082305,2.4772202 3.5253437,2.4792983 3.5653208,2.5162827 C 3.6052979,2.553267 3.6603386,2.6204841 3.7235239,2.7155014 A 0.1322915,0.1322915 0 0 0 3.9071177,2.7526108 A 0.1322915,0.1322915 0 0 0 3.9422739,2.569017 C 3.8734592,2.4655343 3.8123124,2.3851889 3.7450083,2.3229233 C 3.6777041,2.2606576 3.596536,2.2135483 3.5028208,2.2135483 C 3.4091055,2.2135483 3.3280428,2.2607051 3.2606333,2.3229233 C 3.1932238,2.3851414 3.1304801,2.465549 3.0614145,2.569017 C 2.9979801,2.664049 2.9452863,2.7312039 2.9051645,2.7682358 C 2.8650428,2.8052676 2.8461211,2.8072983 2.8407114,2.8072983 C 2.8353017,2.8072983 2.8181885,2.8052201 2.7782114,2.7682358 C 2.7382343,2.7312514 2.6851467,2.6640343 2.6219614,2.569017 C 2.5528959,2.465549 2.4901794,2.3851485 2.4227427,2.3229233 C 2.3553059,2.2606981 2.2742773,2.2135483 2.1805552,2.2135483 C 2.086833,2.2135483 2.0038513,2.2606981 1.9364145,2.3229233 C 1.8689778,2.3851485 1.8082144,2.465549 1.7391489,2.569017 C 1.6757144,2.664049 1.6210715,2.731211 1.5809458,2.7682358 C 1.54082,2.8052606 1.5239736,2.8072983 1.5184458,2.8072983 C 1.5129179,2.8072983 1.4941184,2.8052606 1.4539926,2.7682358 C 1.4138669,2.731211 1.3611771,2.664049 1.2977426,2.569017 C 1.2289279,2.4655343 1.1658008,2.3851818 1.0985239,2.3229233 C 1.031247,2.2606647 0.95004491,2.2135483 0.85633639,2.2135483 Z M 1.2274301,0.43229826 L 0.69618014,0.96159513 C 0.66088502,0.99676048 0.65907076,1.021736 0.65907076,1.0553451 C 0.65907076,1.0889542 0.66945669,1.1223716 0.69618014,1.1490951 L 1.225477,1.678392 C 1.2771868,1.73033 1.3612672,1.73033 1.412977,1.678392 C 1.464915,1.6266822 1.464915,1.5426018 1.412977,1.490892 L 1.1082895,1.1862045 H 3.1180552 L 2.8133677,1.490892 C 2.7614297,1.5426018 2.7614297,1.6266822 2.8133677,1.678392 C 2.8650775,1.73033 2.9491579,1.73033 3.0008677,1.678392 L 3.5301645,1.1490951 C 3.5820951,1.0973823 3.5820951,1.013308 3.5301645,0.96159513 L 3.0008677,0.43229826 C 2.9486185,0.38089486 2.8645347,0.38177073 2.8133677,0.43425138 C 2.762724,0.48573319 2.762724,0.56831644 2.8133677,0.61979825 L 3.116102,0.92253263 H 1.1102426 L 1.412977,0.61979825 C 1.4636207,0.56831644 1.4636207,0.48573319 1.412977,0.43425138 C 1.3620299,0.38306179 1.2794434,0.38219247 1.2274301,0.43229826 Z" />
  <g style="display:inline;opacity:0.5" id="g1" transform="translate(-0.00303861,-0.00324862)">
    <path style="fill:none;fill-rule:evenodd;stroke:#ffffff;stroke-width:0.79375;stroke-linecap:round;stroke-linejoin:round;stroke-miterlimit:4;stroke-dasharray:none;stroke-opacity:1" d="M 0.794,1.058 H 3.175 V 1.058 M 2.91,0.53 L 3.44,1.058 L 2.91,1.588 V 1.588 M 1.323,0.53 L 0.793,1.058 L 1.323,1.588 M 0.53,2.646 C 0.794,2.249 0.926,2.249 1.19,2.646 C 1.455,3.043 1.587,3.043 1.852,2.646 C 2.117,2.249 2.249,2.249 2.514,2.646 C 2.778,3.043 2.91,3.043 3.175,2.646 C 3.44,2.249 3.572,2.249 3.836,2.646" id="path1" />
  </g>
  <path style="baseline-shift:baseline;display:inline;overflow:visible;opacity:1;vector-effect:none;fill-rule:evenodd;stroke-linecap:round;stroke-linejoin:round;enable-background:accumulate;stop-color:#000000;stop-opacity:1" d="M 1.2274301,0.43229826 L 0.69618014,0.96159513 C 0.66088502,0.99676048 0.65907076,1.021736 0.65907076,1.0553451 C 0.65907076,1.0889542 0.66945669,1.1223716 0.69618014,1.1490951 L 1.225477,1.678392 C 1.2771868,1.73033 1.3612672,1.73033 1.412977,1.678392 C 1.464915,1.6266822 1.464915,1.5426018 1.412977,1.490892 L 1.1082895,1.1862045 H 3.1180552 L 2.8133677,1.490892 C 2.7614297,1.5426018 2.7614297,1.6266822 2.8133677,1.678392 C 2.8650775,1.73033 2.9491579,1.73033 3.0008677,1.678392 L 3.5301645,1.1490951 C 3.5820951,1.0973823 3.5820951,1.013308 3.5301645,0.96159513 L 3.0008677,0.43229826 C 2.9486185,0.38089486 2.8645347,0.38177073 2.8133677,0.43425138 C 2.762724,0.48573319 2.762724,0.56831644 2.8133677,0.61979825 L 3.116102,0.92253263 H 1.1102426 L 1.412977,0.61979825 C 1.4636207,0.56831644 1.4636207,0.48573319 1.412977,0.43425138 C 1.3620299,0.38306179 1.2794434,0.38219247 1.2274301,0.43229826 Z" id="path2" sodipodi:nodetypes="csascccccccccccccccccc" />
  <path style="baseline-shift:baseline;display:inline;overflow:visible;opacity:1;vector-effect:none;fill:#0064ff;fill-rule:evenodd;stroke-linecap:round;stroke-linejoin:round;enable-background:accumulate;stop-color:#000000;stop-opacity:1" d="M 0.85633639,2.2135483 C 0.76262787,2.2135483 0.68142579,2.2606647 0.61414889,2.3229233 C 0.54687199,2.3851818 0.48569799,2.4655343 0.41688327,2.569017 A 0.1322915,0.1322915 0 0 0 0.45399264,2.7526108 A 0.1322915,0.1322915 0 0 0 0.63758639,2.7155014 C 0.70077167,2.6204841 0.75386329,2.5532741 0.79383639,2.5162827 C 0.83380949,2.4792912 0.85104491,2.4772201 0.85633639,2.4772202 C 0.86162787,2.4772202 0.87886329,2.4792912 0.91883639,2.5162827 C 0.95880949,2.5532741 1.0138542,2.6204841 1.0770395,2.7155014 C 1.1461051,2.8189694 1.2068684,2.9013231 1.2743051,2.9635483 C 1.3417419,3.0257735 1.4247236,3.0729233 1.5184458,3.0729233 C 1.6121679,3.0729233 1.6931965,3.0257735 1.7606333,2.9635483 C 1.82807,2.9013231 1.8907865,2.8189694 1.959852,2.7155014 C 2.0232865,2.6204694 2.0759763,2.5533074 2.116102,2.5162827 C 2.1562278,2.4792579 2.1750273,2.4772201 2.1805552,2.4772202 C 2.186083,2.4772202 2.2029294,2.4792579 2.2430552,2.5162827 C 2.2831809,2.5533074 2.3378238,2.6204694 2.4012583,2.7155014 C 2.470073,2.8189841 2.5312197,2.9012826 2.5985239,2.9635483 C 2.6658281,3.0258139 2.7469961,3.0729233 2.8407114,3.0729233 C 2.9344267,3.0729233 3.0154894,3.0257664 3.0828989,2.9635483 C 3.1503084,2.9013301 3.2130521,2.8189694 3.2821177,2.7155014 C 3.3455521,2.6204694 3.400199,2.5533145 3.4403208,2.5162827 C 3.4804425,2.4792508 3.497411,2.4772202 3.5028208,2.4772202 C 3.5082305,2.4772202 3.5253437,2.4792983 3.5653208,2.5162827 C 3.6052979,2.553267 3.6603386,2.6204841 3.7235239,2.7155014 A 0.1322915,0.1322915 0 0 0 3.9071177,2.7526108 A 0.1322915,0.1322915 0 0 0 3.9422739,2.569017 C 3.8734592,2.4655343 3.8123124,2.3851889 3.7450083,2.3229233 C 3.6777041,2.2606576 3.596536,2.2135483 3.5028208,2.2135483 C 3.4091055,2.2135483 3.3280428,2.2607051 3.2606333,2.3229233 C 3.1932238,2.3851414 3.1304801,2.465549 3.0614145,2.569017 C 2.9979801,2.664049 2.9452863,2.7312039 2.9051645,2.7682358 C 2.8650428,2.8052676 2.8461211,2.8072983 2.8407114,2.8072983 C 2.8353017,2.8072983 2.8181885,2.8052201 2.7782114,2.7682358 C 2.7382343,2.7312514 2.6851467,2.6640343 2.6219614,2.569017 C 2.5528959,2.465549 2.4901794,2.3851485 2.4227427,2.3229233 C 2.3553059,2.2606981 2.2742773,2.2135483 2.1805552,2.2135483 C 2.086833,2.2135483 2.0038513,2.2606981 1.9364145,2.3229233 C 1.8689778,2.3851485 1.8082144,2.465549 1.7391489,2.569017 C 1.6757144,2.664049 1.6210715,2.731211 1.5809458,2.7682358 C 1.54082,2.8052606 1.5239736,2.8072983 1.5184458,2.8072983 C 1.5129179,2.8072983 1.4941184,2.8052606 1.4539926,2.7682358 C 1.4138669,2.731211 1.3611771,2.664049 1.2977426,2.569017 C 1.2289279,2.4655343 1.1658008,2.3851818 1.0985239,2.3229233 C 1.031247,2.2606647 0.95004491,2.2135483 0.85633639,2.2135483 Z" id="path3" />
</svg>
