<?xml version="1.0" encoding="UTF-8" standalone="no"?>
<svg width="15" height="16.999935" version="1.1" id="svg2" sodipodi:docname="fuel.svg" inkscape:version="1.4.2 (ebf0e940d0, 2025-05-08)" xmlns:inkscape="http://www.inkscape.org/namespaces/inkscape" xmlns:sodipodi="http://sodipodi.sourceforge.net/DTD/sodipodi-0.dtd" xmlns="http://www.w3.org/2000/svg" xmlns:svg="http://www.w3.org/2000/svg">
  <defs id="defs2" />
  <sodipodi:namedview id="namedview2" pagecolor="#ffffff" bordercolor="#666666" borderopacity="1.0" inkscape:showpageshadow="2" inkscape:pageopacity="0.0" inkscape:pagecheckerboard="true" inkscape:deskcolor="#d1d1d1" showgrid="true" inkscape:zoom="26.213459" inkscape:cx="-0.30518674" inkscape:cy="8.8122672" inkscape:window-width="2154" inkscape:window-height="1206" inkscape:window-x="0" inkscape:window-y="0" inkscape:window-maximized="1" inkscape:current-layer="svg2">
    <inkscape:grid id="grid2" units="px" originx="0" originy="0" spacingx="1" spacingy="1" empcolor="#0000ff" empopacity="0.25098039" color="#0000ff" opacity="0.1254902" empspacing="5" enabled="true" visible="true" />
  </sodipodi:namedview>
  <path d="M 11.281,1.4999351 L 10.656,2.2189351 L 11.844,3.3129351 L 11.969,3.4379351 L 11.719,3.7179351 C 11.319,4.1189351 11.606,4.6369351 11.75,4.7809351 L 12.5,5.5309351 V 11.499935 C 12.5,12.499935 12.108,12.499935 12,12.499935 C 11.892,12.499935 11.5,12.499935 11.5,11.499935 V 7.4999351 C 11.5,6.2199351 10.5,5.4999351 9.5,5.4999351 V 3.4999351 C 9.5,2.9489351 9.075,2.4999351 8.5,2.4999351 H 2.5 C 1.9,2.4999351 1.5,2.9249351 1.5,3.4999351 V 15.499935 H 9.5 V 6.4999351 C 9.5,6.4999351 10.5,6.4999351 10.5,7.4999351 V 11.499935 C 10.5,13.499935 11.74,13.499935 12,13.499935 C 12.276,13.499935 13.5,13.499935 13.5,11.499935 V 4.4999351 C 13.5,3.4999351 13.214,3.2899351 12.875,2.9689351 Z M 2.5,4.4999351 H 8.5 V 7.4999351 H 2.5 Z" id="path2" style="stroke:#ffffff;stroke-width:3;stroke-linecap:round;stroke-linejoin:round;stroke-dasharray:none;stroke-opacity:0.57;paint-order:stroke fill markers" />
</svg>
