<?xml version="1.0" encoding="UTF-8" standalone="no"?>
<svg height="17" width="17" version="1.1" id="svg2" sodipodi:docname="hostel.svg" inkscape:version="1.4.2 (ebf0e940d0, 2025-05-08)" xmlns:inkscape="http://www.inkscape.org/namespaces/inkscape" xmlns:sodipodi="http://sodipodi.sourceforge.net/DTD/sodipodi-0.dtd" xmlns="http://www.w3.org/2000/svg" xmlns:svg="http://www.w3.org/2000/svg">
  <defs id="defs2" />
  <sodipodi:namedview id="namedview2" pagecolor="#ffffff" bordercolor="#666666" borderopacity="1.0" inkscape:showpageshadow="2" inkscape:pageopacity="0.0" inkscape:pagecheckerboard="true" inkscape:deskcolor="#d1d1d1" inkscape:zoom="26.213459" inkscape:cx="-1.2588953" inkscape:cy="13.618958" inkscape:window-width="2154" inkscape:window-height="1206" inkscape:window-x="0" inkscape:window-y="0" inkscape:window-maximized="1" inkscape:current-layer="svg2" />
  <path d="M 2,1.5 C 1.723,1.5 1.5,1.723 1.5,2 V 15.5 H 2.5 V 13.5 H 14.5 V 15.5 H 15.5 V 4 A 0.5,0.5 0 1 0 14.5,4 V 6.5 H 2.5 V 2 C 2.5,1.723 2.277,1.5 2,1.5 Z M 5,2.5 A 1.5,1.5 0 1 0 5,5.5 A 1.5,1.5 0 0 0 5,2.5 Z M 7.5,3.5 V 5.5 H 13.5 C 13.5,4.5 12.464,3.5 11.5,3.5 Z M 2.5,7.5 H 14.5 V 12.5 H 2.5 Z M 5,8.5 A 1.5,1.5 0 1 0 5,11.5 A 1.5,1.5 0 0 0 5,8.5 Z M 7.5,9.5 V 11.5 L 13.5,11.514 C 13.5,10.5 12.464,9.5 11.5,9.5 Z" id="path2" style="stroke:#ffffff;stroke-width:3;stroke-linecap:round;stroke-linejoin:round;stroke-dasharray:none;stroke-opacity:0.5;paint-order:stroke fill markers" />
</svg>
