<?xml version="1.0" encoding="UTF-8" standalone="no"?>
<svg height="17" width="17" version="1.1" id="svg2" sodipodi:docname="office.svg" inkscape:version="1.4.2 (ebf0e940d0, 2025-05-08)" xmlns:inkscape="http://www.inkscape.org/namespaces/inkscape" xmlns:sodipodi="http://sodipodi.sourceforge.net/DTD/sodipodi-0.dtd" xmlns="http://www.w3.org/2000/svg" xmlns:svg="http://www.w3.org/2000/svg">
  <defs id="defs2" />
  <sodipodi:namedview id="namedview2" pagecolor="#ffffff" bordercolor="#666666" borderopacity="1.0" inkscape:showpageshadow="2" inkscape:pageopacity="0.0" inkscape:pagecheckerboard="true" inkscape:deskcolor="#d1d1d1" showgrid="true" inkscape:zoom="37.071429" inkscape:cx="4.0192678" inkscape:cy="8.1194605" inkscape:window-width="2154" inkscape:window-height="1206" inkscape:window-x="0" inkscape:window-y="0" inkscape:window-maximized="1" inkscape:current-layer="svg2">
    <inkscape:grid id="grid2" units="px" originx="0" originy="0" spacingx="1" spacingy="1" empcolor="#0000ff" empopacity="0.25098039" color="#0000ff" opacity="0.1254902" empspacing="5" enabled="true" visible="true" />
  </sodipodi:namedview>
  <path d="M 8.5,1.5 A 7,7 0 0 0 1.5,8.5 A 7,7 0 0 0 8.5,15.5 A 7,7 0 0 0 15.5,8.5 A 7,7 0 0 0 8.5,1.5 Z M 8.5,3 A 5.5,5.5 0 0 1 14,8.5 A 5.5,5.5 0 0 1 8.5,14 A 5.5,5.5 0 0 1 3,8.5 A 5.5,5.5 0 0 1 8.5,3 Z M 8.5,4.37 A 1.04,1.04 0 0 0 7.46,5.41 A 1.04,1.04 0 0 0 8.5,6.45 A 1.04,1.04 0 0 0 9.54,5.41 A 1.04,1.04 0 0 0 8.5,4.37 Z M 9.188,7.135 L 7.127,7.822 V 8.508 H 7.76 L 7.813,11.943 H 7.127 V 12.631 H 9.873 V 11.943 H 9.188 Z" fill-rule="evenodd" paint-order="markers stroke fill" id="path2" style="stroke:#ffffff;stroke-width:3;stroke-linecap:round;stroke-linejoin:round;stroke-dasharray:none;stroke-opacity:0.5;paint-order:stroke fill markers" />
</svg>
