<?xml version="1.0" encoding="UTF-8" standalone="no"?>
<svg width="14" height="19.000999" version="1.0" id="svg2" sodipodi:docname="public_transport.svg" inkscape:version="1.4.2 (ebf0e940d0, 2025-05-08)" xmlns:inkscape="http://www.inkscape.org/namespaces/inkscape" xmlns:sodipodi="http://sodipodi.sourceforge.net/DTD/sodipodi-0.dtd" xmlns="http://www.w3.org/2000/svg" xmlns:svg="http://www.w3.org/2000/svg">
  <defs id="defs2" />
  <sodipodi:namedview id="namedview2" pagecolor="#ffffff" bordercolor="#666666" borderopacity="1.0" inkscape:showpageshadow="2" inkscape:pageopacity="0.0" inkscape:pagecheckerboard="true" inkscape:deskcolor="#d1d1d1" inkscape:zoom="16.28125" inkscape:cx="10.994242" inkscape:cy="19.59309" inkscape:window-width="2154" inkscape:window-height="1206" inkscape:window-x="0" inkscape:window-y="0" inkscape:window-maximized="1" inkscape:current-layer="svg2" />
  <path d="M 2.5,1.5 A 1,1 0 0 0 1.5,2.5 V 17.5 H 3.5 V 3.5 H 12.5 V 1.5 Z M 8.002,4.992 C 7.595,4.992 7.243,5.135 6.947,5.422 A 1.428,1.428 0 0 0 6.504,6.49 C 6.504,6.897 6.651,7.249 6.947,7.545 A 1.44,1.44 0 0 0 8.002,7.988 A 1.44,1.44 0 0 0 9.057,7.545 A 1.44,1.44 0 0 0 9.5,6.49 C 9.5,6.065 9.353,5.709 9.057,5.422 A 1.464,1.464 0 0 0 8.002,4.992 Z M 6.272,8.516 C 5.797,8.516 5.392,8.64 5.057,8.891 C 4.721,9.141 4.553,9.45 4.553,9.816 V 13.016 C 4.553,13.309 4.733,13.457 5.093,13.457 C 5.437,13.457 5.607,13.309 5.607,13.016 V 9.89 H 6.247 V 16.95 C 6.247,17.317 6.491,17.501 6.982,17.501 C 7.473,17.501 7.719,17.317 7.719,16.951 V 12.487 H 8.357 V 16.95 C 8.357,17.317 8.603,17.501 9.094,17.501 C 9.601,17.501 9.855,17.317 9.855,16.951 V 9.89 H 10.469 V 13.015 C 10.469,13.32 10.641,13.474 10.984,13.474 C 11.328,13.474 11.5,13.32 11.5,13.014 V 9.834 C 11.5,9.481 11.34,9.17 11.021,8.907 C 10.702,8.644 10.289,8.515 9.781,8.515 H 6.271 Z" color="#000000" id="path2" style="stroke:#ffffff;stroke-width:3;stroke-linecap:round;stroke-linejoin:round;stroke-dasharray:none;stroke-opacity:0.5;paint-order:stroke fill markers" />
</svg>
