<?xml version="1.0" encoding="UTF-8" standalone="no"?>
<svg width="15.316345" height="18.456354" version="1.1" id="svg4" sodipodi:docname="refitted_not_drinking_spring.svg" inkscape:version="1.4.2 (ebf0e940d0, 2025-05-08)" xmlns:inkscape="http://www.inkscape.org/namespaces/inkscape" xmlns:sodipodi="http://sodipodi.sourceforge.net/DTD/sodipodi-0.dtd" xmlns="http://www.w3.org/2000/svg" xmlns:svg="http://www.w3.org/2000/svg">
  <defs id="defs4" />
  <sodipodi:namedview id="namedview4" pagecolor="#ffffff" bordercolor="#666666" borderopacity="1.0" inkscape:showpageshadow="2" inkscape:pageopacity="0.0" inkscape:pagecheckerboard="true" inkscape:deskcolor="#d1d1d1" showgrid="true" inkscape:zoom="51.9" inkscape:cx="8.8246628" inkscape:cy="9.6531792" inkscape:window-width="2154" inkscape:window-height="1206" inkscape:window-x="0" inkscape:window-y="0" inkscape:window-maximized="1" inkscape:current-layer="svg4">
    <inkscape:grid id="grid4" units="px" originx="-1.1836549" originy="-0.35355942" spacingx="1" spacingy="1" empcolor="#0000ff" empopacity="0.25098039" color="#0000ff" opacity="0.1254902" empspacing="5" enabled="true" visible="true" />
  </sodipodi:namedview>
  <path id="circle6" style="fill:#ffffff;fill-opacity:0.5;stroke:#ffffff;stroke-width:3;stroke-linecap:round;stroke-linejoin:round;stroke-dasharray:none;stroke-opacity:0.5;paint-order:stroke fill markers" d="M 13.816345,14.146441 A 2.5,2.5 0 0 1 11.316345,16.646441 A 2.5,2.5 0 0 1 8.8163451,14.146441 A 2.5,2.5 0 0 1 11.316345,11.646441 A 2.5,2.5 0 0 1 13.816345,14.146441 Z M 7.3163451,1.4999562 L 1.4999389,6.2597218 L 2.1327514,7.0331593 L 7.3163451,2.792925 L 12.499939,7.0331593 L 13.132751,6.2597218 Z M 7.3163451,5.2764406 A 3.3,3.3 0 0 0 4.0363451,8.6064406 A 3.36,3.36 0 0 0 4.2163451,9.6964406 C 2.4963451,11.746441 3.5063451,12.616441 3.8963451,13.886441 C 4.2863451,15.166441 2.8863451,15.936441 1.7963451,16.956441 C 5.0363451,16.376441 5.5763451,14.866441 5.4863451,14.046441 C 5.3863451,13.126441 4.6563451,12.516441 5.6063451,11.446441 C 6.1563451,11.626441 6.6863451,11.926441 7.3063451,11.946441 A 3.24,3.24 0 0 0 9.1663451,11.346441 A 3.33,3.33 0 0 0 10.586345,8.6064406 A 3.3,3.3 0 0 0 7.3063451,5.2764406 Z" />
  <path d="M 7.3163451,5.2764406 A 3.3,3.3 0 0 0 4.0363451,8.6064406 A 3.36,3.36 0 0 0 4.2163451,9.6964406 C 2.4963451,11.746441 3.5063451,12.616441 3.8963451,13.886441 C 4.2863451,15.166441 2.8863451,15.936441 1.7963451,16.956441 C 5.0363451,16.376441 5.5763451,14.866441 5.4863451,14.046441 C 5.3863451,13.126441 4.6563451,12.516441 5.6063451,11.446441 C 6.1563451,11.626441 6.6863451,11.926441 7.3063451,11.946441 A 3.24,3.24 0 0 0 9.1663451,11.346441 A 3.33,3.33 0 0 0 10.586345,8.6064406 A 3.3,3.3 0 0 0 7.3063451,5.2764406 Z" fill="#0064ff" id="path3" />
  <path style="baseline-shift:baseline;display:inline;overflow:visible;opacity:1;vector-effect:none;enable-background:accumulate;stop-color:#000000;stop-opacity:1" d="M 7.3163451,1.4999562 L 1.4999389,6.2597218 L 2.1327514,7.0331593 L 7.3163451,2.792925 L 12.499939,7.0331593 L 13.132751,6.2597218 Z" id="path4" />
  <circle cx="11.316345" cy="14.146441" fill="#ff0000" r="2.5" id="circle4" />
</svg>
