<?xml version="1.0" encoding="UTF-8" standalone="no"?>
<svg height="17" width="15" version="1.1" id="svg2" sodipodi:docname="restaurant.svg" inkscape:version="1.4.2 (ebf0e940d0, 2025-05-08)" xmlns:inkscape="http://www.inkscape.org/namespaces/inkscape" xmlns:sodipodi="http://sodipodi.sourceforge.net/DTD/sodipodi-0.dtd" xmlns="http://www.w3.org/2000/svg" xmlns:svg="http://www.w3.org/2000/svg">
  <defs id="defs2" />
  <sodipodi:namedview id="namedview2" pagecolor="#ffffff" bordercolor="#666666" borderopacity="1.0" inkscape:showpageshadow="2" inkscape:pageopacity="0.0" inkscape:pagecheckerboard="true" inkscape:deskcolor="#d1d1d1" showgrid="true" inkscape:zoom="26.213459" inkscape:cx="1.9455655" inkscape:cy="10.681536" inkscape:window-width="2154" inkscape:window-height="1206" inkscape:window-x="0" inkscape:window-y="0" inkscape:window-maximized="1" inkscape:current-layer="svg2">
    <inkscape:grid id="grid2" units="px" originx="0" originy="0" spacingx="1" spacingy="1" empcolor="#0000ff" empopacity="0.25098039" color="#0000ff" opacity="0.1254902" empspacing="5" enabled="true" visible="true" />
  </sodipodi:namedview>
  <path d="M 2,1.5 C 1.75,1.5 1.5,1.75 1.5,2.25 V 8.5 C 1.5,9.5 3.25,9.5 3.25,10.5 L 2.75,15.5 H 5.25 L 4.75,10.5 C 4.75,9.5 6.5,9.5 6.5,8.5 V 2.25 C 6.5,1.25 5.5,1.25 5.5,2.25 V 7.5 C 5.5,8.063 4.5,8.063 4.5,7.5 V 2.25 C 4.5,1.25 3.5,1.25 3.5,2.25 V 7.5 C 3.5,8.027 2.5,8.027 2.5,7.5 V 2.25 C 2.5,1.75 2.25,1.5 2,1.5 Z M 10.5,1.5 C 9.5,1.5 7.5,3.5 7.5,6.5 C 7.5,9.5 9.75,10.5 9.75,10.5 L 9.25,15.5 H 11.75 L 11.25,10.5 C 11.25,10.5 13.5,9.5 13.5,6.5 C 13.5,3.5 11.5,1.5 10.5,1.5 Z" id="path2" style="stroke:#ffffff;stroke-width:3;stroke-linecap:round;stroke-linejoin:round;stroke-dasharray:none;stroke-opacity:0.5;paint-order:stroke fill markers" />
</svg>
