<?xml version="1.0" encoding="UTF-8" standalone="no"?>
<!-- Created with Inkscape (http://www.inkscape.org/) -->

<svg version="1.0" width="17" height="16.999104" id="svg2" sodipodi:version="0.32" inkscape:version="1.4.2 (ebf0e940d0, 2025-05-08)" sodipodi:docname="school.svg" inkscape:output_extension="org.inkscape.output.svg.inkscape" xmlns:inkscape="http://www.inkscape.org/namespaces/inkscape" xmlns:sodipodi="http://sodipodi.sourceforge.net/DTD/sodipodi-0.dtd" xmlns="http://www.w3.org/2000/svg" xmlns:svg="http://www.w3.org/2000/svg" xmlns:rdf="http://www.w3.org/1999/02/22-rdf-syntax-ns#" xmlns:cc="http://creativecommons.org/ns#" xmlns:dc="http://purl.org/dc/elements/1.1/">
  <metadata id="metadata2975">
    <rdf:RDF>
      <cc:Work rdf:about="">
        <dc:format>image/svg+xml</dc:format>
        <dc:type rdf:resource="http://purl.org/dc/dcmitype/StillImage" />
        <cc:license rdf:resource="http://web.resource.org/cc/PublicDomain" />
        <dc:language>en</dc:language>
      </cc:Work>
    </rdf:RDF>
  </metadata>
  <sodipodi:namedview inkscape:window-height="1206" inkscape:window-width="2154" inkscape:pageshadow="2" inkscape:pageopacity="0.0" guidetolerance="10.0" gridtolerance="10.0" objecttolerance="10.0" borderopacity="1.0" bordercolor="#666666" pagecolor="#ffffff" id="base" inkscape:zoom="29.493668" inkscape:cx="1.9665238" inkscape:cy="12.884121" inkscape:window-x="0" inkscape:window-y="0" inkscape:current-layer="svg2" showgrid="true" inkscape:pagecheckerboard="true" inkscape:window-maximized="1" inkscape:showpageshadow="2" inkscape:deskcolor="#d1d1d1">
    <inkscape:grid id="grid1" units="px" originx="0" originy="0" spacingx="1" spacingy="1" empcolor="#0000ff" empopacity="0.25098039" color="#0000ff" opacity="0.1254902" empspacing="5" enabled="true" visible="true" />
  </sodipodi:namedview>
  <defs id="defs4">
    <inkscape:perspective sodipodi:type="inkscape:persp3d" inkscape:vp_x="0 : -273.0009 : 1" inkscape:vp_y="0 : 1000 : 0" inkscape:vp_z="580 : -273.0009 : 1" inkscape:persp3d-origin="290 : -369.66757 : 1" id="perspective2441" />
    <inkscape:perspective id="perspective3452" inkscape:persp3d-origin="30 : -543.0009 : 1" inkscape:vp_z="60 : -533.0009 : 1" inkscape:vp_y="0 : 1000 : 0" inkscape:vp_x="0 : -533.0009 : 1" sodipodi:type="inkscape:persp3d" />
    <symbol viewBox="244.5 110 489 219.9" id="symbol-university">
      <path id="path4460" d="M 79,43 L 136,162 C 136,162 157,66 240,66 C 323,66 364,172 364,172 L 407,39 L 489,22 L 0,17 Z" />
      <path id="path4462" d="M 94,176 L 73,215" stroke-width="20" stroke="#000000" fill="none" />
      <path id="path4464" d="M 300,19 C 300,29.5 277.4,38 249.5,38 C 221.6,38 199,29.5 199,19 C 199,8.5 221.6,0 249.5,0 C 277.4,0 300,8.5 300,19 Z" />
      <path id="path4466" d="M 112,216 L 96,178 L 64,88 C 64,88 55,80 60,53 C 65,26 76,29 76,29" stroke-width="20" stroke="#000000" ill="none" />
    </symbol>
    <inkscape:perspective id="perspective4471" inkscape:persp3d-origin="372.04724 : -212.21351 : 1" inkscape:vp_z="744.09448 : -36.819806 : 1" inkscape:vp_y="0 : 1000 : 0" inkscape:vp_x="0 : -36.819806 : 1" sodipodi:type="inkscape:persp3d" />
    <inkscape:perspective id="perspective4668" inkscape:persp3d-origin="6 : -559.0009 : 1" inkscape:vp_z="12 : -557.0009 : 1" inkscape:vp_y="0 : 1000 : 0" inkscape:vp_x="0 : -557.0009 : 1" sodipodi:type="inkscape:persp3d" />
    <marker viewBox="0 0 10 10" refY="5" refX="10" orient="auto" markerWidth="4" markerUnits="strokeWidth" markerHeight="3" id="ArrowStart">
      <path id="path3634" d="M 10,0 L 0,5 L 10,10 Z" />
    </marker>
    <marker viewBox="0 0 10 10" refY="5" refX="0" orient="auto" markerWidth="4" markerUnits="strokeWidth" markerHeight="3" id="ArrowEnd">
      <path id="path3631" d="M 0,0 L 10,5 L 0,10 Z" />
    </marker>
    <inkscape:perspective id="perspective2510" inkscape:persp3d-origin="306.082 : -358.61056 : 1" inkscape:vp_z="612.164 : -256.41539 : 1" inkscape:vp_y="0 : 1000 : 0" inkscape:vp_x="0 : -256.41539 : 1" sodipodi:type="inkscape:persp3d" />
    <marker viewBox="0 0 10 10" refY="5" refX="10" orient="auto" markerWidth="4" markerUnits="strokeWidth" markerHeight="3" id="marker2611">
      <path id="path1325" d="M 10,0 L 0,5 L 10,10 Z" />
    </marker>
    <marker viewBox="0 0 10 10" refY="5" refX="0" orient="auto" markerWidth="4" markerUnits="strokeWidth" markerHeight="3" id="marker2608">
      <path id="path1322" d="M 0,0 L 10,5 L 0,10 Z" />
    </marker>
    <inkscape:perspective id="perspective2605" inkscape:persp3d-origin="306.082 : -358.61056 : 1" inkscape:vp_z="612.164 : -256.41539 : 1" inkscape:vp_y="0 : 1000 : 0" inkscape:vp_x="0 : -256.41539 : 1" sodipodi:type="inkscape:persp3d" />
    <inkscape:perspective id="perspective2656" inkscape:persp3d-origin="372.04724 : -212.21351 : 1" inkscape:vp_z="744.09448 : -36.819806 : 1" inkscape:vp_y="0 : 1000 : 0" inkscape:vp_x="0 : -36.819806 : 1" sodipodi:type="inkscape:persp3d" />
  </defs>
  <path id="path3526" style="color:#000000;fill:#000000;fill-rule:evenodd;stroke:#ffffff;stroke-width:3;stroke-linecap:round;stroke-linejoin:round;stroke-dasharray:none;stroke-opacity:0.5;paint-order:stroke fill markers" d="M 8.3260428,1.5033127 L 8.3240082,1.5052701 C 8.1706249,1.526928 8.0381913,1.6199192 7.9699898,1.7538518 L 6.9486268,4.1985647 H 1.8133265 C 1.6403297,4.1986777 1.5001174,4.3335663 1.5,4.4999945 V 12.552477 C 1.5001176,12.718905 1.6403298,12.853793 1.8133265,12.853906 H 3.3311292 L 2.4847406,14.879749 C 2.3889348,15.111622 2.5063619,15.374339 2.7472024,15.46695 C 2.9876615,15.559335 3.2605108,15.447339 3.3575788,15.216411 L 4.3443541,12.853906 H 12.562055 L 13.54883,15.216411 C 13.645896,15.448411 13.920212,15.560635 14.161241,15.46695 C 14.401284,15.373568 14.5177,15.111078 14.421669,14.879749 L 13.57528,12.853906 H 15.186674 C 15.359671,12.853793 15.499882,12.718905 15.5,12.552477 V 4.4999945 C 15.499882,4.3335664 15.359671,4.1986778 15.186674,4.1985647 H 9.9598171 L 8.9384538,1.7538518 C 8.8702523,1.6199192 8.7378187,1.526928 8.5844354,1.5052701 C 8.5830823,1.5046113 8.581726,1.5039589 8.5803663,1.5033127 C 8.5384177,1.4985114 8.4959876,1.4991698 8.4542218,1.5052701 C 8.4117886,1.4989918 8.3686617,1.4983333 8.3260428,1.5033127 Z M 8.4542218,3.018291 L 8.9465921,4.1985647 H 7.9618515 Z M 4.2359379,5.2567121 C 4.6105103,5.256715 4.9100564,5.2770252 5.1372603,5.3173896 C 5.3644581,5.3577597 5.5534395,5.4418948 5.7049104,5.5698859 C 5.8113435,5.6585 5.8957899,5.7832429 5.9571994,5.9456945 C 6.0186015,6.1081508 6.0487518,6.2638573 6.0487558,6.4115405 V 7.7973346 C 6.0487518,7.9450206 6.0598257,8.0600954 6.0792746,8.1437831 C 6.0987164,8.2274721 6.1399159,8.3348216 6.205419,8.4647863 H 5.0334964 C 4.9864156,8.3840502 4.9562652,8.3231326 4.9419399,8.2807966 C 4.9276091,8.2384571 4.9135388,8.1717306 4.8992136,8.0811483 C 4.7354633,8.2327725 4.5705772,8.3410857 4.4088778,8.4060661 C 4.1878155,8.4927074 3.9325027,8.5352504 3.6398036,8.5352504 C 3.2508996,8.5352504 2.9563727,8.448208 2.7547578,8.2749247 C 2.5531422,8.1016392 2.451604,7.8888953 2.4516042,7.6348757 C 2.4516039,7.3966108 2.523978,7.1993117 2.6693051,7.0457175 C 2.8146314,6.8921262 3.0820166,6.7799698 3.4729674,6.7051409 C 3.941696,6.6145623 4.2452748,6.5497531 4.3844629,6.513322 C 4.523647,6.4768949 4.6724395,6.4295127 4.828003,6.3704364 C 4.8280006,6.2227538 4.7958272,6.1202538 4.7323773,6.0611773 C 4.6689216,6.0021056 4.5583573,5.9711425 4.3987049,5.9711399 C 4.1940178,5.9711422 4.0391949,6.0040393 3.9368533,6.0670494 C 3.8570248,6.1162802 3.7926909,6.2091223 3.7435676,6.3449911 L 2.5492644,6.221679 C 2.5942948,6.0208292 2.6596399,5.8632011 2.7445849,5.7480035 C 2.8295288,5.6328119 2.9511551,5.5332067 3.1108107,5.4485311 C 3.2254335,5.387491 3.3822418,5.3410808 3.5828351,5.3076029 C 3.7834254,5.2741305 4.0025947,5.2567153 4.2359379,5.2567121 Z M 12.533571,5.2613983 C 13.065751,5.2614015 13.470855,5.3522985 13.750255,5.5354254 C 14.029647,5.7185582 14.227705,5.9874171 14.340286,6.3398906 L 13.162258,6.4906055 C 13.125413,6.3567059 13.06009,6.255156 12.962869,6.1872183 C 12.865638,6.1192858 12.73394,6.0854397 12.570193,6.0854369 C 12.363458,6.0854394 12.197611,6.1579836 12.069684,6.3007439 C 11.941754,6.4435085 11.876398,6.6591606 11.876399,6.9486222 C 11.876397,7.2065806 11.940742,7.4019232 12.06765,7.5358231 C 12.194553,7.6697256 12.355383,7.7374296 12.551882,7.7374286 C 12.715628,7.7374295 12.853348,7.6968095 12.964903,7.6160738 C 13.076454,7.5353397 13.15989,7.4115578 13.215158,7.24418 L 14.403357,7.3733642 C 14.337854,7.6116309 14.231309,7.8176142 14.081892,7.9918824 C 13.932469,8.1661507 13.740454,8.3025192 13.508138,8.3990084 C 13.275819,8.4954944 12.981289,8.5438512 12.623092,8.5438513 C 12.277172,8.5438513 11.988663,8.5119273 11.758393,8.4498991 C 11.52812,8.3878714 11.330087,8.2872946 11.164293,8.1484693 C 10.998497,8.0096458 10.867807,7.8462038 10.773652,7.6591352 C 10.679496,7.4720678 10.633265,7.2245037 10.633266,6.9153475 C 10.633266,6.5924105 10.689547,6.3235634 10.804171,6.1089249 C 10.888091,5.9513967 11.002689,5.811183 11.148016,5.6861403 C 11.293343,5.5611019 11.444145,5.4672875 11.59766,5.4062412 C 11.841235,5.3097564 12.152853,5.2614015 12.533571,5.2613983 Z M 4.828003,6.9752534 C 4.6560647,7.0343289 4.4771332,7.0865515 4.2908717,7.1318403 C 4.0370596,7.1968236 3.8762191,7.2606479 3.8086744,7.3236592 C 3.7390792,7.3886419 3.7049088,7.4640926 3.7049104,7.5467956 C 3.7049092,7.6413151 3.7380683,7.7177036 3.8066398,7.7777612 C 3.8752076,7.8378207 3.9747112,7.8677993 4.1077588,7.8677987 C 4.246943,7.8677993 4.3786562,7.8349141 4.4983998,7.7699319 C 4.6181381,7.7049512 4.7025728,7.6266289 4.7527232,7.5330942 C 4.8028687,7.439561 4.8280006,7.3167284 4.828003,7.1670723 Z M 7.2542317,7.489072 H 8.5156762 V 8.9883917 C 8.6405328,8.8623699 8.782272,8.7675933 8.9409051,8.7045779 C 9.0995348,8.641568 9.2754563,8.6106293 9.4678634,8.6106258 C 9.8649506,8.6106293 10.19265,8.7489318 10.452604,9.0236237 C 10.712551,9.2983207 10.843241,9.6919116 10.843245,10.205855 C 10.843241,10.548486 10.782915,10.851192 10.664201,11.112101 C 10.54548,11.373012 10.38163,11.566408 10.171831,11.695389 C 9.9620245,11.824366 9.7298215,11.889165 9.4739672,11.889165 C 9.2549511,11.889165 9.053897,11.844691 8.8717292,11.754109 C 8.734588,11.683224 8.5858194,11.549758 8.4241198,11.354811 V 11.818701 H 7.2542317 Z M 9.0833263,9.5090431 C 8.9134357,9.5090452 8.775729,9.5680184 8.6682704,9.6891181 C 8.5608095,9.810222 8.5055017,9.9949461 8.5055033,10.241087 C 8.5055017,10.51086 8.5587863,10.707187 8.6642011,10.828288 C 8.7696126,10.94939 8.9033114,11.010321 9.0650149,11.01032 C 9.2144331,11.010321 9.3400921,10.949379 9.4414138,10.830245 C 9.5427308,10.711113 9.5940051,10.510931 9.5940079,10.229343 C 9.5940054,9.9812327 9.5447528,9.7994269 9.4454829,9.6832461 C 9.3462079,9.567069 9.2245572,9.5090456 9.0833263,9.5090431 Z" sodipodi:nodetypes="ccccccccccccccccccccccccccccccccccccccccccccssscccccccccccccccccccsccssccccsscsscccccccccssccccccccccccsccccccsccssccc" />
</svg>
