<?xml version="1.0" encoding="UTF-8" standalone="no"?>
<svg version="1.0" width="12.65774" height="16.312" id="svg2" sodipodi:docname="station.svg" inkscape:version="1.4.2 (ebf0e940d0, 2025-05-08)" xmlns:inkscape="http://www.inkscape.org/namespaces/inkscape" xmlns:sodipodi="http://sodipodi.sourceforge.net/DTD/sodipodi-0.dtd" xmlns="http://www.w3.org/2000/svg" xmlns:svg="http://www.w3.org/2000/svg">
  <defs id="defs2" />
  <sodipodi:namedview id="namedview2" pagecolor="#ffffff" bordercolor="#666666" borderopacity="1.0" inkscape:showpageshadow="2" inkscape:pageopacity="0.0" inkscape:pagecheckerboard="true" inkscape:deskcolor="#d1d1d1" showgrid="true" inkscape:zoom="37.071429" inkscape:cx="1.9961464" inkscape:cy="8.5780347" inkscape:window-width="2154" inkscape:window-height="1206" inkscape:window-x="0" inkscape:window-y="0" inkscape:window-maximized="1" inkscape:current-layer="svg2">
    <inkscape:grid id="grid2" units="px" originx="0" originy="0" spacingx="1" spacingy="1" empcolor="#0000ff" empopacity="0.25098039" color="#0000ff" opacity="0.1254902" empspacing="5" enabled="true" visible="true" />
  </sodipodi:namedview>
  <path d="M 6.3378698,1.5 L 4.0558698,1.502 C 2.9938698,1.502 2.2118698,2.355 2.2118698,3.285 V 9.87 C 2.2118698,10.771 2.9168698,11.51 3.6248698,11.624 L 1.4998698,14.812 H 2.7268698 L 4.2468698,12.584 H 8.4108698 L 9.9308698,14.812 H 11.15787 L 9.0328698,11.624 C 9.7408698,11.51 10.44687,10.771 10.44687,9.87 V 3.286 C 10.44687,2.356 9.6638698,1.503 8.6018698,1.503 Z M 5.4338698,1.882 H 7.2238698 C 7.3858698,1.882 7.5258698,2.018 7.5258698,2.179 V 2.703 C 7.5258698,2.865 7.3928698,3.003 7.2238698,3.003 H 5.4338698 A 0.303,0.303 0 0 1 5.1318698,2.703 V 2.179 C 5.1318698,2.018 5.2718698,1.882 5.4338698,1.882 Z M 4.1188698,3.359 H 8.5418698 C 9.1418698,3.359 9.4608698,3.789 9.4608698,4.281 V 5.466 C 9.4648698,6.036 9.0498698,6.386 8.5408698,6.386 H 4.1168698 C 3.6088698,6.386 3.1938698,6.036 3.1978698,5.466 V 4.281 C 3.1978698,3.789 3.5178698,3.359 4.1178698,3.359 Z M 4.0188698,9.046 A 0.81,0.81 0 1 1 4.0188698,10.665 A 0.81,0.81 0 0 1 4.0188698,9.046 Z M 8.6228698,9.046 A 0.8085,0.8085 0 1 1 8.6228698,10.663 A 0.8085,0.8085 0 0 1 8.6228698,9.046 Z" id="path2" style="stroke:#ffffff;stroke-width:3;stroke-linecap:round;stroke-linejoin:round;stroke-dasharray:none;stroke-opacity:0.5;paint-order:stroke fill markers" />
</svg>
