<?xml version="1.0" encoding="UTF-8" standalone="no"?>
<svg width="14.874933" height="14.941418" version="1.1" id="svg2" sodipodi:docname="telephone.svg" inkscape:version="1.4.2 (ebf0e940d0, 2025-05-08)" xmlns:inkscape="http://www.inkscape.org/namespaces/inkscape" xmlns:sodipodi="http://sodipodi.sourceforge.net/DTD/sodipodi-0.dtd" xmlns="http://www.w3.org/2000/svg" xmlns:svg="http://www.w3.org/2000/svg">
  <defs id="defs2" />
  <sodipodi:namedview id="namedview2" pagecolor="#ffffff" bordercolor="#666666" borderopacity="1.0" inkscape:showpageshadow="2" inkscape:pageopacity="0.0" inkscape:pagecheckerboard="true" inkscape:deskcolor="#d1d1d1" showgrid="true" inkscape:zoom="37.071429" inkscape:cx="4.4238921" inkscape:cy="9.522158" inkscape:window-width="2154" inkscape:window-height="1206" inkscape:window-x="0" inkscape:window-y="0" inkscape:window-maximized="1" inkscape:current-layer="svg2">
    <inkscape:grid id="grid2" units="px" originx="0" originy="0" spacingx="1" spacingy="1" empcolor="#0000ff" empopacity="0.25098039" color="#0000ff" opacity="0.1254902" empspacing="5" enabled="true" visible="true" />
  </sodipodi:namedview>
  <path d="M 2.4977168,8.4945324 C 1.5097168,9.4825324 1.0577168,11.068532 2.0467168,12.047532 L 2.4977168,12.494532 L 5.4977168,9.4945324 V 7.9945324 L 7.9977168,5.4945324 H 9.4977168 L 12.497717,2.4945324 L 11.987717,2.0075324 C 11.010717,1.0765324 9.4777168,1.5135324 8.4977168,2.4945324 Z M 3.0427168,13.032532 L 3.3817168,13.384532 C 3.3817168,13.384532 4.2317168,13.460532 4.6707168,13.028532 L 6.0647168,11.656532 C 6.4457168,11.254532 6.3717168,10.351532 6.3717168,10.351532 L 6.0327168,9.9985324 Z M 10.050717,6.0145324 L 10.389717,6.3675324 C 10.389717,6.3675324 11.259717,6.5255324 11.653717,6.1375324 L 13.047717,4.7645324 C 13.442717,4.3745324 13.369717,3.3555324 13.369717,3.3555324 L 13.030717,3.0025324 Z" id="path2" style="stroke:#ffffff;stroke-width:3;stroke-linecap:round;stroke-linejoin:round;stroke-dasharray:none;stroke-opacity:0.5;paint-order:stroke fill markers" />
</svg>
