<?xml version="1.0" encoding="UTF-8" standalone="no"?>
<svg width="15" height="17.000048" version="1.1" id="svg2" sodipodi:docname="townhall.svg" inkscape:version="1.4.2 (ebf0e940d0, 2025-05-08)" xmlns:inkscape="http://www.inkscape.org/namespaces/inkscape" xmlns:sodipodi="http://sodipodi.sourceforge.net/DTD/sodipodi-0.dtd" xmlns="http://www.w3.org/2000/svg" xmlns:svg="http://www.w3.org/2000/svg">
  <defs id="defs2" />
  <sodipodi:namedview id="namedview2" pagecolor="#ffffff" bordercolor="#666666" borderopacity="1.0" inkscape:showpageshadow="2" inkscape:pageopacity="0.0" inkscape:pagecheckerboard="true" inkscape:deskcolor="#d1d1d1" inkscape:zoom="26.314474" inkscape:cx="-1.8620931" inkscape:cy="9.3104655" inkscape:window-width="2154" inkscape:window-height="1206" inkscape:window-x="0" inkscape:window-y="0" inkscape:window-maximized="1" inkscape:current-layer="svg2" />
  <path d="M 7.5,1.500048 C 7.25,1.503048 7,1.664048 7,2.000048 V 5.875048 L 1.5,8.500048 H 13.5 L 8,5.875048 V 2.000048 C 8,1.652048 7.75,1.497048 7.5,1.500048 Z M 8.5,1.500048 V 4.500048 H 12.5 L 10.5,3.000048 L 12.5,1.500048 Z M 1.5,9.500048 V 10.500048 H 2.5 V 14.500048 H 1.5 V 15.500048 H 13.5 V 14.500048 H 12.5 V 10.500048 H 13.5 V 9.500048 Z M 7.5,11.000048 C 8.5,11.000048 9.5,11.500048 9.5,12.500048 V 14.500048 H 5.5 V 12.500048 C 5.5,11.500048 6.5,11.000048 7.5,11.000048 Z" id="path2" style="stroke:#ffffff;stroke-width:3;stroke-linecap:round;stroke-linejoin:round;stroke-dasharray:none;stroke-opacity:0.5;paint-order:stroke markers fill" />
</svg>
