<?xml version="1.0" encoding="UTF-8" standalone="no"?>
<svg width="17" height="17" viewBox="-0.258 -0.548 17 17" xml:space="preserve" version="1.1" id="svg2" sodipodi:docname="tree_protected.svg" inkscape:version="1.4.2 (ebf0e940d0, 2025-05-08)" xmlns:inkscape="http://www.inkscape.org/namespaces/inkscape" xmlns:sodipodi="http://sodipodi.sourceforge.net/DTD/sodipodi-0.dtd" xmlns="http://www.w3.org/2000/svg" xmlns:svg="http://www.w3.org/2000/svg"><defs id="defs2" /><sodipodi:namedview id="namedview2" pagecolor="#ffffff" bordercolor="#666666" borderopacity="1.0" inkscape:showpageshadow="2" inkscape:pageopacity="0.0" inkscape:pagecheckerboard="true" inkscape:deskcolor="#d1d1d1" inkscape:zoom="26.314474" inkscape:cx="15.618781" inkscape:cy="5.4722735" inkscape:window-width="2154" inkscape:window-height="1206" inkscape:window-x="0" inkscape:window-y="0" inkscape:window-maximized="1" inkscape:current-layer="svg2" showgrid="true"><inkscape:grid id="grid1" units="px" originx="0" originy="0" spacingx="1" spacingy="1" empcolor="#0000ff" empopacity="0.25098039" color="#0000ff" opacity="0.1254902" empspacing="5" enabled="true" visible="true" /></sodipodi:namedview>
  
  <path style="fill:#107010;fill-opacity:1;fill-rule:evenodd;stroke:#ffffff;stroke-width:3;stroke-linecap:round;stroke-linejoin:round;stroke-dasharray:none;stroke-opacity:0.5;paint-order:stroke fill markers" d="M 8.242,0.952 C 4.382,0.952 1.242,4.092 1.242,7.952 C 1.242,11.812 4.382,14.952 8.242,14.952 C 12.102,14.952 15.242,11.812 15.242,7.952 C 15.242,4.092 12.102,0.952 8.242,0.952 Z M 8.242,1.952 C 11.562,1.952 14.242,4.632 14.242,7.952 C 14.242,11.272 11.562,13.952 8.242,13.952 C 4.922,13.952 2.242,11.272 2.242,7.952 C 2.242,4.632 4.922,1.952 8.242,1.952 Z M 8.242,2.952 C 6.322,2.952 4.842,6.245 5.34,8.202 C 5.588,9.182 6.737,9.77 7.763,9.915 V 12.952 H 8.763 V 9.909 C 9.779,9.754 10.899,9.168 11.144,8.202 C 11.642,6.245 10.163,2.952 8.242,2.952 Z" id="path2" />
</svg>
