<?xml version="1.0" encoding="UTF-8" standalone="no"?>
<svg width="8.6200209" height="9.214529" version="1.1" id="svg4" sodipodi:docname="tree2.svg" inkscape:version="1.2.2 (b0a8486541, 2022-12-01)" xmlns:inkscape="http://www.inkscape.org/namespaces/inkscape" xmlns:sodipodi="http://sodipodi.sourceforge.net/DTD/sodipodi-0.dtd" xmlns="http://www.w3.org/2000/svg" xmlns:svg="http://www.w3.org/2000/svg">
  <defs id="defs8" />
  <sodipodi:namedview id="namedview6" pagecolor="#ffffff" bordercolor="#666666" borderopacity="1.0" inkscape:showpageshadow="2" inkscape:pageopacity="0.0" inkscape:pagecheckerboard="0" inkscape:deskcolor="#d1d1d1" showgrid="false" inkscape:zoom="16.857143" inkscape:cx="1.6016949" inkscape:cy="4.7161017" inkscape:window-width="1863" inkscape:window-height="1056" inkscape:window-x="0" inkscape:window-y="0" inkscape:window-maximized="1" inkscape:current-layer="svg4" />
  <path d="M 7.3680872,7.2110248 C 7.1070872,7.4900248 6.8160872,6.9950248 6.4850872,7.2030248 C 6.1550872,7.4110248 6.0050872,8.8540248 5.6130872,8.8910248 C 5.2230872,8.9280248 4.3750872,7.8320248 3.9800872,7.7240248 C 3.5860872,7.6150248 2.5400872,9.1680248 2.2400872,8.9450248 C 1.9390872,8.7220248 2.4150872,7.2700248 2.1910872,6.9270248 C 1.9680872,6.5830248 1.1190872,7.3110248 0.90108721,6.9800248 C 0.68508721,6.6500248 1.3930872,5.9680248 1.3470872,5.5920248 C 1.3020872,5.2160248 0.08808721,4.0020248 0.26908721,3.6520248 C 0.44908721,3.3030248 1.4690872,3.4420248 1.6810872,3.1020248 C 1.8930872,2.7620248 1.9780872,2.0580248 2.2740872,1.8330248 C 2.5710872,1.6080248 3.4640872,1.7060248 3.8450872,1.5630248 C 4.2260872,1.4220248 4.6350872,0.25602477 5.0450872,0.25002477 C 5.4560872,0.24302477 5.8180872,1.7160248 6.1890872,1.8680248 C 6.5590872,2.0210248 7.3220872,1.3910248 7.5490872,1.7210248 C 7.7750872,2.0510248 7.0820872,3.4940248 7.2790872,3.8110248 C 7.4740872,4.1290248 8.3200872,4.0490248 8.3680872,4.4410248 C 8.4150872,4.8340248 7.5660872,5.1830248 7.4980872,5.5610248 C 7.4310872,5.9410248 7.6280872,6.9320248 7.3680872,7.2110248 Z" fill="#c2eeb9" stroke="#dfffdf" stroke-width="0.5" id="path2" />
</svg>
