<?xml version="1.0" encoding="UTF-8" standalone="no"?>
<!-- Created with Inkscape (http://www.inkscape.org/) -->

<svg version="1.0" width="17" height="16.999994" id="svg2" sodipodi:version="0.32" inkscape:version="1.4.2 (ebf0e940d0, 2025-05-08)" sodipodi:docname="university.svg" inkscape:output_extension="org.inkscape.output.svg.inkscape" xmlns:inkscape="http://www.inkscape.org/namespaces/inkscape" xmlns:sodipodi="http://sodipodi.sourceforge.net/DTD/sodipodi-0.dtd" xmlns="http://www.w3.org/2000/svg" xmlns:svg="http://www.w3.org/2000/svg" xmlns:rdf="http://www.w3.org/1999/02/22-rdf-syntax-ns#" xmlns:cc="http://creativecommons.org/ns#" xmlns:dc="http://purl.org/dc/elements/1.1/">
  <metadata id="metadata2975">
    <rdf:RDF>
      <cc:Work rdf:about="">
        <dc:format>image/svg+xml</dc:format>
        <dc:type rdf:resource="http://purl.org/dc/dcmitype/StillImage" />
        <cc:license rdf:resource="http://web.resource.org/cc/PublicDomain" />
        <dc:language>en</dc:language>
      </cc:Work>
    </rdf:RDF>
  </metadata>
  <sodipodi:namedview inkscape:window-height="1206" inkscape:window-width="2154" inkscape:pageshadow="2" inkscape:pageopacity="0.0" guidetolerance="10.0" gridtolerance="10.0" objecttolerance="10.0" borderopacity="1.0" bordercolor="#666666" pagecolor="#ffffff" id="base" inkscape:zoom="45.254834" inkscape:cx="6.0435533" inkscape:cy="8.4631843" inkscape:window-x="0" inkscape:window-y="0" inkscape:current-layer="svg2" showgrid="false" inkscape:pagecheckerboard="true" inkscape:window-maximized="1" inkscape:showpageshadow="2" inkscape:deskcolor="#d1d1d1" />
  <defs id="defs4">
    <inkscape:perspective sodipodi:type="inkscape:persp3d" inkscape:vp_x="0 : -273.00001 : 1" inkscape:vp_y="0 : 1000 : 0" inkscape:vp_z="580 : -273.00001 : 1" inkscape:persp3d-origin="290 : -369.66668 : 1" id="perspective2441" />
    <inkscape:perspective id="perspective3452" inkscape:persp3d-origin="30 : -543.00001 : 1" inkscape:vp_z="60 : -533.00001 : 1" inkscape:vp_y="0 : 1000 : 0" inkscape:vp_x="0 : -533.00001 : 1" sodipodi:type="inkscape:persp3d" />
    <symbol viewBox="244.5 110 489 219.9" id="symbol-university">
      <path id="path4460" d="M 79,43 L 136,162 C 136,162 157,66 240,66 C 323,66 364,172 364,172 L 407,39 L 489,22 L 0,17 Z" />
      <path id="path4462" d="M 94,176 L 73,215" stroke-width="20" stroke="#000000" fill="none" />
      <path id="path4464" d="M 300,19 C 300,29.5 277.4,38 249.5,38 C 221.6,38 199,29.5 199,19 C 199,8.5 221.6,0 249.5,0 C 277.4,0 300,8.5 300,19 Z" />
      <path id="path4466" d="M 112,216 L 96,178 L 64,88 C 64,88 55,80 60,53 C 65,26 76,29 76,29" stroke-width="20" stroke="#000000" ill="none" />
    </symbol>
    <inkscape:perspective id="perspective4471" inkscape:persp3d-origin="372.04724 : -212.21262 : 1" inkscape:vp_z="744.09448 : -36.818916 : 1" inkscape:vp_y="0 : 1000 : 0" inkscape:vp_x="0 : -36.818916 : 1" sodipodi:type="inkscape:persp3d" />
    <inkscape:perspective id="perspective4668" inkscape:persp3d-origin="6 : -559.00001 : 1" inkscape:vp_z="12 : -557.00001 : 1" inkscape:vp_y="0 : 1000 : 0" inkscape:vp_x="0 : -557.00001 : 1" sodipodi:type="inkscape:persp3d" />
    <marker viewBox="0 0 10 10" refY="5" refX="10" orient="auto" markerWidth="4" markerUnits="strokeWidth" markerHeight="3" id="ArrowStart">
      <path id="path3634" d="M 10,0 L 0,5 L 10,10 Z" />
    </marker>
    <marker viewBox="0 0 10 10" refY="5" refX="0" orient="auto" markerWidth="4" markerUnits="strokeWidth" markerHeight="3" id="ArrowEnd">
      <path id="path3631" d="M 0,0 L 10,5 L 0,10 Z" />
    </marker>
    <inkscape:perspective id="perspective2510" inkscape:persp3d-origin="306.082 : -358.60967 : 1" inkscape:vp_z="612.164 : -256.4145 : 1" inkscape:vp_y="0 : 1000 : 0" inkscape:vp_x="0 : -256.4145 : 1" sodipodi:type="inkscape:persp3d" />
    <marker viewBox="0 0 10 10" refY="5" refX="10" orient="auto" markerWidth="4" markerUnits="strokeWidth" markerHeight="3" id="marker2611">
      <path id="path1325" d="M 10,0 L 0,5 L 10,10 Z" />
    </marker>
    <marker viewBox="0 0 10 10" refY="5" refX="0" orient="auto" markerWidth="4" markerUnits="strokeWidth" markerHeight="3" id="marker2608">
      <path id="path1322" d="M 0,0 L 10,5 L 0,10 Z" />
    </marker>
    <inkscape:perspective id="perspective2605" inkscape:persp3d-origin="306.082 : -358.60967 : 1" inkscape:vp_z="612.164 : -256.4145 : 1" inkscape:vp_y="0 : 1000 : 0" inkscape:vp_x="0 : -256.4145 : 1" sodipodi:type="inkscape:persp3d" />
    <inkscape:perspective id="perspective2656" inkscape:persp3d-origin="372.04724 : -212.21262 : 1" inkscape:vp_z="744.09448 : -36.818916 : 1" inkscape:vp_y="0 : 1000 : 0" inkscape:vp_x="0 : -36.818916 : 1" sodipodi:type="inkscape:persp3d" />
  </defs>
  <path id="path3526" style="color:#000000;fill:#000000;fill-rule:evenodd;stroke:#ffffff;stroke-width:3;stroke-linecap:round;stroke-linejoin:round;stroke-dasharray:none;stroke-opacity:0.5;paint-order:stroke markers fill" d="M 8.3261719,1.5035279 L 8.3242188,1.5054811 C 8.1708355,1.5271406 8.0389046,1.6196034 7.9707031,1.7535453 L 6.9492188,4.1990282 H 1.8125 C 1.6395032,4.1991411 1.5001174,4.3333906 1.5,4.4998304 V 12.553125 C 1.5001176,12.719565 1.6395033,12.853815 1.8125,12.853928 H 3.3320312 L 2.484375,14.87946 C 2.3885692,15.111349 2.5072064,15.374774 2.7480469,15.467391 C 2.988506,15.559783 3.2603539,15.448318 3.3574219,15.217374 L 4.34375,12.853928 H 12.5625 L 13.548828,15.217374 C 13.645894,15.44939 13.92108,15.561083 14.162109,15.467391 C 14.402152,15.374003 14.517906,15.110805 14.421875,14.87946 L 13.576172,12.853928 H 15.1875 C 15.360497,12.853815 15.499882,12.719565 15.5,12.553125 V 4.4998304 C 15.499882,4.3333907 15.360497,4.1991413 15.1875,4.1990282 H 9.9589844 L 8.9375,1.7535453 C 8.8692985,1.6196033 8.7373677,1.5271406 8.5839844,1.5054811 C 8.5826313,1.5048223 8.5814378,1.504174 8.5800781,1.5035279 C 8.5381295,1.4987262 8.4968439,1.4993804 8.4550781,1.5054811 C 8.4126449,1.4992025 8.3687908,1.4985481 8.3261719,1.5035279 Z M 8.4550781,3.0173052 L 8.9472656,4.1990282 H 7.9609375 Z M 11.294922,6.0018882 C 11.553048,6.0005453 11.771033,6.0123055 11.951172,6.0370469 C 12.824805,6.1562804 13.581462,6.8834201 13.685547,7.7637298 C 13.81091,8.4561945 13.588002,9.2415965 12.966797,9.6349539 H 13.851562 V 10.496342 H 11.826172 V 9.5724495 C 12.506255,9.1307928 12.714857,8.1667942 12.386719,7.4453482 C 12.158287,6.7900178 11.213359,6.6230446 10.732422,7.0957144 C 10.101734,7.7963481 10.262061,9.0606079 11.058594,9.5724495 V 10.496342 H 9.0478257 C 9.0478257,10.201573 9.0566406,9.8873414 9.0566406,9.6232344 C 9.322999,9.6232344 9.6621476,9.6212811 9.8984375,9.6212811 C 9.1764295,9.146304 9.01873,8.1502531 9.296875,7.3808906 C 9.559971,6.5324571 10.431419,6.0064766 11.294922,6.0018882 Z M 3.1542969,6.0839252 H 4.2890625 C 4.2893645,6.4447668 4.2870465,6.8051944 4.2890625,7.1660318 C 4.2609205,7.6810996 4.368536,8.2547516 4.8125,8.5743332 C 4.826452,7.7442274 4.8184745,6.9140853 4.8203125,6.0839252 H 5.9550781 V 8.5762864 C 6.1170521,8.4483055 6.2513729,8.2931917 6.3417969,8.1075037 C 6.5969479,7.4678913 6.4528622,6.7553454 6.4882812,6.0839252 H 7.6230469 C 7.6005439,6.7772752 7.7052235,7.4872745 7.5078125,8.162195 C 7.2918805,8.8446711 6.7156184,9.5190117 5.9589844,9.5861224 C 5.9532264,9.8895415 5.9557681,10.192888 5.9550781,10.496342 H 4.8203125 V 9.5861224 C 4.3021095,9.551816 3.8775794,9.1978508 3.5839844,8.7970049 C 3.0166734,8.0440845 3.173501,7.0458187 3.15625,6.1640089 Z" sodipodi:nodetypes="ccccccccccccccccccccccccccccccccccccccccccccccccccccccccccccccccccc" />
</svg>
