<?xml version="1.0" encoding="UTF-8" standalone="no"?>
<svg width="16" height="16" version="1.0" id="svg2" sodipodi:docname="waterfall.svg" inkscape:version="1.4.2 (ebf0e940d0, 2025-05-08)" xmlns:inkscape="http://www.inkscape.org/namespaces/inkscape" xmlns:sodipodi="http://sodipodi.sourceforge.net/DTD/sodipodi-0.dtd" xmlns="http://www.w3.org/2000/svg" xmlns:svg="http://www.w3.org/2000/svg">
  <defs id="defs2" />
  <sodipodi:namedview id="namedview2" pagecolor="#ffffff" bordercolor="#666666" borderopacity="1.0" inkscape:showpageshadow="2" inkscape:pageopacity="0.0" inkscape:pagecheckerboard="true" inkscape:deskcolor="#d1d1d1" inkscape:zoom="18.607143" inkscape:cx="-1.34357" inkscape:cy="11.715931" inkscape:window-width="2154" inkscape:window-height="1206" inkscape:window-x="0" inkscape:window-y="0" inkscape:window-maximized="1" inkscape:current-layer="svg2" showgrid="true">
    <inkscape:grid id="grid1" units="px" originx="0" originy="0" spacingx="1" spacingy="1" empcolor="#0000ff" empopacity="0.25098039" color="#0000ff" opacity="0.1254902" empspacing="5" enabled="true" visible="true" />
  </sodipodi:namedview>
  <path d="M 2.5000769,11.5 C 3.1411261,11.5 4.3292175,12.5 4.9002614,12.5 C 5.4353026,12.5 6.6953995,11.5 7.300446,11.5 C 7.9054925,11.5 9.1665895,12.5 9.7006305,12.5 C 10.34268,12.5 11.525771,11.5 12.099815,11.5 C 12.740864,11.471 14.001961,12.5 14.5,12.5 V 14.5 C 13.895953,14.5 12.669859,13.5 12.099815,13.5 C 11.530771,13.5 10.304677,14.5 9.7006305,14.5 C 9.1265864,14.5 7.9054925,13.5 7.300446,13.5 C 6.6913991,13.5 5.4713053,14.5 4.9002614,14.5 C 4.2602122,14.5 3.1061235,13.5 2.5000769,13.5 Z M 2.5000769,3.4999999 C 3.594161,3.4999999 4.5012307,3.7999999 4.5012307,5.2499998 L 4.5002307,7.7499998 C 4.5002307,9.7499998 6.000346,10.749999 7.0004229,10.749999 C 7.0004229,10.749999 6.5003845,9.7499998 6.5003845,7.7499998 V 5.2499998 C 6.5003845,4.3349999 5.8513345,3.9419998 5.4993075,3.4999999 C 6.5933916,3.4999999 7.5004614,3.7999999 7.5004614,5.2499998 V 7.7499998 C 7.5004614,9.7499998 9.0005767,10.749999 10.000654,10.749999 C 10.000654,10.749999 9.5006152,9.7499998 9.5006152,7.7499998 L 9.6006228,5.2499998 C 9.6376257,4.3359998 8.8515652,3.9419998 8.5005383,3.4999999 C 9.5936223,3.4999999 10.500692,3.7999999 10.500692,5.2499998 V 7.7499998 C 10.500692,9.7499998 12.000807,10.749999 13.000884,10.749999 C 13.000884,10.749999 12.500846,9.7499998 12.500846,7.7499998 V 5.2499998 C 12.500846,2.2499999 9.5006152,1.5 8.5005383,1.5 H 1.5 V 3.4999999 Z" fill="#0064ff" id="path2" style="stroke:#ffffff;stroke-width:3;stroke-linecap:round;stroke-linejoin:round;stroke-dasharray:none;stroke-opacity:0.5;paint-order:stroke fill markers" />
</svg>
