<?xml version="1.0" encoding="UTF-8" standalone="no"?>
<svg width="13" height="17" version="1.1" id="svg2" sodipodi:docname="water_tower.svg" inkscape:version="1.4.2 (ebf0e940d0, 2025-05-08)" xmlns:inkscape="http://www.inkscape.org/namespaces/inkscape" xmlns:sodipodi="http://sodipodi.sourceforge.net/DTD/sodipodi-0.dtd" xmlns="http://www.w3.org/2000/svg" xmlns:svg="http://www.w3.org/2000/svg">
  <defs id="defs2" />
  <sodipodi:namedview id="namedview2" pagecolor="#ffffff" bordercolor="#666666" borderopacity="1.0" inkscape:showpageshadow="2" inkscape:pageopacity="0.0" inkscape:pagecheckerboard="true" inkscape:deskcolor="#d1d1d1" showgrid="true" inkscape:zoom="37.071429" inkscape:cx="2.6974952" inkscape:cy="7.7957611" inkscape:window-width="2154" inkscape:window-height="1206" inkscape:window-x="0" inkscape:window-y="0" inkscape:window-maximized="1" inkscape:current-layer="svg2">
    <inkscape:grid id="grid2" units="px" originx="0" originy="0" spacingx="1" spacingy="1" empcolor="#0000ff" empopacity="0.25098039" color="#0000ff" opacity="0.1254902" empspacing="5" enabled="true" visible="true" />
  </sodipodi:namedview>
  <path d="M 1.5,1.5 V 5 C 1.5,6.447 2.29,7.48 3.406,8.125 L 2.5,15.5 H 4 L 4.188,14.031 L 6.5,12.5 L 8.813,14.063 L 9,15.5 H 10.5 L 9.594,8.156 C 10.718,7.513 11.5,6.463 11.5,5 V 1.5 H 10 V 3 H 9.5 C 8.373,3.5 7.5,3.5 6.5,3 C 5.5,2.5 4.538,2.5 3.5,3 H 3 V 1.5 Z M 4.844,8.688 C 5.913,8.955 7.086,8.981 8.156,8.718 L 8.344,10.281 L 6.5,11.5 L 4.656,10.281 Z M 4.531,11.188 L 5.75,12 L 4.312,12.969 Z M 8.469,11.188 L 8.688,12.968 L 7.25,12 Z" id="path2" style="stroke:#ffffff;stroke-width:3;stroke-linecap:round;stroke-linejoin:round;stroke-dasharray:none;stroke-opacity:0.5;paint-order:stroke fill markers" />
</svg>
